AnekDevanagari-ExpandedExtraBold.ufo
<glyph name="semicolon" format="2">
  <advance width="624"/>
  <unicode hex="003B"/>
  <outline>
    <contour>
      <point x="128" y="342" type="line"/>
      <point x="132" y="295"/>
      <point x="134" y="255"/>
      <point x="134" y="208" type="curve" smooth="yes"/>
      <point x="134" y="46"/>
      <point x="103" y="-85"/>
      <point x="41" y="-206" type="curve"/>
      <point x="319" y="-262" type="line"/>
      <point x="449" y="-119"/>
      <point x="502" y="36"/>
      <point x="502" y="221" type="curve" smooth="yes"/>
      <point x="502" y="263"/>
      <point x="497" y="308"/>
      <point x="491" y="342" type="curve"/>
    </contour>
    <contour>
      <point x="312" y="557" type="curve" smooth="yes"/>
      <point x="461" y="557"/>
      <point x="529" y="630"/>
      <point x="529" y="748" type="curve" smooth="yes"/>
      <point x="529" y="753" type="line" smooth="yes"/>
      <point x="529" y="872"/>
      <point x="461" y="947"/>
      <point x="312" y="947" type="curve" smooth="yes"/>
      <point x="162" y="947"/>
      <point x="95" y="872"/>
      <point x="95" y="753" type="curve" smooth="yes"/>
      <point x="95" y="748" type="line" smooth="yes"/>
      <point x="95" y="630"/>
      <point x="162" y="557"/>
    </contour>
  </outline>
</glyph>
<glyph name="G" format="2">
  <advance width="1688"/>
  <unicode hex="0047"/>
  <anchor x="844" y="0" name="bottom"/>
  <anchor x="844" y="1278" name="top"/>
  <outline>
    <contour>
      <point x="745" y="-45" type="curve" smooth="yes"/>
      <point x="1051" y="-45"/>
      <point x="1162" y="62"/>
      <point x="1202" y="231" type="curve"/>
      <point x="1562" y="231" type="line"/>
      <point x="1562" y="757" type="line"/>
      <point x="869" y="757" type="line"/>
      <point x="869" y="473" type="line"/>
      <point x="1250" y="477" type="line"/>
      <point x="1206" y="561" type="line"/>
      <point x="1206" y="395" type="line"/>
      <point x="1149" y="336"/>
      <point x="1053" y="285"/>
      <point x="888" y="285" type="curve" smooth="yes"/>
      <point x="625" y="285"/>
      <point x="504" y="420"/>
      <point x="504" y="631" type="curve" smooth="yes"/>
      <point x="504" y="647" type="line" smooth="yes"/>
      <point x="504" y="872"/>
      <point x="647" y="993"/>
      <point x="968" y="993" type="curve" smooth="yes"/>
      <point x="1193" y="993"/>
      <point x="1359" y="950"/>
      <point x="1517" y="899" type="curve"/>
      <point x="1480" y="1221" type="line"/>
      <point x="1333" y="1283"/>
      <point x="1143" y="1322"/>
      <point x="907" y="1322" type="curve" smooth="yes"/>
      <point x="361" y="1322"/>
      <point x="82" y="1069"/>
      <point x="82" y="642" type="curve"/>
      <point x="82" y="626" type="line"/>
      <point x="82" y="200"/>
      <point x="343" y="-45"/>
    </contour>
    <contour>
      <point x="1204" y="0" type="line"/>
      <point x="1562" y="0" type="line"/>
      <point x="1562" y="310" type="line"/>
      <point x="1216" y="310" type="line"/>
    </contour>
  </outline>
</glyph>
<glyph name="T" format="2">
  <advance width="1518"/>
  <unicode hex="0054"/>
  <anchor x="759" y="0" name="bottom"/>
  <anchor x="759" y="639" name="center"/>
  <anchor x="759" y="1278" name="top"/>
  <outline>
    <contour>
      <point x="962" y="0" type="line"/>
      <point x="962" y="1136" type="line"/>
      <point x="556" y="1136" type="line"/>
      <point x="556" y="0" type="line"/>
    </contour>
    <contour>
      <point x="1454" y="961" type="line"/>
      <point x="1454" y="1278" type="line"/>
      <point x="64" y="1278" type="line"/>
      <point x="64" y="961" type="line"/>
    </contour>
  </outline>
</glyph>
<glyph name="j" format="2">
  <advance width="654"/>
  <unicode hex="006A"/>
  <outline>
    <contour>
      <point x="536" y="172" type="line"/>
      <point x="536" y="963" type="line"/>
      <point x="139" y="963" type="line"/>
      <point x="139" y="172" type="line"/>
    </contour>
    <contour>
      <point x="338" y="1050" type="curve" smooth="yes"/>
      <point x="482" y="1050"/>
      <point x="546" y="1113"/>
      <point x="546" y="1220" type="curve" smooth="yes"/>
      <point x="546" y="1225" type="line" smooth="yes"/>
      <point x="546" y="1329"/>
      <point x="482" y="1395"/>
      <point x="338" y="1395" type="curve" smooth="yes"/>
      <point x="192" y="1395"/>
      <point x="130" y="1328"/>
      <point x="130" y="1225" type="curve" smooth="yes"/>
      <point x="130" y="1220" type="line" smooth="yes"/>
      <point x="130" y="1116"/>
      <point x="192" y="1050"/>
    </contour>
    <contour>
      <point x="116" y="-363" type="curve" smooth="yes"/>
      <point x="437" y="-363"/>
      <point x="536" y="-174"/>
      <point x="536" y="92" type="curve" smooth="yes"/>
      <point x="536" y="203" type="line"/>
      <point x="139" y="203" type="line"/>
      <point x="139" y="105" type="line" smooth="yes"/>
      <point x="139" y="7"/>
      <point x="115" y="-54"/>
      <point x="-4" y="-54" type="curve" smooth="yes"/>
      <point x="-31" y="-54"/>
      <point x="-55" y="-51"/>
      <point x="-79" y="-46" type="curve"/>
      <point x="-48" y="-348" type="line"/>
      <point x="-8" y="-357"/>
      <point x="50" y="-363"/>
    </contour>
  </outline>
</glyph>
<glyph name="y" format="2">
  <advance width="1339"/>
  <unicode hex="0079"/>
  <anchor x="1107" y="-7" name="bottom"/>
  <anchor x="670" y="963" name="top"/>
  <outline>
    <contour>
      <point x="648" y="303" type="line"/>
      <point x="422" y="963" type="line"/>
      <point x="4" y="963" type="line"/>
      <point x="369" y="50" type="line"/>
      <point x="778" y="50" type="line"/>
      <point x="604" y="228" type="line"/>
      <point x="372" y="-338" type="line"/>
      <point x="780" y="-338" type="line"/>
      <point x="1335" y="963" type="line"/>
      <point x="921" y="963" type="line"/>
      <point x="614" y="162" type="line"/>
      <point x="846" y="303" type="line"/>
    </contour>
  </outline>
</glyph>
<glyph name="bar" format="2">
  <advance width="628"/>
  <unicode hex="007C"/>
  <outline>
    <contour>
      <point x="478" y="1415" type="line"/>
      <point x="150" y="1415" type="line"/>
      <point x="150" y="-425" type="line"/>
      <point x="478" y="-425" type="line"/>
    </contour>
  </outline>
</glyph>
<glyph name="yen" format="2">
  <advance width="1562"/>
  <unicode hex="00A5"/>
  <anchor x="781" y="0" name="bottom"/>
  <anchor x="781" y="1278" name="top"/>
  <anchor x="20" y="1278" name="topleft"/>
  <outline>
    <contour>
      <point x="1413" y="501" type="line"/>
      <point x="1432" y="695" type="line"/>
      <point x="914" y="695" type="line"/>
      <point x="851" y="501" type="line"/>
    </contour>
    <contour>
      <point x="132" y="209" type="line"/>
      <point x="1413" y="209" type="line"/>
      <point x="1432" y="403" type="line"/>
      <point x="153" y="403" type="line"/>
    </contour>
    <contour>
      <point x="153" y="695" type="line"/>
      <point x="132" y="501" type="line"/>
      <point x="729" y="501" type="line"/>
      <point x="665" y="695" type="line"/>
    </contour>
    <contour>
      <point x="947" y="324" type="line"/>
      <point x="1562" y="1278" type="line"/>
      <point x="1126" y="1278" type="line"/>
      <point x="905" y="915" type="line"/>
      <point x="790" y="728" type="line"/>
      <point x="772" y="728" type="line"/>
      <point x="655" y="918" type="line"/>
      <point x="436" y="1278" type="line"/>
      <point x="0" y="1278" type="line"/>
      <point x="616" y="324" type="line"/>
    </contour>
    <contour>
      <point x="984" y="0" type="line"/>
      <point x="984" y="668" type="line"/>
      <point x="578" y="668" type="line"/>
      <point x="578" y="0" type="line"/>
    </contour>
  </outline>
</glyph>
<glyph name="copyright" format="2">
  <advance width="1710"/>
  <unicode hex="00A9"/>
  <outline>
    <contour>
      <point x="855" y="-45" type="curve" smooth="yes"/>
      <point x="1341" y="-45"/>
      <point x="1628" y="209"/>
      <point x="1628" y="638" type="curve" smooth="yes"/>
      <point x="1628" y="654" type="line" smooth="yes"/>
      <point x="1628" y="1069"/>
      <point x="1341" y="1315"/>
      <point x="855" y="1315" type="curve" smooth="yes"/>
      <point x="369" y="1315"/>
      <point x="82" y="1069"/>
      <point x="82" y="654" type="curve" smooth="yes"/>
      <point x="82" y="638" type="line" smooth="yes"/>
      <point x="82" y="209"/>
      <point x="369" y="-45"/>
    </contour>
    <contour>
      <point x="897" y="307" type="curve" smooth="yes"/>
      <point x="997" y="307"/>
      <point x="1091" y="328"/>
      <point x="1154" y="360" type="curve"/>
      <point x="1176" y="553" type="line"/>
      <point x="1103" y="524"/>
      <point x="1033" y="506"/>
      <point x="945" y="506" type="curve" smooth="yes"/>
      <point x="814" y="506"/>
      <point x="753" y="553"/>
      <point x="753" y="634" type="curve" smooth="yes"/>
      <point x="753" y="643" type="line" smooth="yes"/>
      <point x="753" y="721"/>
      <point x="807" y="765"/>
      <point x="937" y="765" type="curve" smooth="yes"/>
      <point x="1028" y="765"/>
      <point x="1105" y="744"/>
      <point x="1170" y="715" type="curve"/>
      <point x="1146" y="910" type="line"/>
      <point x="1086" y="940"/>
      <point x="993" y="961"/>
      <point x="895" y="961" type="curve" smooth="yes"/>
      <point x="629" y="961"/>
      <point x="502" y="842"/>
      <point x="502" y="642" type="curve" smooth="yes"/>
      <point x="502" y="634" type="line" smooth="yes"/>
      <point x="502" y="426"/>
      <point x="629" y="307"/>
    </contour>
    <contour>
      <point x="855" y="151" type="curve" smooth="yes"/>
      <point x="523" y="151"/>
      <point x="327" y="330"/>
      <point x="327" y="633" type="curve" smooth="yes"/>
      <point x="327" y="659" type="line" smooth="yes"/>
      <point x="327" y="949"/>
      <point x="523" y="1119"/>
      <point x="855" y="1119" type="curve" smooth="yes"/>
      <point x="1187" y="1119"/>
      <point x="1383" y="949"/>
      <point x="1383" y="659" type="curve" smooth="yes"/>
      <point x="1383" y="633" type="line" smooth="yes"/>
      <point x="1383" y="330"/>
      <point x="1187" y="151"/>
    </contour>
  </outline>
</glyph>
<glyph name="guillemetleft" format="2">
  <advance width="1319"/>
  <unicode hex="00AB"/>
  <outline>
    <contour>
      <point x="1319" y="893" type="line"/>
      <point x="940" y="893" type="line"/>
      <point x="597" y="510" type="line"/>
      <point x="597" y="466" type="line"/>
      <point x="940" y="59" type="line"/>
      <point x="1319" y="59" type="line"/>
      <point x="960" y="475" type="line"/>
    </contour>
    <contour>
      <point x="758" y="893" type="line"/>
      <point x="379" y="893" type="line"/>
      <point x="36" y="510" type="line"/>
      <point x="36" y="466" type="line"/>
      <point x="379" y="59" type="line"/>
      <point x="758" y="59" type="line"/>
      <point x="399" y="475" type="line"/>
    </contour>
  </outline>
</glyph>
<glyph name="acute" format="2">
  <advance width="846"/>
  <unicode hex="00B4"/>
  <anchor x="270" y="963" name="_top"/>
  <anchor x="270" y="1374" name="top"/>
  <outline>
    <contour>
      <point x="84" y="1079" type="line"/>
      <point x="84" y="1073" type="line"/>
      <point x="428" y="1073" type="line"/>
      <point x="734" y="1378" type="line"/>
      <point x="734" y="1385" type="line"/>
      <point x="308" y="1385" type="line"/>
    </contour>
  </outline>
</glyph>
<glyph name="cedilla" format="2">
  <advance width="761"/>
  <unicode hex="00B8"/>
  <anchor x="381" y="0" name="_bottom"/>
  <anchor x="421" y="-449" name="bottom"/>
  <outline>
    <contour>
      <point x="260" y="37" type="line"/>
      <point x="220" y="-180" type="line"/>
      <point x="221" y="-180"/>
      <point x="223" y="-180"/>
      <point x="225" y="-180" type="curve"/>
      <point x="392" y="-182"/>
      <point x="428" y="-192"/>
      <point x="428" y="-221" type="curve"/>
      <point x="428" y="-223" type="line"/>
      <point x="428" y="-249"/>
      <point x="390" y="-253"/>
      <point x="305" y="-253" type="curve" smooth="yes"/>
      <point x="255" y="-253"/>
      <point x="195" y="-248"/>
      <point x="141" y="-237" type="curve"/>
      <point x="180" y="-424" type="line"/>
      <point x="236" y="-438"/>
      <point x="312" y="-449"/>
      <point x="383" y="-449" type="curve" smooth="yes"/>
      <point x="600" y="-449"/>
      <point x="702" y="-386"/>
      <point x="702" y="-248" type="curve" smooth="yes"/>
      <point x="702" y="-244" type="line" smooth="yes"/>
      <point x="702" y="-143"/>
      <point x="636" y="-78"/>
      <point x="442" y="-78" type="curve" smooth="yes"/>
      <point x="406" y="-78"/>
      <point x="369" y="-78"/>
      <point x="333" y="-78" type="curve"/>
      <point x="478" y="-153" type="line"/>
      <point x="519" y="37" type="line"/>
    </contour>
  </outline>
</glyph>
<glyph name="guillemetright" format="2">
  <advance width="1319"/>
  <unicode hex="00BB"/>
  <outline>
    <contour>
      <point x="0" y="59" type="line"/>
      <point x="379" y="59" type="line"/>
      <point x="722" y="466" type="line"/>
      <point x="722" y="510" type="line"/>
      <point x="379" y="893" type="line"/>
      <point x="0" y="893" type="line"/>
      <point x="359" y="475" type="line"/>
    </contour>
    <contour>
      <point x="561" y="59" type="line"/>
      <point x="940" y="59" type="line"/>
      <point x="1283" y="466" type="line"/>
      <point x="1283" y="510" type="line"/>
      <point x="940" y="893" type="line"/>
      <point x="561" y="893" type="line"/>
      <point x="920" y="475" type="line"/>
    </contour>
  </outline>
</glyph>
<glyph name="onequarter" format="2">
  <advance width="1860"/>
  <unicode hex="00BC"/>
  <outline>
    <contour>
      <point x="477" y="603" type="line"/>
      <point x="477" y="1278" type="line"/>
      <point x="245" y="1278" type="line"/>
      <point x="29" y="1203" type="line"/>
      <point x="21" y="977" type="line"/>
      <point x="207" y="1039" type="line"/>
      <point x="217" y="1039" type="line"/>
      <point x="217" y="603" type="line"/>
    </contour>
    <contour>
      <point x="363" y="0" type="line"/>
      <point x="1609" y="1278" type="line"/>
      <point x="1275" y="1278" type="line"/>
      <point x="23" y="0" type="line"/>
    </contour>
    <contour>
      <point x="1735" y="0" type="line"/>
      <point x="1735" y="674" type="line"/>
      <point x="1343" y="674" type="line"/>
      <point x="981" y="316" type="line"/>
      <point x="981" y="95" type="line"/>
      <point x="1838" y="95" type="line"/>
      <point x="1838" y="294" type="line"/>
      <point x="1148" y="294" type="line"/>
      <point x="1262" y="210" type="line"/>
      <point x="1262" y="301" type="line"/>
      <point x="1473" y="507" type="line"/>
      <point x="1485" y="507" type="line"/>
      <point x="1483" y="370" type="line"/>
      <point x="1483" y="0" type="line"/>
    </contour>
  </outline>
</glyph>
<glyph name="onehalf" format="2">
  <advance width="1883"/>
  <unicode hex="00BD"/>
  <outline>
    <contour>
      <point x="477" y="603" type="line"/>
      <point x="477" y="1278" type="line"/>
      <point x="245" y="1278" type="line"/>
      <point x="29" y="1203" type="line"/>
      <point x="21" y="977" type="line"/>
      <point x="207" y="1039" type="line"/>
      <point x="217" y="1039" type="line"/>
      <point x="217" y="603" type="line"/>
    </contour>
    <contour>
      <point x="363" y="0" type="line"/>
      <point x="1609" y="1278" type="line"/>
      <point x="1275" y="1278" type="line"/>
      <point x="23" y="0" type="line"/>
    </contour>
    <contour>
      <point x="1847" y="0" type="line"/>
      <point x="1847" y="210" type="line"/>
      <point x="1422" y="210" type="line"/>
      <point x="1558" y="166" type="line"/>
      <point x="1558" y="217" type="line"/>
      <point x="1627" y="238" type="line" smooth="yes"/>
      <point x="1770" y="281"/>
      <point x="1835" y="354"/>
      <point x="1835" y="464" type="curve" smooth="yes"/>
      <point x="1835" y="472" type="line" smooth="yes"/>
      <point x="1835" y="618"/>
      <point x="1709" y="700"/>
      <point x="1472" y="700" type="curve" smooth="yes"/>
      <point x="1353" y="700"/>
      <point x="1223" y="670"/>
      <point x="1148" y="637" type="curve"/>
      <point x="1122" y="428" type="line"/>
      <point x="1210" y="459"/>
      <point x="1331" y="490"/>
      <point x="1431" y="490" type="curve" smooth="yes"/>
      <point x="1528" y="490"/>
      <point x="1560" y="473"/>
      <point x="1560" y="435" type="curve"/>
      <point x="1560" y="433" type="line"/>
      <point x="1560" y="386"/>
      <point x="1506" y="359"/>
      <point x="1361" y="303" type="curve" smooth="yes"/>
      <point x="1122" y="210" type="line"/>
      <point x="1122" y="0" type="line"/>
    </contour>
  </outline>
</glyph>
<glyph name="threequarters" format="2">
  <advance width="2142"/>
  <unicode hex="00BE"/>
  <outline>
    <contour>
      <point x="392" y="575" type="curve" smooth="yes"/>
      <point x="662" y="575"/>
      <point x="790" y="653"/>
      <point x="790" y="783" type="curve" smooth="yes"/>
      <point x="790" y="791" type="line" smooth="yes"/>
      <point x="790" y="885"/>
      <point x="740" y="941"/>
      <point x="594" y="953" type="curve"/>
      <point x="615" y="932" type="line"/>
      <point x="615" y="959" type="line"/>
      <point x="739" y="967"/>
      <point x="785" y="1024"/>
      <point x="785" y="1106" type="curve" smooth="yes"/>
      <point x="785" y="1112" type="line" smooth="yes"/>
      <point x="785" y="1242"/>
      <point x="655" y="1302"/>
      <point x="397" y="1302" type="curve" smooth="yes"/>
      <point x="262" y="1302"/>
      <point x="145" y="1283"/>
      <point x="59" y="1257" type="curve"/>
      <point x="38" y="1064" type="line"/>
      <point x="110" y="1080"/>
      <point x="229" y="1103"/>
      <point x="358" y="1103" type="curve" smooth="yes"/>
      <point x="461" y="1103"/>
      <point x="497" y="1094"/>
      <point x="497" y="1065" type="curve"/>
      <point x="497" y="1064" type="line"/>
      <point x="497" y="1039"/>
      <point x="477" y="1027"/>
      <point x="416" y="1026" type="curve" smooth="yes"/>
      <point x="156" y="1020" type="line"/>
      <point x="156" y="861" type="line"/>
      <point x="417" y="855" type="line" smooth="yes"/>
      <point x="479" y="854"/>
      <point x="499" y="845"/>
      <point x="499" y="820" type="curve"/>
      <point x="499" y="818" type="line"/>
      <point x="499" y="790"/>
      <point x="470" y="775"/>
      <point x="338" y="775" type="curve" smooth="yes"/>
      <point x="229" y="775"/>
      <point x="115" y="794"/>
      <point x="33" y="816" type="curve"/>
      <point x="54" y="613" type="line"/>
      <point x="129" y="595"/>
      <point x="247" y="575"/>
    </contour>
    <contour>
      <point x="645" y="0" type="line"/>
      <point x="1891" y="1278" type="line"/>
      <point x="1557" y="1278" type="line"/>
      <point x="305" y="0" type="line"/>
    </contour>
    <contour>
      <point x="2017" y="0" type="line"/>
      <point x="2017" y="674" type="line"/>
      <point x="1625" y="674" type="line"/>
      <point x="1263" y="316" type="line"/>
      <point x="1263" y="95" type="line"/>
      <point x="2120" y="95" type="line"/>
      <point x="2120" y="294" type="line"/>
      <point x="1430" y="294" type="line"/>
      <point x="1544" y="210" type="line"/>
      <point x="1544" y="301" type="line"/>
      <point x="1755" y="507" type="line"/>
      <point x="1767" y="507" type="line"/>
      <point x="1765" y="370" type="line"/>
      <point x="1765" y="0" type="line"/>
    </contour>
  </outline>
</glyph>
<glyph name="Agrave" format="2">
  <advance width="1686"/>
  <unicode hex="00C0"/>
  <anchor x="843" y="0" name="bottom"/>
  <anchor x="1700" y="10" name="ogonek"/>
  <anchor x="714" y="1669" name="top"/>
  <outline>
    <contour>
      <point x="432" y="0" type="line"/>
      <point x="832" y="1029" type="line"/>
      <point x="861" y="1029" type="line"/>
      <point x="1254" y="0" type="line"/>
      <point x="1674" y="0" type="line"/>
      <point x="1140" y="1278" type="line"/>
      <point x="553" y="1278" type="line"/>
      <point x="12" y="0" type="line"/>
    </contour>
    <contour>
      <point x="1234" y="274" type="line"/>
      <point x="1234" y="580" type="line"/>
      <point x="451" y="580" type="line"/>
      <point x="451" y="274" type="line"/>
    </contour>
    <contour>
      <point x="327" y="1690" type="line"/>
      <point x="327" y="1683" type="line"/>
      <point x="675" y="1398" type="line"/>
      <point x="1047" y="1398" type="line"/>
      <point x="1047" y="1404" type="line"/>
      <point x="774" y="1690" type="line"/>
    </contour>
  </outline>
</glyph>
<glyph name="Acircumflex" format="2">
  <advance width="1686"/>
  <unicode hex="00C2"/>
  <anchor x="843" y="0" name="bottom"/>
  <anchor x="1700" y="10" name="ogonek"/>
  <anchor x="843" y="1669" name="top"/>
  <outline>
    <contour>
      <point x="432" y="0" type="line"/>
      <point x="832" y="1029" type="line"/>
      <point x="861" y="1029" type="line"/>
      <point x="1254" y="0" type="line"/>
      <point x="1674" y="0" type="line"/>
      <point x="1140" y="1278" type="line"/>
      <point x="553" y="1278" type="line"/>
      <point x="12" y="0" type="line"/>
    </contour>
    <contour>
      <point x="1234" y="274" type="line"/>
      <point x="1234" y="580" type="line"/>
      <point x="451" y="580" type="line"/>
      <point x="451" y="274" type="line"/>
    </contour>
    <contour>
      <point x="401" y="1407" type="line"/>
      <point x="401" y="1398" type="line"/>
      <point x="717" y="1398" type="line"/>
      <point x="839" y="1513" type="line"/>
      <point x="849" y="1513" type="line"/>
      <point x="971" y="1398" type="line"/>
      <point x="1287" y="1398" type="line"/>
      <point x="1287" y="1407" type="line"/>
      <point x="1042" y="1690" type="line"/>
      <point x="646" y="1690" type="line"/>
    </contour>
  </outline>
</glyph>
<glyph name="Atilde" format="2">
  <advance width="1686"/>
  <unicode hex="00C3"/>
  <anchor x="843" y="0" name="bottom"/>
  <anchor x="1700" y="10" name="ogonek"/>
  <anchor x="843" y="1669" name="top"/>
  <outline>
    <contour>
      <point x="432" y="0" type="line"/>
      <point x="832" y="1029" type="line"/>
      <point x="861" y="1029" type="line"/>
      <point x="1254" y="0" type="line"/>
      <point x="1674" y="0" type="line"/>
      <point x="1140" y="1278" type="line"/>
      <point x="553" y="1278" type="line"/>
      <point x="12" y="0" type="line"/>
    </contour>
    <contour>
      <point x="1234" y="274" type="line"/>
      <point x="1234" y="580" type="line"/>
      <point x="451" y="580" type="line"/>
      <point x="451" y="274" type="line"/>
    </contour>
    <contour>
      <point x="1000" y="1400" type="curve" smooth="yes"/>
      <point x="1194" y="1400"/>
      <point x="1257" y="1512"/>
      <point x="1257" y="1671" type="curve" smooth="yes"/>
      <point x="1257" y="1700" type="line"/>
      <point x="1033" y="1700" type="line"/>
      <point x="1033" y="1700" type="line"/>
      <point x="1032" y="1657"/>
      <point x="1018" y="1635"/>
      <point x="972" y="1635" type="curve" smooth="yes"/>
      <point x="900" y="1635"/>
      <point x="804" y="1686"/>
      <point x="684" y="1686" type="curve" smooth="yes"/>
      <point x="492" y="1686"/>
      <point x="429" y="1573"/>
      <point x="429" y="1419" type="curve" smooth="yes"/>
      <point x="429" y="1386" type="line"/>
      <point x="651" y="1386" type="line"/>
      <point x="651" y="1386" type="line"/>
      <point x="652" y="1430"/>
      <point x="666" y="1451"/>
      <point x="712" y="1451" type="curve" smooth="yes"/>
      <point x="785" y="1451"/>
      <point x="883" y="1400"/>
    </contour>
  </outline>
</glyph>
<glyph name="Adieresis" format="2">
  <advance width="1686"/>
  <unicode hex="00C4"/>
  <anchor x="843" y="0" name="bottom"/>
  <anchor x="1700" y="10" name="ogonek"/>
  <anchor x="843" y="1647" name="top"/>
  <outline>
    <contour>
      <point x="432" y="0" type="line"/>
      <point x="832" y="1029" type="line"/>
      <point x="861" y="1029" type="line"/>
      <point x="1254" y="0" type="line"/>
      <point x="1674" y="0" type="line"/>
      <point x="1140" y="1278" type="line"/>
      <point x="553" y="1278" type="line"/>
      <point x="12" y="0" type="line"/>
    </contour>
    <contour>
      <point x="1234" y="274" type="line"/>
      <point x="1234" y="580" type="line"/>
      <point x="451" y="580" type="line"/>
      <point x="451" y="274" type="line"/>
    </contour>
    <contour>
      <point x="630" y="1381" type="curve" smooth="yes"/>
      <point x="755" y="1381"/>
      <point x="813" y="1445"/>
      <point x="813" y="1543" type="curve" smooth="yes"/>
      <point x="813" y="1549" type="line" smooth="yes"/>
      <point x="813" y="1648"/>
      <point x="755" y="1714"/>
      <point x="630" y="1714" type="curve" smooth="yes"/>
      <point x="507" y="1714"/>
      <point x="449" y="1648"/>
      <point x="449" y="1549" type="curve" smooth="yes"/>
      <point x="449" y="1543" type="line" smooth="yes"/>
      <point x="449" y="1445"/>
      <point x="507" y="1381"/>
    </contour>
    <contour>
      <point x="1056" y="1381" type="curve" smooth="yes"/>
      <point x="1178" y="1381"/>
      <point x="1237" y="1445"/>
      <point x="1237" y="1543" type="curve" smooth="yes"/>
      <point x="1237" y="1549" type="line" smooth="yes"/>
      <point x="1237" y="1648"/>
      <point x="1178" y="1714"/>
      <point x="1056" y="1714" type="curve" smooth="yes"/>
      <point x="933" y="1714"/>
      <point x="874" y="1648"/>
      <point x="874" y="1549" type="curve" smooth="yes"/>
      <point x="874" y="1543" type="line" smooth="yes"/>
      <point x="874" y="1445"/>
      <point x="931" y="1381"/>
    </contour>
  </outline>
</glyph>
<glyph name="Aring" format="2">
  <advance width="1686"/>
  <unicode hex="00C5"/>
  <anchor x="843" y="0" name="bottom"/>
  <anchor x="1700" y="10" name="ogonek"/>
  <anchor x="843" y="1710" name="top"/>
  <outline>
    <contour>
      <point x="432" y="0" type="line"/>
      <point x="832" y="1029" type="line"/>
      <point x="861" y="1029" type="line"/>
      <point x="1254" y="0" type="line"/>
      <point x="1674" y="0" type="line"/>
      <point x="1140" y="1278" type="line"/>
      <point x="553" y="1278" type="line"/>
      <point x="12" y="0" type="line"/>
    </contour>
    <contour>
      <point x="1234" y="274" type="line"/>
      <point x="1234" y="580" type="line"/>
      <point x="451" y="580" type="line"/>
      <point x="451" y="274" type="line"/>
    </contour>
    <contour>
      <point x="579" y="1540" type="line" smooth="yes"/>
      <point x="579" y="1425"/>
      <point x="658" y="1346"/>
      <point x="843" y="1346" type="curve" smooth="yes"/>
      <point x="1029" y="1346"/>
      <point x="1107" y="1425"/>
      <point x="1107" y="1540" type="curve" smooth="yes"/>
      <point x="1107" y="1547" type="line" smooth="yes"/>
      <point x="1107" y="1663"/>
      <point x="1029" y="1741"/>
      <point x="843" y="1741" type="curve" smooth="yes"/>
      <point x="658" y="1741"/>
      <point x="579" y="1663"/>
      <point x="579" y="1547" type="curve" smooth="yes"/>
    </contour>
    <contour>
      <point x="760" y="1546" type="line" smooth="yes"/>
      <point x="760" y="1584"/>
      <point x="787" y="1605"/>
      <point x="843" y="1605" type="curve" smooth="yes"/>
      <point x="899" y="1605"/>
      <point x="926" y="1584"/>
      <point x="926" y="1546" type="curve" smooth="yes"/>
      <point x="926" y="1542" type="line" smooth="yes"/>
      <point x="926" y="1504"/>
      <point x="899" y="1482"/>
      <point x="843" y="1482" type="curve" smooth="yes"/>
      <point x="787" y="1482"/>
      <point x="760" y="1504"/>
      <point x="760" y="1542" type="curve" smooth="yes"/>
    </contour>
  </outline>
</glyph>
<glyph name="Egrave" format="2">
  <advance width="1484"/>
  <unicode hex="00C8"/>
  <anchor x="766" y="0" name="bottom"/>
  <anchor x="1370" y="10" name="ogonek"/>
  <anchor x="637" y="1669" name="top"/>
  <anchor x="20" y="1278" name="topleft"/>
  <outline>
    <contour>
      <point x="531" y="0" type="line"/>
      <point x="531" y="1278" type="line"/>
      <point x="134" y="1278" type="line"/>
      <point x="134" y="0" type="line"/>
    </contour>
    <contour>
      <point x="1384" y="0" type="line"/>
      <point x="1384" y="310" type="line"/>
      <point x="134" y="310" type="line"/>
      <point x="134" y="0" type="line"/>
    </contour>
    <contour>
      <point x="1345" y="499" type="line"/>
      <point x="1345" y="792" type="line"/>
      <point x="340" y="792" type="line"/>
      <point x="340" y="499" type="line"/>
    </contour>
    <contour>
      <point x="1366" y="968" type="line"/>
      <point x="1366" y="1278" type="line"/>
      <point x="134" y="1278" type="line"/>
      <point x="134" y="968" type="line"/>
    </contour>
    <contour>
      <point x="250" y="1690" type="line"/>
      <point x="250" y="1683" type="line"/>
      <point x="598" y="1398" type="line"/>
      <point x="970" y="1398" type="line"/>
      <point x="970" y="1404" type="line"/>
      <point x="697" y="1690" type="line"/>
    </contour>
  </outline>
</glyph>
<glyph name="Eacute" format="2">
  <advance width="1484"/>
  <unicode hex="00C9"/>
  <anchor x="766" y="0" name="bottom"/>
  <anchor x="1370" y="10" name="ogonek"/>
  <anchor x="766" y="1669" name="top"/>
  <anchor x="20" y="1278" name="topleft"/>
  <outline>
    <contour>
      <point x="531" y="0" type="line"/>
      <point x="531" y="1278" type="line"/>
      <point x="134" y="1278" type="line"/>
      <point x="134" y="0" type="line"/>
    </contour>
    <contour>
      <point x="1384" y="0" type="line"/>
      <point x="1384" y="310" type="line"/>
      <point x="134" y="310" type="line"/>
      <point x="134" y="0" type="line"/>
    </contour>
    <contour>
      <point x="1345" y="499" type="line"/>
      <point x="1345" y="792" type="line"/>
      <point x="340" y="792" type="line"/>
      <point x="340" y="499" type="line"/>
    </contour>
    <contour>
      <point x="1366" y="968" type="line"/>
      <point x="1366" y="1278" type="line"/>
      <point x="134" y="1278" type="line"/>
      <point x="134" y="968" type="line"/>
    </contour>
    <contour>
      <point x="562" y="1404" type="line"/>
      <point x="562" y="1398" type="line"/>
      <point x="934" y="1398" type="line"/>
      <point x="1282" y="1683" type="line"/>
      <point x="1282" y="1690" type="line"/>
      <point x="835" y="1690" type="line"/>
    </contour>
  </outline>
</glyph>
<glyph name="Ecircumflex" format="2">
  <advance width="1484"/>
  <unicode hex="00CA"/>
  <anchor x="766" y="0" name="bottom"/>
  <anchor x="1370" y="10" name="ogonek"/>
  <anchor x="766" y="1669" name="top"/>
  <anchor x="20" y="1278" name="topleft"/>
  <outline>
    <contour>
      <point x="531" y="0" type="line"/>
      <point x="531" y="1278" type="line"/>
      <point x="134" y="1278" type="line"/>
      <point x="134" y="0" type="line"/>
    </contour>
    <contour>
      <point x="1384" y="0" type="line"/>
      <point x="1384" y="310" type="line"/>
      <point x="134" y="310" type="line"/>
      <point x="134" y="0" type="line"/>
    </contour>
    <contour>
      <point x="1345" y="499" type="line"/>
      <point x="1345" y="792" type="line"/>
      <point x="340" y="792" type="line"/>
      <point x="340" y="499" type="line"/>
    </contour>
    <contour>
      <point x="1366" y="968" type="line"/>
      <point x="1366" y="1278" type="line"/>
      <point x="134" y="1278" type="line"/>
      <point x="134" y="968" type="line"/>
    </contour>
    <contour>
      <point x="324" y="1407" type="line"/>
      <point x="324" y="1398" type="line"/>
      <point x="640" y="1398" type="line"/>
      <point x="762" y="1513" type="line"/>
      <point x="772" y="1513" type="line"/>
      <point x="894" y="1398" type="line"/>
      <point x="1210" y="1398" type="line"/>
      <point x="1210" y="1407" type="line"/>
      <point x="965" y="1690" type="line"/>
      <point x="569" y="1690" type="line"/>
    </contour>
  </outline>
</glyph>
<glyph name="Edieresis" format="2">
  <advance width="1484"/>
  <unicode hex="00CB"/>
  <anchor x="766" y="0" name="bottom"/>
  <anchor x="1370" y="10" name="ogonek"/>
  <anchor x="766" y="1647" name="top"/>
  <anchor x="20" y="1278" name="topleft"/>
  <outline>
    <contour>
      <point x="531" y="0" type="line"/>
      <point x="531" y="1278" type="line"/>
      <point x="134" y="1278" type="line"/>
      <point x="134" y="0" type="line"/>
    </contour>
    <contour>
      <point x="1384" y="0" type="line"/>
      <point x="1384" y="310" type="line"/>
      <point x="134" y="310" type="line"/>
      <point x="134" y="0" type="line"/>
    </contour>
    <contour>
      <point x="1345" y="499" type="line"/>
      <point x="1345" y="792" type="line"/>
      <point x="340" y="792" type="line"/>
      <point x="340" y="499" type="line"/>
    </contour>
    <contour>
      <point x="1366" y="968" type="line"/>
      <point x="1366" y="1278" type="line"/>
      <point x="134" y="1278" type="line"/>
      <point x="134" y="968" type="line"/>
    </contour>
    <contour>
      <point x="553" y="1381" type="curve" smooth="yes"/>
      <point x="678" y="1381"/>
      <point x="736" y="1445"/>
      <point x="736" y="1543" type="curve" smooth="yes"/>
      <point x="736" y="1549" type="line" smooth="yes"/>
      <point x="736" y="1648"/>
      <point x="678" y="1714"/>
      <point x="553" y="1714" type="curve" smooth="yes"/>
      <point x="430" y="1714"/>
      <point x="372" y="1648"/>
      <point x="372" y="1549" type="curve" smooth="yes"/>
      <point x="372" y="1543" type="line" smooth="yes"/>
      <point x="372" y="1445"/>
      <point x="430" y="1381"/>
    </contour>
    <contour>
      <point x="979" y="1381" type="curve" smooth="yes"/>
      <point x="1101" y="1381"/>
      <point x="1160" y="1445"/>
      <point x="1160" y="1543" type="curve" smooth="yes"/>
      <point x="1160" y="1549" type="line" smooth="yes"/>
      <point x="1160" y="1648"/>
      <point x="1101" y="1714"/>
      <point x="979" y="1714" type="curve" smooth="yes"/>
      <point x="856" y="1714"/>
      <point x="797" y="1648"/>
      <point x="797" y="1549" type="curve" smooth="yes"/>
      <point x="797" y="1543" type="line" smooth="yes"/>
      <point x="797" y="1445"/>
      <point x="854" y="1381"/>
    </contour>
  </outline>
</glyph>
<glyph name="Igrave" format="2">
  <advance width="674"/>
  <unicode hex="00CC"/>
  <anchor x="337" y="0" name="bottom"/>
  <anchor x="576" y="10" name="ogonek"/>
  <anchor x="208" y="1669" name="top"/>
  <anchor x="20" y="1278" name="topleft"/>
  <outline>
    <contour>
      <point x="540" y="1278" type="line"/>
      <point x="134" y="1278" type="line"/>
      <point x="134" y="0" type="line"/>
      <point x="540" y="0" type="line"/>
    </contour>
    <contour>
      <point x="-179" y="1690" type="line"/>
      <point x="-179" y="1683" type="line"/>
      <point x="169" y="1398" type="line"/>
      <point x="541" y="1398" type="line"/>
      <point x="541" y="1404" type="line"/>
      <point x="268" y="1690" type="line"/>
    </contour>
  </outline>
</glyph>
<glyph name="Iacute" format="2">
  <advance width="674"/>
  <unicode hex="00CD"/>
  <anchor x="337" y="0" name="bottom"/>
  <anchor x="576" y="10" name="ogonek"/>
  <anchor x="337" y="1669" name="top"/>
  <anchor x="20" y="1278" name="topleft"/>
  <outline>
    <contour>
      <point x="540" y="1278" type="line"/>
      <point x="134" y="1278" type="line"/>
      <point x="134" y="0" type="line"/>
      <point x="540" y="0" type="line"/>
    </contour>
    <contour>
      <point x="133" y="1404" type="line"/>
      <point x="133" y="1398" type="line"/>
      <point x="505" y="1398" type="line"/>
      <point x="853" y="1683" type="line"/>
      <point x="853" y="1690" type="line"/>
      <point x="406" y="1690" type="line"/>
    </contour>
  </outline>
</glyph>
<glyph name="Icircumflex" format="2">
  <advance width="674"/>
  <unicode hex="00CE"/>
  <anchor x="337" y="0" name="bottom"/>
  <anchor x="576" y="10" name="ogonek"/>
  <anchor x="337" y="1669" name="top"/>
  <anchor x="20" y="1278" name="topleft"/>
  <outline>
    <contour>
      <point x="540" y="1278" type="line"/>
      <point x="134" y="1278" type="line"/>
      <point x="134" y="0" type="line"/>
      <point x="540" y="0" type="line"/>
    </contour>
    <contour>
      <point x="-105" y="1407" type="line"/>
      <point x="-105" y="1398" type="line"/>
      <point x="211" y="1398" type="line"/>
      <point x="333" y="1513" type="line"/>
      <point x="343" y="1513" type="line"/>
      <point x="465" y="1398" type="line"/>
      <point x="781" y="1398" type="line"/>
      <point x="781" y="1407" type="line"/>
      <point x="536" y="1690" type="line"/>
      <point x="140" y="1690" type="line"/>
    </contour>
  </outline>
</glyph>
<glyph name="Idieresis" format="2">
  <advance width="674"/>
  <unicode hex="00CF"/>
  <anchor x="337" y="0" name="bottom"/>
  <anchor x="576" y="10" name="ogonek"/>
  <anchor x="337" y="1647" name="top"/>
  <anchor x="20" y="1278" name="topleft"/>
  <outline>
    <contour>
      <point x="540" y="1278" type="line"/>
      <point x="134" y="1278" type="line"/>
      <point x="134" y="0" type="line"/>
      <point x="540" y="0" type="line"/>
    </contour>
    <contour>
      <point x="124" y="1381" type="curve" smooth="yes"/>
      <point x="249" y="1381"/>
      <point x="307" y="1445"/>
      <point x="307" y="1543" type="curve" smooth="yes"/>
      <point x="307" y="1549" type="line" smooth="yes"/>
      <point x="307" y="1648"/>
      <point x="249" y="1714"/>
      <point x="124" y="1714" type="curve" smooth="yes"/>
      <point x="1" y="1714"/>
      <point x="-57" y="1648"/>
      <point x="-57" y="1549" type="curve" smooth="yes"/>
      <point x="-57" y="1543" type="line" smooth="yes"/>
      <point x="-57" y="1445"/>
      <point x="1" y="1381"/>
    </contour>
    <contour>
      <point x="550" y="1381" type="curve" smooth="yes"/>
      <point x="672" y="1381"/>
      <point x="731" y="1445"/>
      <point x="731" y="1543" type="curve" smooth="yes"/>
      <point x="731" y="1549" type="line" smooth="yes"/>
      <point x="731" y="1648"/>
      <point x="672" y="1714"/>
      <point x="550" y="1714" type="curve" smooth="yes"/>
      <point x="427" y="1714"/>
      <point x="368" y="1648"/>
      <point x="368" y="1549" type="curve" smooth="yes"/>
      <point x="368" y="1543" type="line" smooth="yes"/>
      <point x="368" y="1445"/>
      <point x="425" y="1381"/>
    </contour>
  </outline>
</glyph>
<glyph name="Odieresis" format="2">
  <advance width="1734"/>
  <unicode hex="00D6"/>
  <anchor x="867" y="0" name="bottom"/>
  <anchor x="867" y="639" name="center"/>
  <anchor x="1341" y="10" name="ogonek"/>
  <anchor x="867" y="1647" name="top"/>
  <anchor x="20" y="1278" name="topleft"/>
  <anchor x="1589" y="1278" name="topright"/>
  <outline>
    <contour>
      <point x="867" y="-45" type="curve" smooth="yes"/>
      <point x="1382" y="-45"/>
      <point x="1652" y="203"/>
      <point x="1652" y="632" type="curve" smooth="yes"/>
      <point x="1652" y="646" type="line" smooth="yes"/>
      <point x="1652" y="1075"/>
      <point x="1382" y="1323"/>
      <point x="867" y="1323" type="curve" smooth="yes"/>
      <point x="352" y="1323"/>
      <point x="82" y="1075"/>
      <point x="82" y="646" type="curve" smooth="yes"/>
      <point x="82" y="632" type="line" smooth="yes"/>
      <point x="82" y="203"/>
      <point x="352" y="-45"/>
    </contour>
    <contour>
      <point x="867" y="283" type="curve" smooth="yes"/>
      <point x="628" y="283"/>
      <point x="504" y="414"/>
      <point x="504" y="631" type="curve" smooth="yes"/>
      <point x="504" y="647" type="line" smooth="yes"/>
      <point x="504" y="864"/>
      <point x="628" y="995"/>
      <point x="867" y="995" type="curve" smooth="yes"/>
      <point x="1104" y="995"/>
      <point x="1230" y="864"/>
      <point x="1230" y="647" type="curve" smooth="yes"/>
      <point x="1230" y="631" type="line" smooth="yes"/>
      <point x="1230" y="414"/>
      <point x="1104" y="283"/>
    </contour>
    <contour>
      <point x="654" y="1381" type="curve" smooth="yes"/>
      <point x="779" y="1381"/>
      <point x="837" y="1445"/>
      <point x="837" y="1543" type="curve" smooth="yes"/>
      <point x="837" y="1549" type="line" smooth="yes"/>
      <point x="837" y="1648"/>
      <point x="779" y="1714"/>
      <point x="654" y="1714" type="curve" smooth="yes"/>
      <point x="531" y="1714"/>
      <point x="473" y="1648"/>
      <point x="473" y="1549" type="curve" smooth="yes"/>
      <point x="473" y="1543" type="line" smooth="yes"/>
      <point x="473" y="1445"/>
      <point x="531" y="1381"/>
    </contour>
    <contour>
      <point x="1080" y="1381" type="curve" smooth="yes"/>
      <point x="1202" y="1381"/>
      <point x="1261" y="1445"/>
      <point x="1261" y="1543" type="curve" smooth="yes"/>
      <point x="1261" y="1549" type="line" smooth="yes"/>
      <point x="1261" y="1648"/>
      <point x="1202" y="1714"/>
      <point x="1080" y="1714" type="curve" smooth="yes"/>
      <point x="957" y="1714"/>
      <point x="898" y="1648"/>
      <point x="898" y="1549" type="curve" smooth="yes"/>
      <point x="898" y="1543" type="line" smooth="yes"/>
      <point x="898" y="1445"/>
      <point x="955" y="1381"/>
    </contour>
  </outline>
</glyph>
<glyph name="multiply" format="2">
  <advance width="1287"/>
  <unicode hex="00D7"/>
  <outline>
    <contour>
      <point x="317" y="1103" type="line"/>
      <point x="97" y="892" type="line"/>
      <point x="977" y="71" type="line"/>
      <point x="1197" y="282" type="line"/>
    </contour>
    <contour>
      <point x="310" y="71" type="line"/>
      <point x="1190" y="892" type="line"/>
      <point x="970" y="1103" type="line"/>
      <point x="90" y="282" type="line"/>
    </contour>
  </outline>
</glyph>
<glyph name="atilde" format="2">
  <advance width="1343"/>
  <unicode hex="00E3"/>
  <anchor x="672" y="0" name="bottom"/>
  <anchor x="1285" y="10" name="ogonek"/>
  <anchor x="672" y="1374" name="top"/>
  <outline>
    <contour>
      <point x="1244" y="0" type="line"/>
      <point x="1244" y="529" type="line" smooth="yes"/>
      <point x="1244" y="774"/>
      <point x="1141" y="1000"/>
      <point x="664" y="1000" type="curve" smooth="yes"/>
      <point x="462" y="1000"/>
      <point x="290" y="961"/>
      <point x="158" y="910" type="curve"/>
      <point x="119" y="630" type="line"/>
      <point x="269" y="678"/>
      <point x="423" y="719"/>
      <point x="596" y="719" type="curve" smooth="yes"/>
      <point x="781" y="719"/>
      <point x="858" y="673"/>
      <point x="858" y="582" type="curve"/>
      <point x="862" y="527" type="line"/>
      <point x="862" y="310" type="line"/>
      <point x="864" y="265" type="line"/>
      <point x="850" y="0" type="line"/>
    </contour>
    <contour>
      <point x="444" y="-32" type="curve" smooth="yes"/>
      <point x="708" y="-32"/>
      <point x="815" y="85"/>
      <point x="851" y="237" type="curve"/>
      <point x="935" y="237" type="line"/>
      <point x="866" y="367" type="line"/>
      <point x="821" y="299"/>
      <point x="727" y="239"/>
      <point x="570" y="239" type="curve" smooth="yes"/>
      <point x="475" y="239"/>
      <point x="442" y="267"/>
      <point x="442" y="309" type="curve" smooth="yes"/>
      <point x="442" y="312" type="line" smooth="yes"/>
      <point x="442" y="357"/>
      <point x="478" y="379"/>
      <point x="562" y="387" type="curve" smooth="yes"/>
      <point x="892" y="418" type="line"/>
      <point x="884" y="614" type="line"/>
      <point x="535" y="588" type="line" smooth="yes"/>
      <point x="229" y="565"/>
      <point x="58" y="491"/>
      <point x="58" y="266" type="curve" smooth="yes"/>
      <point x="58" y="255" type="line" smooth="yes"/>
      <point x="58" y="78"/>
      <point x="191" y="-32"/>
    </contour>
    <contour>
      <point x="829" y="1075" type="curve" smooth="yes"/>
      <point x="1023" y="1075"/>
      <point x="1086" y="1188"/>
      <point x="1086" y="1349" type="curve" smooth="yes"/>
      <point x="1086" y="1385" type="line"/>
      <point x="862" y="1385" type="line"/>
      <point x="862" y="1385" type="line"/>
      <point x="861" y="1340"/>
      <point x="847" y="1317"/>
      <point x="801" y="1317" type="curve" smooth="yes"/>
      <point x="729" y="1317"/>
      <point x="637" y="1371"/>
      <point x="513" y="1371" type="curve" smooth="yes"/>
      <point x="319" y="1371"/>
      <point x="258" y="1256"/>
      <point x="258" y="1098" type="curve" smooth="yes"/>
      <point x="258" y="1061" type="line"/>
      <point x="480" y="1061" type="line"/>
      <point x="480" y="1061" type="line"/>
      <point x="481" y="1107"/>
      <point x="495" y="1129"/>
      <point x="541" y="1129" type="curve" smooth="yes"/>
      <point x="614" y="1129"/>
      <point x="712" y="1075"/>
    </contour>
  </outline>
</glyph>
<glyph name="ccedilla" format="2">
  <advance width="1212"/>
  <unicode hex="00E7"/>
  <anchor x="686" y="-449" name="bottom"/>
  <anchor x="646" y="963" name="top"/>
  <outline>
    <contour>
      <point x="701" y="-39" type="curve" smooth="yes"/>
      <point x="861" y="-39"/>
      <point x="1010" y="-5"/>
      <point x="1111" y="46" type="curve"/>
      <point x="1146" y="354" type="line"/>
      <point x="1028" y="308"/>
      <point x="918" y="279"/>
      <point x="777" y="279" type="curve" smooth="yes"/>
      <point x="567" y="279"/>
      <point x="470" y="354"/>
      <point x="470" y="484" type="curve" smooth="yes"/>
      <point x="470" y="498" type="line" smooth="yes"/>
      <point x="470" y="623"/>
      <point x="556" y="694"/>
      <point x="765" y="694" type="curve" smooth="yes"/>
      <point x="912" y="694"/>
      <point x="1034" y="659"/>
      <point x="1136" y="614" type="curve"/>
      <point x="1098" y="924" type="line"/>
      <point x="1001" y="972"/>
      <point x="855" y="1007"/>
      <point x="697" y="1007" type="curve" smooth="yes"/>
      <point x="272" y="1007"/>
      <point x="68" y="816"/>
      <point x="68" y="497" type="curve" smooth="yes"/>
      <point x="68" y="484" type="line" smooth="yes"/>
      <point x="68" y="152"/>
      <point x="272" y="-39"/>
    </contour>
    <contour>
      <point x="525" y="37" type="line"/>
      <point x="485" y="-180" type="line"/>
      <point x="486" y="-180"/>
      <point x="488" y="-180"/>
      <point x="490" y="-180" type="curve"/>
      <point x="657" y="-182"/>
      <point x="693" y="-192"/>
      <point x="693" y="-221" type="curve"/>
      <point x="693" y="-223" type="line"/>
      <point x="693" y="-249"/>
      <point x="655" y="-253"/>
      <point x="570" y="-253" type="curve" smooth="yes"/>
      <point x="520" y="-253"/>
      <point x="460" y="-248"/>
      <point x="406" y="-237" type="curve"/>
      <point x="445" y="-424" type="line"/>
      <point x="501" y="-438"/>
      <point x="577" y="-449"/>
      <point x="648" y="-449" type="curve" smooth="yes"/>
      <point x="865" y="-449"/>
      <point x="967" y="-386"/>
      <point x="967" y="-248" type="curve" smooth="yes"/>
      <point x="967" y="-244" type="line" smooth="yes"/>
      <point x="967" y="-143"/>
      <point x="901" y="-78"/>
      <point x="707" y="-78" type="curve" smooth="yes"/>
      <point x="671" y="-78"/>
      <point x="634" y="-78"/>
      <point x="598" y="-78" type="curve"/>
      <point x="743" y="-153" type="line"/>
      <point x="784" y="37" type="line"/>
    </contour>
  </outline>
</glyph>
<glyph name="edieresis" format="2">
  <advance width="1355"/>
  <unicode hex="00EB"/>
  <anchor x="693" y="0" name="bottom"/>
  <anchor x="1205" y="10" name="ogonek"/>
  <anchor x="693" y="1354" name="top"/>
  <outline>
    <contour>
      <point x="736" y="-39" type="curve" smooth="yes"/>
      <point x="942" y="-39"/>
      <point x="1110" y="-7"/>
      <point x="1231" y="48" type="curve"/>
      <point x="1268" y="317" type="line"/>
      <point x="1117" y="271"/>
      <point x="962" y="247"/>
      <point x="805" y="247" type="curve" smooth="yes"/>
      <point x="469" y="247"/>
      <point x="440" y="358"/>
      <point x="440" y="425" type="curve" smooth="yes"/>
      <point x="440" y="481" type="line"/>
      <point x="437" y="507" type="line"/>
      <point x="437" y="550" type="line" smooth="yes"/>
      <point x="437" y="666"/>
      <point x="517" y="739"/>
      <point x="679" y="739" type="curve" smooth="yes"/>
      <point x="846" y="739"/>
      <point x="924" y="670"/>
      <point x="924" y="552" type="curve" smooth="yes"/>
      <point x="924" y="510"/>
      <point x="919" y="438"/>
      <point x="910" y="383" type="curve"/>
      <point x="1273" y="383" type="line"/>
      <point x="1280" y="418"/>
      <point x="1286" y="474"/>
      <point x="1286" y="522" type="curve" smooth="yes"/>
      <point x="1286" y="536" type="line" smooth="yes"/>
      <point x="1286" y="822"/>
      <point x="1081" y="1007"/>
      <point x="679" y="1007" type="curve" smooth="yes"/>
      <point x="289" y="1007"/>
      <point x="68" y="819"/>
      <point x="68" y="491" type="curve" smooth="yes"/>
      <point x="68" y="472" type="line" smooth="yes"/>
      <point x="68" y="144"/>
      <point x="284" y="-39"/>
    </contour>
    <contour>
      <point x="1197" y="383" type="line"/>
      <point x="1197" y="594" type="line"/>
      <point x="248" y="594" type="line"/>
      <point x="248" y="383" type="line"/>
    </contour>
    <contour>
      <point x="480" y="1056" type="curve" smooth="yes"/>
      <point x="605" y="1056"/>
      <point x="663" y="1120"/>
      <point x="663" y="1218" type="curve" smooth="yes"/>
      <point x="663" y="1224" type="line" smooth="yes"/>
      <point x="663" y="1323"/>
      <point x="605" y="1389"/>
      <point x="480" y="1389" type="curve" smooth="yes"/>
      <point x="357" y="1389"/>
      <point x="299" y="1323"/>
      <point x="299" y="1224" type="curve" smooth="yes"/>
      <point x="299" y="1218" type="line" smooth="yes"/>
      <point x="299" y="1120"/>
      <point x="357" y="1056"/>
    </contour>
    <contour>
      <point x="906" y="1056" type="curve" smooth="yes"/>
      <point x="1028" y="1056"/>
      <point x="1087" y="1120"/>
      <point x="1087" y="1218" type="curve" smooth="yes"/>
      <point x="1087" y="1224" type="line" smooth="yes"/>
      <point x="1087" y="1323"/>
      <point x="1028" y="1389"/>
      <point x="906" y="1389" type="curve" smooth="yes"/>
      <point x="783" y="1389"/>
      <point x="724" y="1323"/>
      <point x="724" y="1224" type="curve" smooth="yes"/>
      <point x="724" y="1218" type="line" smooth="yes"/>
      <point x="724" y="1120"/>
      <point x="781" y="1056"/>
    </contour>
  </outline>
</glyph>
<glyph name="idieresis" format="2">
  <advance width="632"/>
  <unicode hex="00EF"/>
  <anchor x="316" y="0" name="bottom"/>
  <anchor x="555" y="10" name="ogonek"/>
  <anchor x="316" y="1351" name="top"/>
  <outline>
    <contour>
      <point x="514" y="0" type="line"/>
      <point x="514" y="963" type="line"/>
      <point x="118" y="963" type="line"/>
      <point x="118" y="0" type="line"/>
    </contour>
    <contour>
      <point x="125" y="1051" type="curve" smooth="yes"/>
      <point x="240" y="1051"/>
      <point x="296" y="1115"/>
      <point x="296" y="1213" type="curve" smooth="yes"/>
      <point x="296" y="1219" type="line" smooth="yes"/>
      <point x="296" y="1318"/>
      <point x="240" y="1384"/>
      <point x="125" y="1384" type="curve" smooth="yes"/>
      <point x="12" y="1384"/>
      <point x="-44" y="1318"/>
      <point x="-44" y="1219" type="curve" smooth="yes"/>
      <point x="-44" y="1213" type="line" smooth="yes"/>
      <point x="-44" y="1115"/>
      <point x="12" y="1051"/>
    </contour>
    <contour>
      <point x="507" y="1051" type="curve" smooth="yes"/>
      <point x="619" y="1051"/>
      <point x="676" y="1115"/>
      <point x="676" y="1213" type="curve" smooth="yes"/>
      <point x="676" y="1219" type="line" smooth="yes"/>
      <point x="676" y="1318"/>
      <point x="619" y="1384"/>
      <point x="507" y="1384" type="curve" smooth="yes"/>
      <point x="394" y="1384"/>
      <point x="337" y="1318"/>
      <point x="337" y="1219" type="curve" smooth="yes"/>
      <point x="337" y="1213" type="line" smooth="yes"/>
      <point x="337" y="1115"/>
      <point x="392" y="1051"/>
    </contour>
  </outline>
</glyph>
<glyph name="ntilde" format="2">
  <advance width="1439"/>
  <unicode hex="00F1"/>
  <anchor x="720" y="0" name="bottom"/>
  <anchor x="720" y="1374" name="top"/>
  <outline>
    <contour>
      <point x="1331" y="0" type="line"/>
      <point x="1331" y="575" type="line" smooth="yes"/>
      <point x="1331" y="847"/>
      <point x="1190" y="997"/>
      <point x="919" y="997" type="curve" smooth="yes"/>
      <point x="668" y="997"/>
      <point x="547" y="872"/>
      <point x="514" y="712" type="curve"/>
      <point x="464" y="712" type="line"/>
      <point x="505" y="541" type="line"/>
      <point x="547" y="611"/>
      <point x="611" y="671"/>
      <point x="738" y="671" type="curve" smooth="yes"/>
      <point x="902" y="671"/>
      <point x="934" y="570"/>
      <point x="934" y="468" type="curve" smooth="yes"/>
      <point x="934" y="0" type="line"/>
    </contour>
    <contour>
      <point x="515" y="0" type="line"/>
      <point x="515" y="609" type="line"/>
      <point x="499" y="644" type="line"/>
      <point x="515" y="963" type="line"/>
      <point x="118" y="963" type="line"/>
      <point x="118" y="0" type="line"/>
    </contour>
    <contour>
      <point x="877" y="1075" type="curve" smooth="yes"/>
      <point x="1071" y="1075"/>
      <point x="1134" y="1188"/>
      <point x="1134" y="1349" type="curve" smooth="yes"/>
      <point x="1134" y="1385" type="line"/>
      <point x="910" y="1385" type="line"/>
      <point x="910" y="1385" type="line"/>
      <point x="909" y="1340"/>
      <point x="895" y="1317"/>
      <point x="849" y="1317" type="curve" smooth="yes"/>
      <point x="777" y="1317"/>
      <point x="685" y="1371"/>
      <point x="561" y="1371" type="curve" smooth="yes"/>
      <point x="367" y="1371"/>
      <point x="306" y="1256"/>
      <point x="306" y="1098" type="curve" smooth="yes"/>
      <point x="306" y="1061" type="line"/>
      <point x="528" y="1061" type="line"/>
      <point x="528" y="1061" type="line"/>
      <point x="529" y="1107"/>
      <point x="543" y="1129"/>
      <point x="589" y="1129" type="curve" smooth="yes"/>
      <point x="662" y="1129"/>
      <point x="760" y="1075"/>
    </contour>
  </outline>
</glyph>
<glyph name="oacute" format="2">
  <advance width="1425"/>
  <unicode hex="00F3"/>
  <anchor x="713" y="0" name="bottom"/>
  <anchor x="713" y="482" name="center"/>
  <anchor x="1081" y="10" name="ogonek"/>
  <anchor x="713" y="1374" name="top"/>
  <anchor x="1372" y="963" name="topright"/>
  <outline>
    <contour>
      <point x="711" y="-39" type="curve" smooth="yes"/>
      <point x="1129" y="-39"/>
      <point x="1357" y="144"/>
      <point x="1357" y="472" type="curve" smooth="yes"/>
      <point x="1357" y="495" type="line" smooth="yes"/>
      <point x="1357" y="822"/>
      <point x="1129" y="1007"/>
      <point x="711" y="1007" type="curve" smooth="yes"/>
      <point x="296" y="1007"/>
      <point x="68" y="822"/>
      <point x="68" y="495" type="curve" smooth="yes"/>
      <point x="68" y="472" type="line" smooth="yes"/>
      <point x="68" y="144"/>
      <point x="296" y="-39"/>
    </contour>
    <contour>
      <point x="711" y="265" type="curve" smooth="yes"/>
      <point x="559" y="265"/>
      <point x="467" y="338"/>
      <point x="467" y="472" type="curve" smooth="yes"/>
      <point x="467" y="495" type="line" smooth="yes"/>
      <point x="467" y="628"/>
      <point x="559" y="703"/>
      <point x="711" y="703" type="curve" smooth="yes"/>
      <point x="866" y="703"/>
      <point x="958" y="628"/>
      <point x="958" y="495" type="curve" smooth="yes"/>
      <point x="958" y="472" type="line" smooth="yes"/>
      <point x="958" y="338"/>
      <point x="866" y="265"/>
    </contour>
    <contour>
      <point x="527" y="1079" type="line"/>
      <point x="527" y="1073" type="line"/>
      <point x="871" y="1073" type="line"/>
      <point x="1177" y="1378" type="line"/>
      <point x="1177" y="1385" type="line"/>
      <point x="751" y="1385" type="line"/>
    </contour>
  </outline>
</glyph>
<glyph name="ocircumflex" format="2">
  <advance width="1425"/>
  <unicode hex="00F4"/>
  <anchor x="713" y="0" name="bottom"/>
  <anchor x="713" y="482" name="center"/>
  <anchor x="1081" y="10" name="ogonek"/>
  <anchor x="713" y="1370" name="top"/>
  <anchor x="1372" y="963" name="topright"/>
  <outline>
    <contour>
      <point x="711" y="-39" type="curve" smooth="yes"/>
      <point x="1129" y="-39"/>
      <point x="1357" y="144"/>
      <point x="1357" y="472" type="curve" smooth="yes"/>
      <point x="1357" y="495" type="line" smooth="yes"/>
      <point x="1357" y="822"/>
      <point x="1129" y="1007"/>
      <point x="711" y="1007" type="curve" smooth="yes"/>
      <point x="296" y="1007"/>
      <point x="68" y="822"/>
      <point x="68" y="495" type="curve" smooth="yes"/>
      <point x="68" y="472" type="line" smooth="yes"/>
      <point x="68" y="144"/>
      <point x="296" y="-39"/>
    </contour>
    <contour>
      <point x="711" y="265" type="curve" smooth="yes"/>
      <point x="559" y="265"/>
      <point x="467" y="338"/>
      <point x="467" y="472" type="curve" smooth="yes"/>
      <point x="467" y="495" type="line" smooth="yes"/>
      <point x="467" y="628"/>
      <point x="559" y="703"/>
      <point x="711" y="703" type="curve" smooth="yes"/>
      <point x="866" y="703"/>
      <point x="958" y="628"/>
      <point x="958" y="495" type="curve" smooth="yes"/>
      <point x="958" y="472" type="line" smooth="yes"/>
      <point x="958" y="338"/>
      <point x="866" y="265"/>
    </contour>
    <contour>
      <point x="282" y="1082" type="line"/>
      <point x="282" y="1073" type="line"/>
      <point x="581" y="1073" type="line"/>
      <point x="708" y="1203" type="line"/>
      <point x="718" y="1203" type="line"/>
      <point x="843" y="1073" type="line"/>
      <point x="1144" y="1073" type="line"/>
      <point x="1144" y="1082" type="line"/>
      <point x="912" y="1385" type="line"/>
      <point x="514" y="1385" type="line"/>
    </contour>
  </outline>
</glyph>
<glyph name="ucircumflex" format="2">
  <advance width="1439"/>
  <unicode hex="00FB"/>
  <anchor x="720" y="0" name="bottom"/>
  <anchor x="1362" y="10" name="ogonek"/>
  <anchor x="720" y="1370" name="top"/>
  <anchor x="1419" y="963" name="topright"/>
  <outline>
    <contour>
      <point x="108" y="963" type="line"/>
      <point x="108" y="388" type="line" smooth="yes"/>
      <point x="108" y="116"/>
      <point x="249" y="-34"/>
      <point x="520" y="-34" type="curve" smooth="yes"/>
      <point x="771" y="-34"/>
      <point x="892" y="91"/>
      <point x="925" y="251" type="curve"/>
      <point x="975" y="251" type="line"/>
      <point x="934" y="422" type="line"/>
      <point x="892" y="352"/>
      <point x="828" y="292"/>
      <point x="701" y="292" type="curve" smooth="yes"/>
      <point x="537" y="292"/>
      <point x="505" y="393"/>
      <point x="505" y="495" type="curve" smooth="yes"/>
      <point x="505" y="963" type="line"/>
    </contour>
    <contour>
      <point x="924" y="963" type="line"/>
      <point x="924" y="354" type="line"/>
      <point x="940" y="319" type="line"/>
      <point x="924" y="0" type="line"/>
      <point x="1321" y="0" type="line"/>
      <point x="1321" y="963" type="line"/>
    </contour>
    <contour>
      <point x="289" y="1082" type="line"/>
      <point x="289" y="1073" type="line"/>
      <point x="588" y="1073" type="line"/>
      <point x="715" y="1203" type="line"/>
      <point x="725" y="1203" type="line"/>
      <point x="850" y="1073" type="line"/>
      <point x="1151" y="1073" type="line"/>
      <point x="1151" y="1082" type="line"/>
      <point x="919" y="1385" type="line"/>
      <point x="521" y="1385" type="line"/>
    </contour>
  </outline>
</glyph>
<glyph name="udieresis" format="2">
  <advance width="1439"/>
  <unicode hex="00FC"/>
  <anchor x="720" y="0" name="bottom"/>
  <anchor x="1362" y="10" name="ogonek"/>
  <anchor x="720" y="1354" name="top"/>
  <anchor x="1419" y="963" name="topright"/>
  <outline>
    <contour>
      <point x="108" y="963" type="line"/>
      <point x="108" y="388" type="line" smooth="yes"/>
      <point x="108" y="116"/>
      <point x="249" y="-34"/>
      <point x="520" y="-34" type="curve" smooth="yes"/>
      <point x="771" y="-34"/>
      <point x="892" y="91"/>
      <point x="925" y="251" type="curve"/>
      <point x="975" y="251" type="line"/>
      <point x="934" y="422" type="line"/>
      <point x="892" y="352"/>
      <point x="828" y="292"/>
      <point x="701" y="292" type="curve" smooth="yes"/>
      <point x="537" y="292"/>
      <point x="505" y="393"/>
      <point x="505" y="495" type="curve" smooth="yes"/>
      <point x="505" y="963" type="line"/>
    </contour>
    <contour>
      <point x="924" y="963" type="line"/>
      <point x="924" y="354" type="line"/>
      <point x="940" y="319" type="line"/>
      <point x="924" y="0" type="line"/>
      <point x="1321" y="0" type="line"/>
      <point x="1321" y="963" type="line"/>
    </contour>
    <contour>
      <point x="507" y="1056" type="curve" smooth="yes"/>
      <point x="632" y="1056"/>
      <point x="690" y="1120"/>
      <point x="690" y="1218" type="curve" smooth="yes"/>
      <point x="690" y="1224" type="line" smooth="yes"/>
      <point x="690" y="1323"/>
      <point x="632" y="1389"/>
      <point x="507" y="1389" type="curve" smooth="yes"/>
      <point x="384" y="1389"/>
      <point x="326" y="1323"/>
      <point x="326" y="1224" type="curve" smooth="yes"/>
      <point x="326" y="1218" type="line" smooth="yes"/>
      <point x="326" y="1120"/>
      <point x="384" y="1056"/>
    </contour>
    <contour>
      <point x="933" y="1056" type="curve" smooth="yes"/>
      <point x="1055" y="1056"/>
      <point x="1114" y="1120"/>
      <point x="1114" y="1218" type="curve" smooth="yes"/>
      <point x="1114" y="1224" type="line" smooth="yes"/>
      <point x="1114" y="1323"/>
      <point x="1055" y="1389"/>
      <point x="933" y="1389" type="curve" smooth="yes"/>
      <point x="810" y="1389"/>
      <point x="751" y="1323"/>
      <point x="751" y="1224" type="curve" smooth="yes"/>
      <point x="751" y="1218" type="line" smooth="yes"/>
      <point x="751" y="1120"/>
      <point x="808" y="1056"/>
    </contour>
  </outline>
</glyph>
<glyph name="ydieresis" format="2">
  <advance width="1339"/>
  <unicode hex="00FF"/>
  <anchor x="1107" y="-7" name="bottom"/>
  <anchor x="670" y="1354" name="top"/>
  <outline>
    <contour>
      <point x="648" y="303" type="line"/>
      <point x="422" y="963" type="line"/>
      <point x="4" y="963" type="line"/>
      <point x="369" y="50" type="line"/>
      <point x="778" y="50" type="line"/>
      <point x="604" y="228" type="line"/>
      <point x="372" y="-338" type="line"/>
      <point x="780" y="-338" type="line"/>
      <point x="1335" y="963" type="line"/>
      <point x="921" y="963" type="line"/>
      <point x="614" y="162" type="line"/>
      <point x="846" y="303" type="line"/>
    </contour>
    <contour>
      <point x="457" y="1056" type="curve" smooth="yes"/>
      <point x="582" y="1056"/>
      <point x="640" y="1120"/>
      <point x="640" y="1218" type="curve" smooth="yes"/>
      <point x="640" y="1224" type="line" smooth="yes"/>
      <point x="640" y="1323"/>
      <point x="582" y="1389"/>
      <point x="457" y="1389" type="curve" smooth="yes"/>
      <point x="334" y="1389"/>
      <point x="276" y="1323"/>
      <point x="276" y="1224" type="curve" smooth="yes"/>
      <point x="276" y="1218" type="line" smooth="yes"/>
      <point x="276" y="1120"/>
      <point x="334" y="1056"/>
    </contour>
    <contour>
      <point x="883" y="1056" type="curve" smooth="yes"/>
      <point x="1005" y="1056"/>
      <point x="1064" y="1120"/>
      <point x="1064" y="1218" type="curve" smooth="yes"/>
      <point x="1064" y="1224" type="line" smooth="yes"/>
      <point x="1064" y="1323"/>
      <point x="1005" y="1389"/>
      <point x="883" y="1389" type="curve" smooth="yes"/>
      <point x="760" y="1389"/>
      <point x="701" y="1323"/>
      <point x="701" y="1224" type="curve" smooth="yes"/>
      <point x="701" y="1218" type="line" smooth="yes"/>
      <point x="701" y="1120"/>
      <point x="758" y="1056"/>
    </contour>
  </outline>
</glyph>
<glyph name="tilde" format="2">
  <advance width="1028"/>
  <unicode hex="02DC"/>
  <anchor x="514" y="963" name="_top"/>
  <anchor x="514" y="1374" name="top"/>
  <outline>
    <contour>
      <point x="671" y="1075" type="curve" smooth="yes"/>
      <point x="865" y="1075"/>
      <point x="928" y="1188"/>
      <point x="928" y="1349" type="curve" smooth="yes"/>
      <point x="928" y="1385" type="line"/>
      <point x="704" y="1385" type="line"/>
      <point x="704" y="1385" type="line"/>
      <point x="703" y="1340"/>
      <point x="689" y="1317"/>
      <point x="643" y="1317" type="curve" smooth="yes"/>
      <point x="571" y="1317"/>
      <point x="479" y="1371"/>
      <point x="355" y="1371" type="curve" smooth="yes"/>
      <point x="161" y="1371"/>
      <point x="100" y="1256"/>
      <point x="100" y="1098" type="curve" smooth="yes"/>
      <point x="100" y="1061" type="line"/>
      <point x="322" y="1061" type="line"/>
      <point x="322" y="1061" type="line"/>
      <point x="323" y="1107"/>
      <point x="337" y="1129"/>
      <point x="383" y="1129" type="curve" smooth="yes"/>
      <point x="456" y="1129"/>
      <point x="554" y="1075"/>
    </contour>
  </outline>
</glyph>
<glyph name="uni0900" format="2">
  <unicode hex="0900"/>
  <anchor x="-342" y="1214" name="_top"/>
  <outline>
    <contour>
      <point x="-355" y="1655" type="curve" smooth="yes"/>
      <point x="-245" y="1655"/>
      <point x="-200" y="1593"/>
      <point x="-200" y="1508" type="curve" smooth="yes"/>
      <point x="-200" y="1501" type="line" smooth="yes"/>
      <point x="-200" y="1415"/>
      <point x="-245" y="1353"/>
      <point x="-355" y="1353" type="curve" smooth="yes"/>
      <point x="-465" y="1353"/>
      <point x="-510" y="1415"/>
      <point x="-510" y="1501" type="curve" smooth="yes"/>
      <point x="-510" y="1508" type="line" smooth="yes"/>
      <point x="-510" y="1593"/>
      <point x="-465" y="1655"/>
    </contour>
    <contour>
      <point x="-859" y="1534" type="line"/>
      <point x="-862" y="1565"/>
      <point x="-862" y="1579"/>
      <point x="-862" y="1591" type="curve" smooth="yes"/>
      <point x="-862" y="1826"/>
      <point x="-700" y="1954"/>
      <point x="-353" y="1954" type="curve" smooth="yes"/>
      <point x="-13" y="1954"/>
      <point x="158" y="1826"/>
      <point x="158" y="1591" type="curve" smooth="yes"/>
      <point x="158" y="1582"/>
      <point x="158" y="1566"/>
      <point x="154" y="1534" type="curve"/>
      <point x="-122" y="1534" type="line"/>
      <point x="-122" y="1557.25" type="line" smooth="yes"/>
      <point x="-122" y="1662.37"/>
      <point x="-199.169" y="1721"/>
      <point x="-352.492" y="1721" type="curve" smooth="yes"/>
      <point x="-513.938" y="1721"/>
      <point x="-584" y="1658.33"/>
      <point x="-584" y="1557.25" type="curve" smooth="yes"/>
      <point x="-584" y="1534" type="line"/>
    </contour>
  </outline>
  <guideline angle="90" x="-342" y="0"/>
  <guideline angle="0" x="0" y="1214"/>
</glyph>
<glyph name="Chandrabindu.dv" format="2">
  <unicode hex="0901"/>
  <anchor x="-342" y="1214" name="_top"/>
  <outline>
    <contour>
      <point x="-340" y="1670" type="curve" smooth="yes"/>
      <point x="-450" y="1670"/>
      <point x="-495" y="1732"/>
      <point x="-495" y="1817" type="curve" smooth="yes"/>
      <point x="-495" y="1824" type="line" smooth="yes"/>
      <point x="-495" y="1910"/>
      <point x="-450" y="1972"/>
      <point x="-340" y="1972" type="curve" smooth="yes"/>
      <point x="-230" y="1972"/>
      <point x="-185" y="1910"/>
      <point x="-185" y="1824" type="curve" smooth="yes"/>
      <point x="-185" y="1817" type="line" smooth="yes"/>
      <point x="-185" y="1732"/>
      <point x="-230" y="1670"/>
    </contour>
    <contour>
      <point x="164" y="1791" type="line"/>
      <point x="167" y="1760"/>
      <point x="167" y="1746"/>
      <point x="167" y="1734" type="curve" smooth="yes"/>
      <point x="167" y="1499"/>
      <point x="5" y="1371"/>
      <point x="-342" y="1371" type="curve" smooth="yes"/>
      <point x="-682" y="1371"/>
      <point x="-853" y="1499"/>
      <point x="-853" y="1734" type="curve" smooth="yes"/>
      <point x="-853" y="1743"/>
      <point x="-853" y="1759"/>
      <point x="-849" y="1791" type="curve"/>
      <point x="-573" y="1791" type="line"/>
      <point x="-573" y="1767.75" type="line" smooth="yes"/>
      <point x="-573" y="1662.63"/>
      <point x="-495.831" y="1604"/>
      <point x="-342.508" y="1604" type="curve" smooth="yes"/>
      <point x="-181.062" y="1604"/>
      <point x="-111" y="1666.67"/>
      <point x="-111" y="1767.75" type="curve" smooth="yes"/>
      <point x="-111" y="1791" type="line"/>
    </contour>
  </outline>
</glyph>
<glyph name="Bindu.dv" format="2">
  <unicode hex="0902"/>
  <anchor x="-342" y="1214" name="_top"/>
  <outline>
    <contour>
      <point x="-337" y="1388" type="curve" smooth="yes"/>
      <point x="-501" y="1388"/>
      <point x="-573" y="1465"/>
      <point x="-573" y="1579" type="curve" smooth="yes"/>
      <point x="-573" y="1586" type="line" smooth="yes"/>
      <point x="-573" y="1697"/>
      <point x="-496" y="1776"/>
      <point x="-337" y="1776" type="curve" smooth="yes"/>
      <point x="-178" y="1776"/>
      <point x="-101" y="1702"/>
      <point x="-101" y="1586" type="curve" smooth="yes"/>
      <point x="-101" y="1579" type="line" smooth="yes"/>
      <point x="-101" y="1465"/>
      <point x="-171" y="1388"/>
    </contour>
  </outline>
</glyph>
<glyph name="vowelUu.dv" format="2">
  <advance width="2113"/>
  <unicode hex="090A"/>
  <anchor x="1249" y="37" name="bottom3"/>
  <anchor x="685" y="55" name="bottom5"/>
  <anchor x="759" y="1214" name="top"/>
  <outline>
    <contour>
      <point x="1308" y="999" type="line"/>
      <point x="1287" y="1266" type="line"/>
      <point x="2148" y="1266" type="line"/>
      <point x="2169" y="999" type="line"/>
    </contour>
    <contour>
      <point x="1458" y="-9" type="line"/>
      <point x="1568" y="85"/>
      <point x="1638" y="183"/>
      <point x="1638" y="281" type="curve" smooth="yes"/>
      <point x="1638" y="288" type="line" smooth="yes"/>
      <point x="1638" y="379"/>
      <point x="1591" y="429"/>
      <point x="1495" y="429" type="curve" smooth="yes"/>
      <point x="1394" y="429"/>
      <point x="1324" y="363"/>
      <point x="1294" y="260" type="curve"/>
      <point x="1105" y="491" type="line"/>
      <point x="1185" y="630"/>
      <point x="1332" y="726"/>
      <point x="1565" y="726" type="curve" smooth="yes"/>
      <point x="1884" y="726"/>
      <point x="2033" y="547"/>
      <point x="2033" y="324" type="curve" smooth="yes"/>
      <point x="2033" y="317" type="line" smooth="yes"/>
      <point x="2033" y="187"/>
      <point x="1982" y="76"/>
      <point x="1889" y="-9" type="curve"/>
    </contour>
    <contour>
      <point x="-36" y="999" type="line"/>
      <point x="-57" y="1266" type="line"/>
      <point x="1442" y="1266" type="line"/>
      <point x="1463" y="999" type="line"/>
    </contour>
    <contour>
      <point x="1184" y="1050" type="line"/>
      <point x="1241" y="1004"/>
      <point x="1262" y="952"/>
      <point x="1262" y="892" type="curve" smooth="yes"/>
      <point x="1262" y="886" type="line" smooth="yes"/>
      <point x="1262" y="764"/>
      <point x="1189" y="666"/>
      <point x="949" y="639" type="curve"/>
      <point x="949" y="630" type="line"/>
      <point x="1203" y="598"/>
      <point x="1305" y="479"/>
      <point x="1305" y="324" type="curve" smooth="yes"/>
      <point x="1305" y="319" type="line" smooth="yes"/>
      <point x="1305" y="100"/>
      <point x="1114" y="-36"/>
      <point x="676" y="-36" type="curve" smooth="yes"/>
      <point x="434" y="-36"/>
      <point x="246" y="2"/>
      <point x="116" y="62" type="curve"/>
      <point x="89" y="372" type="line"/>
      <point x="242" y="304"/>
      <point x="420" y="260"/>
      <point x="623" y="260" type="curve" smooth="yes"/>
      <point x="845" y="260"/>
      <point x="908" y="301"/>
      <point x="908" y="365" type="curve" smooth="yes"/>
      <point x="908" y="368" type="line" smooth="yes"/>
      <point x="908" y="431"/>
      <point x="858" y="468"/>
      <point x="578" y="479" type="curve" smooth="yes"/>
      <point x="287" y="489" type="line"/>
      <point x="287" y="767" type="line"/>
      <point x="561" y="774" type="line" smooth="yes"/>
      <point x="797" y="780"/>
      <point x="867" y="819"/>
      <point x="867" y="910" type="curve" smooth="yes"/>
      <point x="867" y="913" type="line" smooth="yes"/>
      <point x="867" y="963"/>
      <point x="844" y="1009"/>
      <point x="781" y="1050" type="curve"/>
    </contour>
  </outline>
  <guideline angle="90" x="-184" y="0"/>
</glyph>
<glyph name="vowelLru.dv" format="2">
  <advance width="1893"/>
  <unicode hex="090C"/>
  <anchor x="1566" y="-245" name="bottom3"/>
  <anchor x="1369" y="1214" name="top"/>
  <outline>
    <contour>
      <point x="1807" y="465" type="line"/>
      <point x="1807" y="326.603"/>
      <point x="1760.68" y="248.026"/>
      <point x="1647.38" y="156" type="curve" smooth="yes"/>
      <point x="1527.87" y="58.9279"/>
      <point x="1495" y="32.6705"/>
      <point x="1495" y="-12" type="curve" smooth="yes"/>
      <point x="1495" y="-56.1404"/>
      <point x="1533" y="-80"/>
      <point x="1608" y="-80" type="curve" smooth="yes"/>
      <point x="1693" y="-80"/>
      <point x="1771" y="-55"/>
      <point x="1828" y="-25" type="curve"/>
      <point x="1805" y="-310" type="line"/>
      <point x="1743" y="-340"/>
      <point x="1656" y="-358"/>
      <point x="1542" y="-358" type="curve" smooth="yes"/>
      <point x="1296" y="-358"/>
      <point x="1118" y="-244"/>
      <point x="1118" y="-52" type="curve" smooth="yes"/>
      <point x="1118" y="59.6961"/>
      <point x="1154.19" y="133.771"/>
      <point x="1274.66" y="238" type="curve" smooth="yes"/>
      <point x="1376.82" y="326.388"/>
      <point x="1413" y="363.561"/>
      <point x="1413" y="436" type="curve" smooth="yes"/>
      <point x="1413" y="445" type="line"/>
      <point x="1807" y="466" type="line"/>
    </contour>
    <contour>
      <point x="1096" y="999" type="line"/>
      <point x="1075" y="1266" type="line"/>
      <point x="1747" y="1266" type="line"/>
      <point x="1768" y="999" type="line"/>
    </contour>
    <contour>
      <point x="1561" y="1082" type="line"/>
      <point x="1561" y="894" type="line"/>
      <point x="1190" y="894" type="line"/>
      <point x="1190" y="1082" type="line"/>
    </contour>
    <contour>
      <point x="-36" y="999" type="line"/>
      <point x="-57" y="1266" type="line"/>
      <point x="1928" y="1266" type="line"/>
      <point x="1950" y="999" type="line"/>
    </contour>
    <contour>
      <point x="1561" y="1050" type="line"/>
      <point x="1561" y="801" type="line"/>
      <point x="1189" y="801" type="line"/>
      <point x="1189" y="1050" type="line"/>
    </contour>
    <contour>
      <point x="91" y="408" type="curve" smooth="yes"/>
      <point x="91" y="417" type="line" smooth="yes"/>
      <point x="91" y="687"/>
      <point x="269" y="858"/>
      <point x="579" y="858" type="curve" smooth="yes"/>
      <point x="806" y="858"/>
      <point x="910" y="776"/>
      <point x="954" y="659" type="curve"/>
      <point x="963" y="659" type="line"/>
      <point x="1006" y="776"/>
      <point x="1118" y="858"/>
      <point x="1340" y="858" type="curve" smooth="yes"/>
      <point x="1652" y="858"/>
      <point x="1807" y="684"/>
      <point x="1807" y="470" type="curve" smooth="yes"/>
      <point x="1807" y="459" type="line"/>
      <point x="1413" y="433" type="line"/>
      <point x="1413" y="441" type="line" smooth="yes"/>
      <point x="1413" y="506"/>
      <point x="1374" y="559"/>
      <point x="1289" y="559" type="curve" smooth="yes"/>
      <point x="1203" y="559"/>
      <point x="1161" y="518"/>
      <point x="1153" y="409" type="curve" smooth="yes"/>
      <point x="1143" y="247" type="line"/>
      <point x="778" y="247" type="line"/>
      <point x="767" y="409" type="line" smooth="yes"/>
      <point x="760" y="518"/>
      <point x="728" y="559"/>
      <point x="635" y="559" type="curve" smooth="yes"/>
      <point x="543" y="559"/>
      <point x="488" y="498"/>
      <point x="488" y="402" type="curve" smooth="yes"/>
      <point x="488" y="395" type="line" smooth="yes"/>
      <point x="488" y="256"/>
      <point x="575" y="141"/>
      <point x="742" y="7" type="curve"/>
      <point x="742" y="0" type="line"/>
      <point x="301" y="0" type="line"/>
      <point x="162" y="109"/>
      <point x="91" y="262"/>
    </contour>
  </outline>
</glyph>
<glyph name="vowelChandraE.dv" format="2">
  <advance width="1465"/>
  <unicode hex="090D"/>
  <outline>
    <contour>
      <point x="1235" y="1794" type="line"/>
      <point x="1238" y="1770"/>
      <point x="1238" y="1751"/>
      <point x="1238" y="1741" type="curve" smooth="yes"/>
      <point x="1238" y="1497"/>
      <point x="1075" y="1371"/>
      <point x="745" y="1371" type="curve" smooth="yes"/>
      <point x="416" y="1371"/>
      <point x="251" y="1497"/>
      <point x="251" y="1741" type="curve" smooth="yes"/>
      <point x="251" y="1751"/>
      <point x="251" y="1769"/>
      <point x="254" y="1794" type="curve"/>
      <point x="567" y="1794" type="line"/>
      <point x="567" y="1787.99"/>
      <point x="567" y="1771.5"/>
      <point x="567" y="1768" type="curve" smooth="yes"/>
      <point x="567" y="1666"/>
      <point x="623" y="1616"/>
      <point x="745" y="1616" type="curve" smooth="yes"/>
      <point x="868" y="1616"/>
      <point x="923" y="1668"/>
      <point x="923" y="1768" type="curve" smooth="yes"/>
      <point x="923" y="1771.83"/>
      <point x="923" y="1789.33"/>
      <point x="923" y="1794" type="curve"/>
    </contour>
    <contour>
      <point x="-36" y="999" type="line"/>
      <point x="-57" y="1266" type="line"/>
      <point x="1501" y="1266" type="line"/>
      <point x="1522" y="999" type="line"/>
    </contour>
    <contour>
      <point x="515" y="659" type="line" smooth="yes"/>
      <point x="515" y="368"/>
      <point x="655" y="260"/>
      <point x="960" y="260" type="curve" smooth="yes"/>
      <point x="1069" y="260"/>
      <point x="1193" y="276"/>
      <point x="1292" y="301" type="curve"/>
      <point x="1257" y="0" type="line"/>
      <point x="1160" y="-24"/>
      <point x="1045" y="-36"/>
      <point x="934" y="-36" type="curve" smooth="yes"/>
      <point x="403" y="-36"/>
      <point x="131" y="179"/>
      <point x="131" y="659" type="curve" smooth="yes"/>
      <point x="131" y="1088" type="line"/>
      <point x="515" y="1088" type="line"/>
    </contour>
    <contour>
      <point x="1343" y="861" type="line" smooth="yes"/>
      <point x="1343" y="555.407"/>
      <point x="1201.47" y="415"/>
      <point x="881.858" y="415" type="curve" smooth="yes"/>
      <point x="840.872" y="415"/>
      <point x="788.846" y="418.71"/>
      <point x="750" y="426.705" type="curve"/>
      <point x="750" y="704" type="line"/>
      <point x="760.14" y="704"/>
      <point x="765.86" y="704"/>
      <point x="776" y="704" type="curve" smooth="yes"/>
      <point x="904.572" y="704"/>
      <point x="959" y="749"/>
      <point x="959" y="866" type="curve" smooth="yes"/>
      <point x="959" y="1077" type="line"/>
      <point x="1343" y="1077" type="line"/>
    </contour>
  </outline>
</glyph>
<glyph name="vowelAi.dv" format="2">
  <advance width="1465"/>
  <unicode hex="0910"/>
  <anchor x="1337" y="37" name="bottom3"/>
  <anchor x="1063" y="1214" name="top"/>
  <outline>
    <contour>
      <point x="-36" y="999" type="line"/>
      <point x="-57" y="1266" type="line"/>
      <point x="1501" y="1266" type="line"/>
      <point x="1522" y="999" type="line"/>
    </contour>
    <contour>
      <point x="515" y="659" type="line" smooth="yes"/>
      <point x="515" y="368"/>
      <point x="655" y="260"/>
      <point x="960" y="260" type="curve" smooth="yes"/>
      <point x="1069" y="260"/>
      <point x="1193" y="276"/>
      <point x="1292" y="301" type="curve"/>
      <point x="1257" y="0" type="line"/>
      <point x="1160" y="-24"/>
      <point x="1045" y="-36"/>
      <point x="934" y="-36" type="curve" smooth="yes"/>
      <point x="403" y="-36"/>
      <point x="131" y="179"/>
      <point x="131" y="659" type="curve" smooth="yes"/>
      <point x="131" y="1088" type="line"/>
      <point x="515" y="1088" type="line"/>
    </contour>
    <contour>
      <point x="1343" y="861" type="line" smooth="yes"/>
      <point x="1343" y="555.407"/>
      <point x="1201.47" y="415"/>
      <point x="881.858" y="415" type="curve" smooth="yes"/>
      <point x="840.872" y="415"/>
      <point x="788.846" y="418.71"/>
      <point x="750" y="426.705" type="curve"/>
      <point x="750" y="704" type="line"/>
      <point x="760.14" y="704"/>
      <point x="765.86" y="704"/>
      <point x="776" y="704" type="curve" smooth="yes"/>
      <point x="904.572" y="704"/>
      <point x="959" y="749"/>
      <point x="959" y="866" type="curve" smooth="yes"/>
      <point x="959" y="1077" type="line"/>
      <point x="1343" y="1077" type="line"/>
    </contour>
    <contour>
      <point x="144" y="1798" type="line"/>
      <point x="650" y="1798" type="line"/>
      <point x="778.307" y="1690.21"/>
      <point x="1172.52" y="1359.05"/>
      <point x="1294" y="1257" type="curve"/>
      <point x="1294" y="1214" type="line"/>
      <point x="928" y="1214" type="line"/>
      <point x="928" y="1278" type="line"/>
      <point x="670" y="1344"/>
      <point x="570" y="1417"/>
      <point x="358" y="1586" type="curve" smooth="yes"/>
      <point x="144" y="1757" type="line"/>
    </contour>
  </outline>
</glyph>
<glyph name="Gha.dv" format="2">
  <advance width="1713"/>
  <unicode hex="0918"/>
  <anchor x="1371" y="37" name="bottom"/>
  <anchor x="1367" y="37" name="bottom2"/>
  <anchor x="1563" y="37" name="bottom3"/>
  <anchor x="1371" y="55" name="bottom5"/>
  <anchor x="1371" y="1214" name="top"/>
  <outline>
    <contour>
      <point x="1563" y="1082" type="line"/>
      <point x="1563" y="0" type="line"/>
      <point x="1179" y="0" type="line"/>
      <point x="1179" y="1082" type="line"/>
    </contour>
    <contour>
      <point x="1106" y="999" type="line"/>
      <point x="1085" y="1266" type="line"/>
      <point x="1749" y="1266" type="line"/>
      <point x="1770" y="999" type="line"/>
    </contour>
    <contour>
      <point x="-41" y="999" type="line"/>
      <point x="-62" y="1266" type="line"/>
      <point x="1749" y="1266" type="line"/>
      <point x="1770" y="999" type="line"/>
    </contour>
    <contour>
      <point x="449" y="685" type="line"/>
      <point x="201" y="708"/>
      <point x="112" y="789"/>
      <point x="112" y="901" type="curve" smooth="yes"/>
      <point x="112" y="906" type="line" smooth="yes"/>
      <point x="112" y="963"/>
      <point x="139" y="1011"/>
      <point x="207" y="1041" type="curve"/>
      <point x="623" y="1041" type="line"/>
      <point x="543" y="1023"/>
      <point x="508" y="983"/>
      <point x="508" y="933" type="curve" smooth="yes"/>
      <point x="508" y="929" type="line" smooth="yes"/>
      <point x="508" y="869"/>
      <point x="553" y="831"/>
      <point x="769" y="821" type="curve" smooth="yes"/>
      <point x="949" y="813" type="line"/>
      <point x="949" y="543" type="line"/>
      <point x="762" y="538" type="line" smooth="yes"/>
      <point x="568" y="533"/>
      <point x="505" y="513"/>
      <point x="505" y="454" type="curve" smooth="yes"/>
      <point x="505" y="450" type="line" smooth="yes"/>
      <point x="505" y="390"/>
      <point x="582" y="363"/>
      <point x="807" y="363" type="curve" smooth="yes"/>
      <point x="1024" y="363"/>
      <point x="1148" y="424"/>
      <point x="1186" y="513" type="curve"/>
      <point x="1202" y="306" type="line"/>
      <point x="1168" y="306" type="line"/>
      <point x="1116" y="158"/>
      <point x="978" y="61"/>
      <point x="675" y="61" type="curve" smooth="yes"/>
      <point x="303" y="61"/>
      <point x="107" y="183"/>
      <point x="107" y="397" type="curve" smooth="yes"/>
      <point x="107" y="404" type="line" smooth="yes"/>
      <point x="107" y="554"/>
      <point x="198" y="657"/>
      <point x="449" y="675" type="curve"/>
    </contour>
  </outline>
  <guideline angle="90" x="1371" y="0"/>
  <guideline angle="0" x="0" y="37"/>
  <guideline angle="0" x="0" y="1214"/>
  <guideline angle="90" x="1367" y="0"/>
  <guideline angle="90" x="1563" y="0"/>
</glyph>
<glyph name="Nga.dv" format="2">
  <advance width="1908"/>
  <unicode hex="0919"/>
  <anchor x="776" y="-25" name="bottom"/>
  <anchor x="682" y="-25" name="bottom2"/>
  <anchor x="1309" y="-25" name="bottom3"/>
  <anchor x="757" y="-6" name="bottom5"/>
  <anchor x="1102" y="1214" name="top"/>
  <outline>
    <contour>
      <point x="1670" y="352" type="curve" smooth="yes"/>
      <point x="1513" y="352"/>
      <point x="1431" y="422"/>
      <point x="1431" y="543" type="curve" smooth="yes"/>
      <point x="1431" y="552" type="line" smooth="yes"/>
      <point x="1431" y="671"/>
      <point x="1513" y="742"/>
      <point x="1670" y="742" type="curve" smooth="yes"/>
      <point x="1825" y="742"/>
      <point x="1907" y="671"/>
      <point x="1907" y="552" type="curve" smooth="yes"/>
      <point x="1907" y="543" type="line" smooth="yes"/>
      <point x="1907" y="422"/>
      <point x="1825" y="352"/>
    </contour>
    <contour>
      <point x="1965" y="999" type="line"/>
      <point x="1396" y="999" type="line"/>
      <point x="1374" y="1266" type="line"/>
      <point x="1944" y="1266" type="line"/>
    </contour>
    <contour>
      <point x="829" y="999" type="line"/>
      <point x="808" y="1266" type="line"/>
      <point x="1480" y="1266" type="line"/>
      <point x="1501" y="999" type="line"/>
    </contour>
    <contour>
      <point x="1294" y="1082" type="line"/>
      <point x="1294" y="894" type="line"/>
      <point x="923" y="894" type="line"/>
      <point x="923" y="1082" type="line"/>
    </contour>
    <contour>
      <point x="1513" y="999" type="line"/>
      <point x="-32" y="999" type="line"/>
      <point x="-53" y="1266" type="line"/>
      <point x="1492" y="1266" type="line"/>
    </contour>
    <contour>
      <point x="922" y="1088" type="line"/>
      <point x="1294" y="1088" type="line"/>
      <point x="1294" y="657" type="line"/>
      <point x="1230.03" y="664.395"/>
      <point x="987.902" y="692.382"/>
      <point x="922" y="700" type="curve"/>
    </contour>
    <contour>
      <point x="89" y="324" type="line"/>
      <point x="278" y="247"/>
      <point x="488" y="198"/>
      <point x="700" y="198" type="curve" smooth="yes"/>
      <point x="969" y="198"/>
      <point x="1008" y="226"/>
      <point x="1008" y="276" type="curve"/>
      <point x="1008" y="278" type="line"/>
      <point x="1008" y="319"/>
      <point x="974" y="342"/>
      <point x="824" y="342" type="curve" smooth="yes"/>
      <point x="655" y="342"/>
      <point x="543" y="322"/>
      <point x="435" y="294" type="curve"/>
      <point x="221" y="335"/>
      <point x="103" y="441"/>
      <point x="103" y="603" type="curve" smooth="yes"/>
      <point x="103" y="611" type="line" smooth="yes"/>
      <point x="103" y="803"/>
      <point x="253" y="915"/>
      <point x="680" y="915" type="curve" smooth="yes"/>
      <point x="885" y="915"/>
      <point x="1072" y="902"/>
      <point x="1294" y="870" type="curve"/>
      <point x="1294" y="657" type="line"/>
      <point x="1132" y="675"/>
      <point x="976" y="684"/>
      <point x="796" y="684" type="curve" smooth="yes"/>
      <point x="534" y="684"/>
      <point x="484" y="655"/>
      <point x="484" y="602" type="curve" smooth="yes"/>
      <point x="484" y="599" type="line" smooth="yes"/>
      <point x="484" y="575"/>
      <point x="499" y="559"/>
      <point x="525" y="550" type="curve"/>
      <point x="645" y="573"/>
      <point x="748" y="587"/>
      <point x="901" y="587" type="curve" smooth="yes"/>
      <point x="1257" y="587"/>
      <point x="1389" y="463"/>
      <point x="1389" y="278" type="curve" smooth="yes"/>
      <point x="1389" y="269" type="line" smooth="yes"/>
      <point x="1389" y="71"/>
      <point x="1259" y="-62"/>
      <point x="762" y="-62" type="curve" smooth="yes"/>
      <point x="491" y="-62"/>
      <point x="260" y="-18"/>
      <point x="118" y="39" type="curve"/>
    </contour>
  </outline>
</glyph>
<glyph name="Cha.dv" format="2">
  <advance width="1893"/>
  <unicode hex="091B"/>
  <anchor x="974" y="-25" name="bottom"/>
  <anchor x="890" y="-25" name="bottom2"/>
  <anchor x="1504" y="-25" name="bottom3"/>
  <anchor x="961" y="79" name="bottom4"/>
  <anchor x="922" y="-7" name="bottom5"/>
  <anchor x="1396" y="1214" name="top"/>
  <outline>
    <contour>
      <point x="1123" y="999" type="line"/>
      <point x="1102" y="1266" type="line"/>
      <point x="1774" y="1266" type="line"/>
      <point x="1795" y="999" type="line"/>
    </contour>
    <contour>
      <point x="1588" y="1082" type="line"/>
      <point x="1588" y="894" type="line"/>
      <point x="1217" y="894" type="line"/>
      <point x="1217" y="1082" type="line"/>
    </contour>
    <contour>
      <point x="1921" y="1266" type="line"/>
      <point x="1942" y="999" type="line"/>
      <point x="-54" y="999" type="line"/>
      <point x="-75" y="1266" type="line"/>
    </contour>
    <contour>
      <point x="1213" y="844" type="line"/>
      <point x="1213" y="1088" type="line"/>
      <point x="1588" y="1088" type="line"/>
      <point x="1588" y="844" type="line"/>
    </contour>
    <contour>
      <point x="908" y="-62" type="curve" smooth="yes"/>
      <point x="372" y="-62"/>
      <point x="105" y="78"/>
      <point x="105" y="329" type="curve" smooth="yes"/>
      <point x="105" y="336" type="line" smooth="yes"/>
      <point x="105" y="491"/>
      <point x="192" y="593"/>
      <point x="445" y="618" type="curve"/>
      <point x="445" y="628" type="line"/>
      <point x="196" y="657"/>
      <point x="108" y="755"/>
      <point x="108" y="878" type="curve" smooth="yes"/>
      <point x="108" y="883" type="line" smooth="yes"/>
      <point x="108" y="945"/>
      <point x="132" y="999"/>
      <point x="185" y="1031" type="curve"/>
      <point x="602" y="1031" type="line"/>
      <point x="534" y="1011"/>
      <point x="504" y="961"/>
      <point x="504" y="908" type="curve" smooth="yes"/>
      <point x="504" y="902" type="line" smooth="yes"/>
      <point x="504" y="821"/>
      <point x="569" y="780"/>
      <point x="731" y="769" type="curve" smooth="yes"/>
      <point x="812" y="764" type="line"/>
      <point x="812" y="484" type="line"/>
      <point x="728" y="479" type="line" smooth="yes"/>
      <point x="561" y="468"/>
      <point x="503" y="438"/>
      <point x="503" y="368" type="curve" smooth="yes"/>
      <point x="503" y="365" type="line" smooth="yes"/>
      <point x="503" y="276"/>
      <point x="639" y="231"/>
      <point x="947" y="231" type="curve" smooth="yes"/>
      <point x="1319" y="231"/>
      <point x="1485" y="342"/>
      <point x="1485" y="506" type="curve" smooth="yes"/>
      <point x="1485" y="522" type="line"/>
      <point x="1479" y="554" type="line"/>
      <point x="1479" y="577" type="line" smooth="yes"/>
      <point x="1479" y="649"/>
      <point x="1441" y="689"/>
      <point x="1354" y="689" type="curve" smooth="yes"/>
      <point x="1276" y="689"/>
      <point x="1242" y="664"/>
      <point x="1242" y="621" type="curve"/>
      <point x="1242" y="619" type="line"/>
      <point x="1242" y="575"/>
      <point x="1276" y="553"/>
      <point x="1353" y="553" type="curve" smooth="yes"/>
      <point x="1410" y="553"/>
      <point x="1462" y="565"/>
      <point x="1492" y="583" type="curve"/>
      <point x="1492" y="451" type="line"/>
      <point x="1465" y="451" type="line"/>
      <point x="1430" y="387"/>
      <point x="1353" y="343"/>
      <point x="1228" y="343" type="curve" smooth="yes"/>
      <point x="1041" y="343"/>
      <point x="920" y="438"/>
      <point x="920" y="612" type="curve" smooth="yes"/>
      <point x="920" y="617" type="line" smooth="yes"/>
      <point x="920" y="814"/>
      <point x="1068" y="916"/>
      <point x="1349" y="916" type="curve" smooth="yes"/>
      <point x="1674" y="916"/>
      <point x="1810" y="755"/>
      <point x="1810" y="520" type="curve" smooth="yes"/>
      <point x="1810" y="509" type="line" smooth="yes"/>
      <point x="1810" y="178"/>
      <point x="1527" y="-62"/>
    </contour>
  </outline>
</glyph>
<glyph name="Nya.dv" format="2">
  <advance width="1834"/>
  <unicode hex="091E"/>
  <anchor x="1492" y="37" name="bottom"/>
  <anchor x="1488" y="37" name="bottom2"/>
  <anchor x="1684" y="37" name="bottom3"/>
  <anchor x="1492" y="55" name="bottom5"/>
  <anchor x="1492" y="1214" name="top"/>
  <outline>
    <contour>
      <point x="-36" y="999" type="line"/>
      <point x="-57" y="1266" type="line"/>
      <point x="1870" y="1266" type="line"/>
      <point x="1891" y="999" type="line"/>
    </contour>
    <contour>
      <point x="160" y="862" type="line"/>
      <point x="269" y="885"/>
      <point x="383" y="897"/>
      <point x="511" y="897" type="curve" smooth="yes"/>
      <point x="894" y="897"/>
      <point x="1072" y="757"/>
      <point x="1072" y="484" type="curve" smooth="yes"/>
      <point x="1072" y="481" type="line" smooth="yes"/>
      <point x="1072" y="196"/>
      <point x="901" y="62"/>
      <point x="511" y="62" type="curve" smooth="yes"/>
      <point x="342" y="62"/>
      <point x="217" y="83"/>
      <point x="121" y="119" type="curve"/>
      <point x="100" y="408" type="line"/>
      <point x="191" y="380"/>
      <point x="308" y="358"/>
      <point x="422" y="358" type="curve" smooth="yes"/>
      <point x="634" y="358"/>
      <point x="694" y="399"/>
      <point x="694" y="481" type="curve"/>
      <point x="694" y="482" type="line"/>
      <point x="694" y="559"/>
      <point x="639" y="602"/>
      <point x="420" y="602" type="curve" smooth="yes"/>
      <point x="331" y="602"/>
      <point x="228" y="591"/>
      <point x="130" y="571" type="curve"/>
    </contour>
    <contour>
      <point x="1006" y="630" type="line"/>
      <point x="1362" y="630" type="line"/>
      <point x="1362" y="342" type="line"/>
      <point x="1006" y="342" type="line"/>
    </contour>
    <contour>
      <point x="1684" y="1082" type="line"/>
      <point x="1684" y="0" type="line"/>
      <point x="1300" y="0" type="line"/>
      <point x="1300" y="1082" type="line"/>
    </contour>
    <contour>
      <point x="1227" y="999" type="line"/>
      <point x="1206" y="1266" type="line"/>
      <point x="1870" y="1266" type="line"/>
      <point x="1891" y="999" type="line"/>
    </contour>
  </outline>
</glyph>
<glyph name="Tta.dv" format="2">
  <advance width="1419"/>
  <unicode hex="091F"/>
  <anchor x="800" y="-16" name="bottom"/>
  <anchor x="694" y="-16" name="bottom2"/>
  <anchor x="1335" y="-16" name="bottom3"/>
  <anchor x="795" y="80" name="bottom4"/>
  <anchor x="757" y="1" name="bottom5"/>
  <anchor x="1068" y="1214" name="top"/>
  <outline>
    <contour>
      <point x="795" y="999" type="line"/>
      <point x="774" y="1266" type="line"/>
      <point x="1446" y="1266" type="line"/>
      <point x="1467" y="999" type="line"/>
    </contour>
    <contour>
      <point x="1260" y="1082" type="line"/>
      <point x="1260" y="894" type="line"/>
      <point x="889" y="894" type="line"/>
      <point x="889" y="1082" type="line"/>
    </contour>
    <contour>
      <point x="-27" y="999" type="line"/>
      <point x="-48" y="1266" type="line"/>
      <point x="1464" y="1266" type="line"/>
      <point x="1485" y="999" type="line"/>
    </contour>
    <contour>
      <point x="888" y="676" type="line"/>
      <point x="888" y="1088" type="line"/>
      <point x="1260" y="1088" type="line"/>
      <point x="1260" y="541" type="line"/>
    </contour>
    <contour>
      <point x="1285" y="25" type="line"/>
      <point x="1155" y="-25"/>
      <point x="1002" y="-53"/>
      <point x="787" y="-53" type="curve" smooth="yes"/>
      <point x="311" y="-53"/>
      <point x="87" y="105"/>
      <point x="87" y="404" type="curve" smooth="yes"/>
      <point x="87" y="415" type="line" smooth="yes"/>
      <point x="87" y="712"/>
      <point x="299" y="847"/>
      <point x="728" y="847" type="curve" smooth="yes"/>
      <point x="881" y="847"/>
      <point x="1047" y="840"/>
      <point x="1260" y="815" type="curve"/>
      <point x="1260" y="541" type="line"/>
      <point x="1072" y="561"/>
      <point x="972" y="566"/>
      <point x="822" y="566" type="curve" smooth="yes"/>
      <point x="575" y="566"/>
      <point x="485" y="516"/>
      <point x="485" y="409" type="curve" smooth="yes"/>
      <point x="485" y="404" type="line" smooth="yes"/>
      <point x="485" y="299"/>
      <point x="577" y="246"/>
      <point x="813" y="246" type="curve" smooth="yes"/>
      <point x="1007" y="246"/>
      <point x="1180" y="281"/>
      <point x="1312" y="335" type="curve"/>
    </contour>
  </outline>
</glyph>
<glyph name="Ttha.dv" format="2">
  <advance width="1611"/>
  <unicode hex="0920"/>
  <anchor x="846" y="-16" name="bottom"/>
  <anchor x="735" y="-16" name="bottom2"/>
  <anchor x="1375" y="-16" name="bottom3"/>
  <anchor x="807" y="79" name="bottom4"/>
  <anchor x="805" y="3" name="bottom5"/>
  <anchor x="1024" y="1214" name="top"/>
  <outline>
    <contour>
      <point x="751" y="999" type="line"/>
      <point x="730" y="1266" type="line"/>
      <point x="1402" y="1266" type="line"/>
      <point x="1423" y="999" type="line"/>
    </contour>
    <contour>
      <point x="1216" y="1082" type="line"/>
      <point x="1216" y="894" type="line"/>
      <point x="845" y="894" type="line"/>
      <point x="845" y="1082" type="line"/>
    </contour>
    <contour>
      <point x="-48" y="1266" type="line"/>
      <point x="1643" y="1266" type="line"/>
      <point x="1664" y="999" type="line"/>
      <point x="-27" y="999" type="line"/>
    </contour>
    <contour>
      <point x="844" y="1088" type="line"/>
      <point x="1216" y="1088" type="line"/>
      <point x="1216" y="602" type="line"/>
      <point x="844" y="637" type="line"/>
    </contour>
    <contour>
      <point x="1153" y="817" type="line"/>
      <point x="1396" y="744"/>
      <point x="1527" y="603"/>
      <point x="1527" y="406" type="curve" smooth="yes"/>
      <point x="1527" y="395" type="line" smooth="yes"/>
      <point x="1527" y="109"/>
      <point x="1299" y="-52"/>
      <point x="805" y="-52" type="curve" smooth="yes"/>
      <point x="344" y="-52"/>
      <point x="87" y="107"/>
      <point x="87" y="399" type="curve" smooth="yes"/>
      <point x="87" y="409" type="line" smooth="yes"/>
      <point x="87" y="700"/>
      <point x="304" y="849"/>
      <point x="744" y="849" type="curve" smooth="yes"/>
      <point x="888" y="849"/>
      <point x="1022" y="840"/>
      <point x="1216" y="808" type="curve"/>
      <point x="1216" y="506" type="line"/>
      <point x="1082" y="546"/>
      <point x="983" y="568"/>
      <point x="808" y="568" type="curve" smooth="yes"/>
      <point x="584" y="568"/>
      <point x="485" y="518"/>
      <point x="485" y="410" type="curve" smooth="yes"/>
      <point x="485" y="405" type="line" smooth="yes"/>
      <point x="485" y="296"/>
      <point x="586" y="246"/>
      <point x="810" y="246" type="curve" smooth="yes"/>
      <point x="1023" y="246"/>
      <point x="1132" y="297"/>
      <point x="1132" y="407" type="curve" smooth="yes"/>
      <point x="1132" y="412" type="line" smooth="yes"/>
      <point x="1132" y="502"/>
      <point x="1061" y="557"/>
      <point x="927" y="571" type="curve"/>
    </contour>
  </outline>
</glyph>
<glyph name="Nna.dv" format="2">
  <advance width="2088"/>
  <unicode hex="0923"/>
  <anchor x="1746" y="37" name="bottom"/>
  <anchor x="1742" y="37" name="bottom2"/>
  <anchor x="1938" y="37" name="bottom3"/>
  <anchor x="1746" y="55" name="bottom5"/>
  <anchor x="1746" y="1214" name="top"/>
  <outline>
    <contour>
      <point x="1938" y="1082" type="line"/>
      <point x="1938" y="0" type="line"/>
      <point x="1554" y="0" type="line"/>
      <point x="1554" y="1082" type="line"/>
    </contour>
    <contour>
      <point x="1481" y="999" type="line"/>
      <point x="1460" y="1266" type="line"/>
      <point x="2124" y="1266" type="line"/>
      <point x="2145" y="999" type="line"/>
    </contour>
    <contour>
      <point x="-36" y="999" type="line"/>
      <point x="-57" y="1266" type="line"/>
      <point x="2124" y="1266" type="line"/>
      <point x="2145" y="999" type="line"/>
    </contour>
    <contour>
      <point x="710" y="205" type="curve" smooth="yes"/>
      <point x="326" y="205"/>
      <point x="141" y="360"/>
      <point x="141" y="694" type="curve" smooth="yes"/>
      <point x="141" y="1080" type="line"/>
      <point x="516" y="1080" type="line"/>
      <point x="516" y="691" type="line" smooth="yes"/>
      <point x="516" y="559"/>
      <point x="578" y="498"/>
      <point x="710" y="498" type="curve" smooth="yes"/>
      <point x="840" y="498"/>
      <point x="902" y="559"/>
      <point x="902" y="691" type="curve" smooth="yes"/>
      <point x="902" y="1080" type="line"/>
      <point x="1278" y="1080" type="line"/>
      <point x="1278" y="694" type="line" smooth="yes"/>
      <point x="1278" y="360"/>
      <point x="1093" y="205"/>
    </contour>
  </outline>
</glyph>
<glyph name="Ta.dv" format="2">
  <advance width="1570"/>
  <unicode hex="0924"/>
  <anchor x="1228" y="37" name="bottom"/>
  <anchor x="1224" y="37" name="bottom2"/>
  <anchor x="1420" y="37" name="bottom3"/>
  <anchor x="1228" y="55" name="bottom5"/>
  <anchor x="1228" y="1214" name="top"/>
  <outline>
    <contour>
      <point x="1420" y="1082" type="line"/>
      <point x="1420" y="0" type="line"/>
      <point x="1036" y="0" type="line"/>
      <point x="1036" y="1082" type="line"/>
    </contour>
    <contour>
      <point x="963" y="999" type="line"/>
      <point x="942" y="1266" type="line"/>
      <point x="1606" y="1266" type="line"/>
      <point x="1627" y="999" type="line"/>
    </contour>
    <contour>
      <point x="-36" y="999" type="line"/>
      <point x="-57" y="1266" type="line"/>
      <point x="1606" y="1266" type="line"/>
      <point x="1627" y="999" type="line"/>
    </contour>
    <contour>
      <point x="285" y="0" type="line"/>
      <point x="160" y="116"/>
      <point x="91" y="254"/>
      <point x="91" y="409" type="curve" smooth="yes"/>
      <point x="91" y="655"/>
      <point x="260" y="817"/>
      <point x="634" y="817" type="curve" smooth="yes"/>
      <point x="1219" y="817" type="line"/>
      <point x="1219" y="527" type="line"/>
      <point x="693" y="527" type="line" smooth="yes"/>
      <point x="556" y="527"/>
      <point x="489" y="475"/>
      <point x="489" y="370" type="curve" smooth="yes"/>
      <point x="489" y="258"/>
      <point x="569" y="142"/>
      <point x="708" y="0" type="curve"/>
    </contour>
  </outline>
</glyph>
<glyph name="Dha.dv" format="2">
  <advance width="1801"/>
  <unicode hex="0927"/>
  <anchor x="1459" y="37" name="bottom"/>
  <anchor x="1455" y="37" name="bottom2"/>
  <anchor x="1651" y="37" name="bottom3"/>
  <anchor x="1459" y="55" name="bottom5"/>
  <anchor x="1459" y="1214" name="top"/>
  <outline>
    <contour>
      <point x="1651" y="1082" type="line"/>
      <point x="1651" y="0" type="line"/>
      <point x="1267" y="0" type="line"/>
      <point x="1267" y="1082" type="line"/>
    </contour>
    <contour>
      <point x="1194" y="999" type="line"/>
      <point x="1173" y="1266" type="line"/>
      <point x="1837" y="1266" type="line"/>
      <point x="1858" y="999" type="line"/>
    </contour>
    <contour>
      <point x="1150" y="999" type="line"/>
      <point x="1129" y="1266" type="line"/>
      <point x="1837" y="1266" type="line"/>
      <point x="1858" y="999" type="line"/>
    </contour>
    <contour>
      <point x="88" y="393" type="line" smooth="yes"/>
      <point x="88" y="538"/>
      <point x="170" y="641"/>
      <point x="456" y="653" type="curve"/>
      <point x="456" y="664" type="line"/>
      <point x="168" y="684"/>
      <point x="45" y="781"/>
      <point x="45" y="963" type="curve" smooth="yes"/>
      <point x="45" y="970" type="line" smooth="yes"/>
      <point x="45" y="1164"/>
      <point x="200" y="1301"/>
      <point x="567" y="1301" type="curve" smooth="yes"/>
      <point x="917" y="1301"/>
      <point x="1061" y="1177"/>
      <point x="1061" y="991" type="curve" smooth="yes"/>
      <point x="1061" y="956"/>
      <point x="1054" y="922"/>
      <point x="1044" y="895" type="curve"/>
      <point x="693" y="895" type="line"/>
      <point x="693" y="918" type="line" smooth="yes"/>
      <point x="693" y="988"/>
      <point x="656" y="1022"/>
      <point x="567" y="1022" type="curve" smooth="yes"/>
      <point x="476" y="1022"/>
      <point x="433" y="984"/>
      <point x="433" y="924" type="curve" smooth="yes"/>
      <point x="433" y="918" type="line" smooth="yes"/>
      <point x="433" y="828"/>
      <point x="503" y="799"/>
      <point x="741" y="792" type="curve" smooth="yes"/>
      <point x="978" y="785" type="line"/>
      <point x="978" y="516" type="line"/>
      <point x="714" y="511" type="line" smooth="yes"/>
      <point x="530" y="508"/>
      <point x="485" y="486"/>
      <point x="485" y="441" type="curve" smooth="yes"/>
      <point x="485" y="438" type="line" smooth="yes"/>
      <point x="485" y="390"/>
      <point x="534" y="361"/>
      <point x="825" y="361" type="curve" smooth="yes"/>
      <point x="1102" y="361"/>
      <point x="1234" y="422"/>
      <point x="1273" y="522" type="curve"/>
      <point x="1288" y="299" type="line"/>
      <point x="1254" y="299" type="line"/>
      <point x="1193" y="146"/>
      <point x="1029" y="59"/>
      <point x="698" y="59" type="curve" smooth="yes"/>
      <point x="280" y="59"/>
      <point x="88" y="180"/>
      <point x="88" y="386" type="curve" smooth="yes"/>
    </contour>
  </outline>
</glyph>
<glyph name="Na.dv" format="2">
  <advance width="1547"/>
  <unicode hex="0928"/>
  <anchor x="1205" y="37" name="bottom"/>
  <anchor x="1201" y="37" name="bottom2"/>
  <anchor x="1397" y="37" name="bottom3"/>
  <anchor x="1205" y="55" name="bottom5"/>
  <anchor x="1205" y="1214" name="top"/>
  <outline>
    <contour>
      <point x="1397" y="1082" type="line"/>
      <point x="1397" y="0" type="line"/>
      <point x="1013" y="0" type="line"/>
      <point x="1013" y="1082" type="line"/>
    </contour>
    <contour>
      <point x="940" y="999" type="line"/>
      <point x="919" y="1266" type="line"/>
      <point x="1583" y="1266" type="line"/>
      <point x="1604" y="999" type="line"/>
    </contour>
    <contour>
      <point x="1604" y="999" type="line"/>
      <point x="-47" y="999" type="line"/>
      <point x="-68" y="1266" type="line"/>
      <point x="1583" y="1266" type="line"/>
    </contour>
    <contour>
      <point x="1173" y="767" type="line"/>
      <point x="1173" y="475" type="line"/>
      <point x="397" y="475" type="line"/>
      <point x="397" y="767" type="line"/>
    </contour>
    <contour>
      <point x="249" y="183" type="line"/>
      <point x="151" y="303"/>
      <point x="80" y="465"/>
      <point x="66" y="655" type="curve"/>
      <point x="254" y="767" type="line"/>
      <point x="594" y="767" type="line"/>
      <point x="594" y="183" type="line"/>
    </contour>
  </outline>
</glyph>
<glyph name="Pa.dv" format="2">
  <advance width="1562"/>
  <unicode hex="092A"/>
  <anchor x="1220" y="37" name="bottom"/>
  <anchor x="1216" y="37" name="bottom2"/>
  <anchor x="1412" y="37" name="bottom3"/>
  <anchor x="1220" y="55" name="bottom5"/>
  <anchor x="1220" y="1214" name="top"/>
  <outline>
    <contour>
      <point x="1412" y="1082" type="line"/>
      <point x="1412" y="0" type="line"/>
      <point x="1028" y="0" type="line"/>
      <point x="1028" y="1082" type="line"/>
    </contour>
    <contour>
      <point x="955" y="999" type="line"/>
      <point x="934" y="1266" type="line"/>
      <point x="1598" y="1266" type="line"/>
      <point x="1619" y="999" type="line"/>
    </contour>
    <contour>
      <point x="-36" y="999" type="line"/>
      <point x="-57" y="1266" type="line"/>
      <point x="1598" y="1266" type="line"/>
      <point x="1619" y="999" type="line"/>
    </contour>
    <contour>
      <point x="626" y="223" type="curve" smooth="yes"/>
      <point x="324" y="223"/>
      <point x="137" y="383"/>
      <point x="137" y="712" type="curve" smooth="yes"/>
      <point x="137" y="1080" type="line"/>
      <point x="521" y="1080" type="line"/>
      <point x="521" y="780" type="line" smooth="yes"/>
      <point x="521" y="589"/>
      <point x="598" y="525"/>
      <point x="771" y="525" type="curve" smooth="yes"/>
      <point x="922" y="525"/>
      <point x="1011" y="593"/>
      <point x="1032" y="675" type="curve"/>
      <point x="1047" y="466" type="line"/>
      <point x="1015" y="466" type="line"/>
      <point x="975" y="326"/>
      <point x="864" y="223"/>
    </contour>
  </outline>
</glyph>
<glyph name="Bha.dv" format="2">
  <advance width="1602"/>
  <unicode hex="092D"/>
  <anchor x="1260" y="37" name="bottom"/>
  <anchor x="1256" y="37" name="bottom2"/>
  <anchor x="1452" y="37" name="bottom3"/>
  <anchor x="1260" y="55" name="bottom5"/>
  <anchor x="1260" y="1214" name="top"/>
  <outline>
    <contour>
      <point x="1452" y="1082" type="line"/>
      <point x="1452" y="0" type="line"/>
      <point x="1068" y="0" type="line"/>
      <point x="1068" y="1082" type="line"/>
    </contour>
    <contour>
      <point x="995" y="999" type="line"/>
      <point x="974" y="1266" type="line"/>
      <point x="1638" y="1266" type="line"/>
      <point x="1659" y="999" type="line"/>
    </contour>
    <contour>
      <point x="924" y="999" type="line"/>
      <point x="902" y="1266" type="line"/>
      <point x="1538" y="1266" type="line"/>
      <point x="1559" y="999" type="line"/>
    </contour>
    <contour>
      <point x="383" y="388" type="line"/>
      <point x="383" y="673" type="line"/>
      <point x="1203" y="673" type="line"/>
      <point x="1203" y="388" type="line"/>
    </contour>
    <contour>
      <point x="244" y="158" type="line"/>
      <point x="153" y="262"/>
      <point x="84" y="400"/>
      <point x="68" y="566" type="curve"/>
      <point x="247" y="662" type="line"/>
      <point x="628" y="662" type="line"/>
      <point x="628" y="158" type="line"/>
    </contour>
    <contour>
      <point x="247" y="525" type="line"/>
      <point x="247" y="856" type="line" smooth="yes"/>
      <point x="247" y="963"/>
      <point x="217" y="999"/>
      <point x="114" y="999" type="curve" smooth="yes"/>
      <point x="-36" y="999" type="line"/>
      <point x="-57" y="1266" type="line"/>
      <point x="187" y="1266" type="line" smooth="yes"/>
      <point x="514" y="1266"/>
      <point x="628" y="1148"/>
      <point x="628" y="863" type="curve" smooth="yes"/>
      <point x="628" y="525" type="line"/>
    </contour>
  </outline>
</glyph>
<glyph name="Ma.dv" format="2">
  <advance width="1629"/>
  <unicode hex="092E"/>
  <anchor x="1287" y="37" name="bottom"/>
  <anchor x="1283" y="37" name="bottom2"/>
  <anchor x="1479" y="37" name="bottom3"/>
  <anchor x="1287" y="55" name="bottom5"/>
  <anchor x="1287" y="1214" name="top"/>
  <outline>
    <contour>
      <point x="1479" y="1082" type="line"/>
      <point x="1479" y="0" type="line"/>
      <point x="1095" y="0" type="line"/>
      <point x="1095" y="1082" type="line"/>
    </contour>
    <contour>
      <point x="1022" y="999" type="line"/>
      <point x="1001" y="1266" type="line"/>
      <point x="1665" y="1266" type="line"/>
      <point x="1686" y="999" type="line"/>
    </contour>
    <contour>
      <point x="1686" y="999" type="line"/>
      <point x="-36" y="999" type="line"/>
      <point x="-57" y="1266" type="line"/>
      <point x="1665" y="1266" type="line"/>
    </contour>
    <contour>
      <point x="1234" y="673" type="line"/>
      <point x="1234" y="388" type="line"/>
      <point x="388" y="388" type="line"/>
      <point x="388" y="673" type="line"/>
    </contour>
    <contour>
      <point x="628" y="1088" type="line"/>
      <point x="628" y="516" type="line"/>
      <point x="247" y="516" type="line"/>
      <point x="247" y="1088" type="line"/>
    </contour>
    <contour>
      <point x="247" y="146" type="line"/>
      <point x="158" y="251"/>
      <point x="89" y="393"/>
      <point x="73" y="562" type="curve"/>
      <point x="249" y="659" type="line"/>
      <point x="628" y="659" type="line"/>
      <point x="628" y="146" type="line"/>
    </contour>
  </outline>
</glyph>
<glyph name="La.dv" format="2">
  <advance width="1918"/>
  <unicode hex="0932"/>
  <anchor x="1576" y="37" name="bottom"/>
  <anchor x="1572" y="37" name="bottom2"/>
  <anchor x="1768" y="37" name="bottom3"/>
  <anchor x="1576" y="55" name="bottom5"/>
  <anchor x="1576" y="1214" name="top"/>
  <outline>
    <contour>
      <point x="1768" y="1082" type="line"/>
      <point x="1768" y="0" type="line"/>
      <point x="1384" y="0" type="line"/>
      <point x="1384" y="1082" type="line"/>
    </contour>
    <contour>
      <point x="1311" y="999" type="line"/>
      <point x="1290" y="1266" type="line"/>
      <point x="1954" y="1266" type="line"/>
      <point x="1975" y="999" type="line"/>
    </contour>
    <contour>
      <point x="-36" y="999" type="line"/>
      <point x="-57" y="1266" type="line"/>
      <point x="1954" y="1266" type="line"/>
      <point x="1975" y="999" type="line"/>
    </contour>
    <contour>
      <point x="578" y="858" type="curve" smooth="yes"/>
      <point x="787" y="858"/>
      <point x="902" y="785"/>
      <point x="943" y="657" type="curve"/>
      <point x="952" y="657" type="line"/>
      <point x="990" y="783"/>
      <point x="1100" y="854"/>
      <point x="1248" y="854" type="curve" smooth="yes"/>
      <point x="1314" y="854"/>
      <point x="1362" y="842"/>
      <point x="1399" y="821" type="curve"/>
      <point x="1397" y="473" type="line"/>
      <point x="1381" y="530"/>
      <point x="1340" y="559"/>
      <point x="1280" y="559" type="curve" smooth="yes"/>
      <point x="1196" y="559"/>
      <point x="1159" y="516"/>
      <point x="1152" y="417" type="curve" smooth="yes"/>
      <point x="1139" y="221" type="line"/>
      <point x="778" y="221" type="line"/>
      <point x="765" y="415" type="line" smooth="yes"/>
      <point x="758" y="514"/>
      <point x="723" y="561"/>
      <point x="632" y="561" type="curve" smooth="yes"/>
      <point x="538" y="561"/>
      <point x="489" y="504"/>
      <point x="489" y="404" type="curve" smooth="yes"/>
      <point x="489" y="263"/>
      <point x="583" y="151"/>
      <point x="740" y="7" type="curve"/>
      <point x="740" y="0" type="line"/>
      <point x="304" y="0" type="line"/>
      <point x="171" y="116"/>
      <point x="91" y="256"/>
      <point x="91" y="429" type="curve" smooth="yes"/>
      <point x="91" y="691"/>
      <point x="271" y="858"/>
    </contour>
  </outline>
</glyph>
<glyph name="Lla.dv" format="2">
  <advance width="1999"/>
  <unicode hex="0933"/>
  <anchor x="1484" y="3" name="bottom"/>
  <anchor x="1355" y="3" name="bottom2"/>
  <anchor x="1578" y="3" name="bottom3"/>
  <anchor x="1000" y="21" name="bottom5"/>
  <anchor x="1408" y="1214" name="top"/>
  <outline>
    <contour>
      <point x="1135" y="999" type="line"/>
      <point x="1114" y="1266" type="line"/>
      <point x="1786" y="1266" type="line"/>
      <point x="1807" y="999" type="line"/>
    </contour>
    <contour>
      <point x="1600" y="1082" type="line"/>
      <point x="1600" y="894" type="line"/>
      <point x="1229" y="894" type="line"/>
      <point x="1229" y="1082" type="line"/>
    </contour>
    <contour>
      <point x="2054" y="999" type="line"/>
      <point x="-34" y="999" type="line"/>
      <point x="-55" y="1266" type="line"/>
      <point x="2033" y="1266" type="line"/>
    </contour>
    <contour>
      <point x="1600" y="801" type="line"/>
      <point x="1228" y="801" type="line"/>
      <point x="1228" y="1082" type="line"/>
      <point x="1600" y="1082" type="line"/>
    </contour>
    <contour>
      <point x="1913" y="399" type="line" smooth="yes"/>
      <point x="1913" y="142"/>
      <point x="1766" y="-32"/>
      <point x="1472" y="-32" type="curve" smooth="yes"/>
      <point x="1266" y="-32"/>
      <point x="1145" y="66"/>
      <point x="1102" y="199" type="curve"/>
      <point x="1073" y="199" type="line"/>
      <point x="1104" y="383" type="line"/>
      <point x="1180" y="383" type="line"/>
      <point x="1205" y="308"/>
      <point x="1269" y="256"/>
      <point x="1369" y="256" type="curve" smooth="yes"/>
      <point x="1477" y="256"/>
      <point x="1529" y="313"/>
      <point x="1529" y="408" type="curve" smooth="yes"/>
      <point x="1529" y="415" type="line" smooth="yes"/>
      <point x="1529" y="518"/>
      <point x="1479.68" y="571"/>
      <point x="1378" y="571" type="curve" smooth="yes"/>
      <point x="1277.89" y="571"/>
      <point x="1230.15" y="513.171"/>
      <point x="1197" y="411" type="curve" smooth="yes"/>
      <point x="1148" y="260" type="line"/>
      <point x="1111" y="249" type="line"/>
      <point x="1048" y="71"/>
      <point x="906" y="-34"/>
      <point x="628" y="-34" type="curve" smooth="yes"/>
      <point x="294" y="-34"/>
      <point x="91" y="132"/>
      <point x="91" y="413" type="curve" smooth="yes"/>
      <point x="91" y="425" type="line" smooth="yes"/>
      <point x="91" y="700"/>
      <point x="266" y="858"/>
      <point x="552" y="858" type="curve" smooth="yes"/>
      <point x="769" y="858"/>
      <point x="872" y="765"/>
      <point x="911" y="641" type="curve"/>
      <point x="934" y="641" type="line"/>
      <point x="867" y="451" type="line"/>
      <point x="826" y="450" type="line"/>
      <point x="790.988" y="530.358"/>
      <point x="742.043" y="572"/>
      <point x="643" y="572" type="curve" smooth="yes"/>
      <point x="528" y="572"/>
      <point x="475" y="511"/>
      <point x="475" y="415" type="curve" smooth="yes"/>
      <point x="475" y="408" type="line" smooth="yes"/>
      <point x="475" y="311"/>
      <point x="533" y="255"/>
      <point x="633" y="255" type="curve" smooth="yes"/>
      <point x="732" y="255"/>
      <point x="774.047" y="305.935"/>
      <point x="806" y="406" type="curve" smooth="yes"/>
      <point x="844" y="525" type="line"/>
      <point x="893" y="564" type="line"/>
      <point x="945" y="751"/>
      <point x="1098" y="858"/>
      <point x="1378" y="858" type="curve" smooth="yes"/>
      <point x="1743" y="858"/>
      <point x="1913" y="675"/>
      <point x="1913" y="409" type="curve" smooth="yes"/>
    </contour>
  </outline>
</glyph>
<glyph name="Ssa.dv" format="2">
  <advance width="1581"/>
  <unicode hex="0937"/>
  <anchor x="1239" y="37" name="bottom"/>
  <anchor x="1235" y="37" name="bottom2"/>
  <anchor x="1431" y="37" name="bottom3"/>
  <anchor x="1239" y="55" name="bottom5"/>
  <anchor x="1239" y="1214" name="top"/>
  <outline>
    <contour>
      <point x="1431" y="1082" type="line"/>
      <point x="1431" y="0" type="line"/>
      <point x="1047" y="0" type="line"/>
      <point x="1047" y="1082" type="line"/>
    </contour>
    <contour>
      <point x="974" y="999" type="line"/>
      <point x="953" y="1266" type="line"/>
      <point x="1617" y="1266" type="line"/>
      <point x="1638" y="999" type="line"/>
    </contour>
    <contour>
      <point x="-36" y="999" type="line"/>
      <point x="-57" y="1266" type="line"/>
      <point x="1617" y="1266" type="line"/>
      <point x="1638" y="999" type="line"/>
    </contour>
    <contour>
      <point x="637" y="222" type="curve" smooth="yes"/>
      <point x="317" y="222"/>
      <point x="137" y="379"/>
      <point x="137" y="707" type="curve" smooth="yes"/>
      <point x="137" y="1080" type="line"/>
      <point x="500" y="1080" type="line"/>
      <point x="500" y="749" type="line" smooth="yes"/>
      <point x="500" y="570"/>
      <point x="598" y="507"/>
      <point x="773" y="507" type="curve" smooth="yes"/>
      <point x="934" y="507"/>
      <point x="1015" y="562"/>
      <point x="1052" y="651" type="curve"/>
      <point x="1066" y="457" type="line"/>
      <point x="1034" y="457" type="line"/>
      <point x="990" y="319"/>
      <point x="869" y="222"/>
    </contour>
    <contour>
      <point x="379" y="915" type="curve"/>
      <point x="457" y="1038" type="line"/>
      <point x="848" y="834" type="line" smooth="yes"/>
      <point x="975" y="768"/>
      <point x="1042" y="731"/>
      <point x="1136" y="661" type="curve"/>
      <point x="1066" y="522" type="line"/>
      <point x="675" y="717" type="line" smooth="yes"/>
      <point x="537" y="786"/>
      <point x="463" y="829"/>
    </contour>
  </outline>
</glyph>
<glyph name="Sa.dv" format="2">
  <advance width="1861"/>
  <unicode hex="0938"/>
  <anchor x="1519" y="37" name="bottom"/>
  <anchor x="1515" y="37" name="bottom2"/>
  <anchor x="1711" y="37" name="bottom3"/>
  <anchor x="1519" y="55" name="bottom5"/>
  <anchor x="1519" y="1214" name="top"/>
  <outline>
    <contour>
      <point x="1711" y="1082" type="line"/>
      <point x="1711" y="0" type="line"/>
      <point x="1327" y="0" type="line"/>
      <point x="1327" y="1082" type="line"/>
    </contour>
    <contour>
      <point x="1254" y="999" type="line"/>
      <point x="1233" y="1266" type="line"/>
      <point x="1897" y="1266" type="line"/>
      <point x="1918" y="999" type="line"/>
    </contour>
    <contour>
      <point x="1918" y="999" type="line"/>
      <point x="-36" y="999" type="line"/>
      <point x="-57" y="1266" type="line"/>
      <point x="1897" y="1266" type="line"/>
    </contour>
    <contour>
      <point x="815" y="678" type="line"/>
      <point x="1397" y="678" type="line"/>
      <point x="1397" y="393" type="line"/>
      <point x="886" y="393" type="line"/>
    </contour>
    <contour>
      <point x="1008" y="0" type="line"/>
      <point x="503" y="0" type="line"/>
      <point x="216" y="370" type="line"/>
      <point x="75" y="388" type="line"/>
      <point x="75" y="687" type="line"/>
      <point x="531" y="640" type="line"/>
      <point x="531" y="425" type="line"/>
      <point x="664" y="368"/>
      <point x="748" y="304"/>
      <point x="857" y="184" type="curve" smooth="yes"/>
      <point x="1008" y="18" type="line"/>
    </contour>
    <contour>
      <point x="808" y="1068" type="line"/>
      <point x="908" y="986"/>
      <point x="949" y="892"/>
      <point x="949" y="787" type="curve" smooth="yes"/>
      <point x="949" y="776" type="line" smooth="yes"/>
      <point x="949" y="559"/>
      <point x="781" y="434"/>
      <point x="406" y="417" type="curve" smooth="yes"/>
      <point x="290" y="411" type="line"/>
      <point x="75" y="687" type="line"/>
      <point x="167" y="687" type="line" smooth="yes"/>
      <point x="454" y="687"/>
      <point x="554" y="733"/>
      <point x="554" y="845" type="curve" smooth="yes"/>
      <point x="554" y="851" type="line" smooth="yes"/>
      <point x="554" y="936"/>
      <point x="514" y="1002"/>
      <point x="384" y="1068" type="curve"/>
    </contour>
  </outline>
  <guideline angle="0" x="0" y="-21"/>
  <guideline angle="90" x="53" y="0"/>
  <guideline angle="90" x="628" y="0"/>
  <guideline angle="90" x="1519" y="0"/>
  <guideline angle="0" x="0" y="37"/>
  <guideline angle="0" x="0" y="1214"/>
  <guideline angle="90" x="1515" y="0"/>
  <guideline angle="90" x="1711" y="0"/>
</glyph>
<glyph name="Ha.dv" format="2">
  <advance width="1458"/>
  <unicode hex="0939"/>
  <anchor x="831" y="-116" name="bottom"/>
  <anchor x="707" y="-241" name="bottom2"/>
  <anchor x="1316" y="-241" name="bottom3"/>
  <anchor x="381" y="-114" name="bottom4"/>
  <anchor x="749" y="-223" name="bottom5"/>
  <anchor x="1106" y="1214" name="top"/>
  <outline>
    <contour>
      <point x="833" y="999" type="line"/>
      <point x="812" y="1266" type="line"/>
      <point x="1484" y="1266" type="line"/>
      <point x="1505" y="999" type="line"/>
    </contour>
    <contour>
      <point x="1298" y="1082" type="line"/>
      <point x="1298" y="894" type="line"/>
      <point x="927" y="894" type="line"/>
      <point x="927" y="1082" type="line"/>
    </contour>
    <contour>
      <point x="1515" y="999" type="line"/>
      <point x="-32" y="999" type="line"/>
      <point x="-53" y="1266" type="line"/>
      <point x="1494" y="1266" type="line"/>
    </contour>
    <contour>
      <point x="926" y="1070" type="line"/>
      <point x="1298" y="1070" type="line"/>
      <point x="1298" y="627" type="line"/>
      <point x="926" y="678" type="line"/>
    </contour>
    <contour>
      <point x="285" y="384" type="line"/>
      <point x="178" y="425"/>
      <point x="101" y="502"/>
      <point x="101" y="609" type="curve" smooth="yes"/>
      <point x="101" y="614" type="line" smooth="yes"/>
      <point x="101" y="805"/>
      <point x="271" y="913"/>
      <point x="698" y="913" type="curve" smooth="yes"/>
      <point x="885" y="913"/>
      <point x="1091" y="901"/>
      <point x="1298" y="870" type="curve"/>
      <point x="1298" y="627" type="line"/>
      <point x="1130" y="644"/>
      <point x="970" y="657"/>
      <point x="806" y="657" type="curve" smooth="yes"/>
      <point x="555" y="657"/>
      <point x="482" y="621"/>
      <point x="482" y="557" type="curve" smooth="yes"/>
      <point x="482" y="554" type="line" smooth="yes"/>
      <point x="482" y="530"/>
      <point x="495" y="511"/>
      <point x="511" y="498" type="curve"/>
    </contour>
    <contour>
      <point x="1180" y="-251" type="line"/>
      <point x="1071" y="-271"/>
      <point x="960" y="-279"/>
      <point x="813" y="-279" type="curve" smooth="yes"/>
      <point x="404" y="-279"/>
      <point x="116" y="-141"/>
      <point x="116" y="130" type="curve" smooth="yes"/>
      <point x="116" y="141" type="line" smooth="yes"/>
      <point x="116" y="278"/>
      <point x="189" y="381"/>
      <point x="349" y="449" type="curve"/>
      <point x="402" y="473" type="line"/>
      <point x="491" y="509"/>
      <point x="625" y="536"/>
      <point x="803" y="536" type="curve" smooth="yes"/>
      <point x="1214" y="536"/>
      <point x="1381" y="406"/>
      <point x="1381" y="222" type="curve" smooth="yes"/>
      <point x="1381" y="192"/>
      <point x="1372" y="139"/>
      <point x="1360" y="110" type="curve"/>
      <point x="997" y="110" type="line"/>
      <point x="997" y="148" type="line" smooth="yes"/>
      <point x="997" y="228"/>
      <point x="938" y="263"/>
      <point x="760" y="263" type="curve" smooth="yes"/>
      <point x="587" y="263"/>
      <point x="504" y="222"/>
      <point x="504" y="146" type="curve" smooth="yes"/>
      <point x="504" y="139" type="line" smooth="yes"/>
      <point x="504" y="52"/>
      <point x="616" y="5"/>
      <point x="865" y="5" type="curve" smooth="yes"/>
      <point x="981" y="5"/>
      <point x="1102" y="14"/>
      <point x="1216" y="27" type="curve"/>
    </contour>
  </outline>
  <guideline angle="0" x="0" y="-241"/>
  <guideline angle="0" x="0" y="-223"/>
  <guideline angle="90" x="1106" y="0"/>
</glyph>
<glyph name="uni093A" format="2">
  <unicode hex="093A"/>
  <anchor x="-342" y="1214" name="_top"/>
  <outline>
    <contour>
      <point x="-514" y="1711" type="line"/>
      <point x="-174" y="1711" type="line"/>
      <point x="-174" y="1230" type="line"/>
      <point x="-514" y="1230" type="line"/>
    </contour>
  </outline>
</glyph>
<glyph name="Nukta.dv" format="2">
  <unicode hex="093C"/>
  <anchor x="-506" y="209" name="_bottom4"/>
  <outline>
    <contour>
      <point x="-506" y="-372" type="curve" smooth="yes"/>
      <point x="-641" y="-372"/>
      <point x="-716" y="-301"/>
      <point x="-716" y="-190" type="curve"/>
      <point x="-716" y="-188.453"/>
      <point x="-716" y="-184.34"/>
      <point x="-716" y="-183" type="curve"/>
      <point x="-716" y="-71"/>
      <point x="-641" y="0"/>
      <point x="-506" y="0" type="curve" smooth="yes"/>
      <point x="-371" y="0"/>
      <point x="-298" y="-73"/>
      <point x="-298" y="-183" type="curve"/>
      <point x="-298" y="-184.547"/>
      <point x="-298" y="-188.66"/>
      <point x="-298" y="-190" type="curve"/>
      <point x="-298" y="-301"/>
      <point x="-372" y="-372"/>
    </contour>
  </outline>
</glyph>
<glyph name="Avagraha.dv" format="2">
  <advance width="1408"/>
  <unicode hex="093D"/>
  <outline>
    <contour>
      <point x="98" y="422" type="line"/>
      <point x="274" y="331"/>
      <point x="476" y="271"/>
      <point x="687" y="271" type="curve" smooth="yes"/>
      <point x="840" y="271"/>
      <point x="917" y="307"/>
      <point x="917" y="368" type="curve" smooth="yes"/>
      <point x="917" y="372" type="line" smooth="yes"/>
      <point x="917" y="429"/>
      <point x="878" y="464"/>
      <point x="643" y="516" type="curve" smooth="yes"/>
      <point x="243" y="603"/>
      <point x="112" y="706"/>
      <point x="112" y="920" type="curve" smooth="yes"/>
      <point x="112" y="927" type="line" smooth="yes"/>
      <point x="112" y="1130"/>
      <point x="256" y="1266"/>
      <point x="619" y="1266" type="curve" smooth="yes"/>
      <point x="1185" y="1266" type="line"/>
      <point x="1223" y="991" type="line"/>
      <point x="643" y="991" type="line" smooth="yes"/>
      <point x="540" y="991"/>
      <point x="504" y="967"/>
      <point x="504" y="924" type="curve" smooth="yes"/>
      <point x="504" y="920" type="line" smooth="yes"/>
      <point x="504" y="867"/>
      <point x="556" y="842"/>
      <point x="803" y="792" type="curve" smooth="yes"/>
      <point x="1196" y="712"/>
      <point x="1310" y="577"/>
      <point x="1310" y="367" type="curve" smooth="yes"/>
      <point x="1310" y="358" type="line" smooth="yes"/>
      <point x="1310" y="123"/>
      <point x="1131" y="-30"/>
      <point x="716" y="-30" type="curve" smooth="yes"/>
      <point x="476" y="-30"/>
      <point x="286" y="16"/>
      <point x="125" y="94" type="curve"/>
    </contour>
  </outline>
  <guideline angle="0" x="0" y="711"/>
</glyph>
<glyph name="matraA.dv" format="2">
  <advance width="684"/>
  <unicode hex="093E"/>
  <outline>
    <contour>
      <point x="534" y="0" type="line"/>
      <point x="150" y="0" type="line"/>
      <point x="150" y="1082" type="line"/>
      <point x="534" y="1082" type="line"/>
    </contour>
    <contour>
      <point x="741" y="999" type="line"/>
      <point x="-36" y="999" type="line"/>
      <point x="-57" y="1266" type="line"/>
      <point x="720" y="1266" type="line"/>
    </contour>
  </outline>
  <guideline angle="90" x="534" y="0"/>
</glyph>
<glyph name="matraI.dv" format="2">
  <advance width="684"/>
  <unicode hex="093F"/>
  <outline>
    <contour>
      <point x="534" y="0" type="line"/>
      <point x="150" y="0" type="line"/>
      <point x="150" y="1082" type="line"/>
      <point x="534" y="1082" type="line"/>
    </contour>
    <contour>
      <point x="741" y="999" type="line"/>
      <point x="-36" y="999" type="line"/>
      <point x="-57" y="1266" type="line"/>
      <point x="720" y="1266" type="line"/>
    </contour>
    <contour>
      <point x="910.71" y="1791" type="curve" smooth="yes"/>
      <point x="1275.37" y="1791"/>
      <point x="1595.3" y="1728.16"/>
      <point x="1881" y="1617" type="curve"/>
      <point x="1928" y="1312" type="line"/>
      <point x="1922.05" y="1310" type="line"/>
      <point x="1575.75" y="1441"/>
      <point x="1253.17" y="1496"/>
      <point x="957.429" y="1496" type="curve" smooth="yes"/>
      <point x="654.17" y="1496"/>
      <point x="529" y="1418"/>
      <point x="529" y="1266" type="curve" smooth="yes"/>
      <point x="529" y="1216" type="line"/>
      <point x="151" y="1216" type="line"/>
      <point x="151" y="1278" type="line" smooth="yes"/>
      <point x="151" y="1616"/>
      <point x="397.325" y="1791"/>
    </contour>
  </outline>
</glyph>
<glyph name="matraIi.dv" format="2">
  <advance width="684"/>
  <unicode hex="0940"/>
  <outline>
    <contour>
      <point x="534" y="0" type="line"/>
      <point x="150" y="0" type="line"/>
      <point x="150" y="1082" type="line"/>
      <point x="534" y="1082" type="line"/>
    </contour>
    <contour>
      <point x="741" y="999" type="line"/>
      <point x="-36" y="999" type="line"/>
      <point x="-57" y="1266" type="line"/>
      <point x="720" y="1266" type="line"/>
    </contour>
    <contour>
      <point x="-9" y="1805" type="curve" smooth="yes"/>
      <point x="340" y="1805"/>
      <point x="523" y="1652"/>
      <point x="523" y="1346" type="curve" smooth="yes"/>
      <point x="523" y="1232" type="line"/>
      <point x="150" y="1232" type="line"/>
      <point x="150" y="1351" type="line" smooth="yes"/>
      <point x="150" y="1476"/>
      <point x="100" y="1517"/>
      <point x="-5" y="1517" type="curve" smooth="yes"/>
      <point x="-112" y="1517"/>
      <point x="-160" y="1472"/>
      <point x="-160" y="1371" type="curve" smooth="yes"/>
      <point x="-160" y="1323" type="line"/>
      <point x="-511" y="1356" type="line"/>
      <point x="-523" y="1395"/>
      <point x="-527" y="1427"/>
      <point x="-527" y="1461" type="curve" smooth="yes"/>
      <point x="-527" y="1664"/>
      <point x="-360" y="1805"/>
    </contour>
  </outline>
  <guideline angle="90" x="534" y="0"/>
</glyph>
<glyph name="matraU.dv" format="2">
  <unicode hex="0941"/>
  <anchor x="-342" y="37" name="_bottom"/>
  <outline>
    <contour>
      <point x="-854" y="-194" type="line"/>
      <point x="-754" y="-348"/>
      <point x="-637" y="-415"/>
      <point x="-436" y="-415" type="curve" smooth="yes"/>
      <point x="-315" y="-415"/>
      <point x="-263" y="-381"/>
      <point x="-263" y="-323" type="curve" smooth="yes"/>
      <point x="-263" y="-318" type="line" smooth="yes"/>
      <point x="-263" y="-266"/>
      <point x="-303" y="-228"/>
      <point x="-425" y="-228" type="curve" smooth="yes"/>
      <point x="-511" y="-228"/>
      <point x="-593" y="-248"/>
      <point x="-675" y="-276" type="curve"/>
      <point x="-639" y="-5" type="line"/>
      <point x="-555" y="23"/>
      <point x="-468" y="37"/>
      <point x="-363" y="37" type="curve" smooth="yes"/>
      <point x="-62" y="37"/>
      <point x="87" y="-115"/>
      <point x="87" y="-320" type="curve" smooth="yes"/>
      <point x="87" y="-330" type="line" smooth="yes"/>
      <point x="87" y="-548"/>
      <point x="-73" y="-685"/>
      <point x="-420" y="-685" type="curve" smooth="yes"/>
      <point x="-822" y="-685"/>
      <point x="-1076" y="-520"/>
      <point x="-1246" y="-194" type="curve"/>
    </contour>
  </outline>
</glyph>
<glyph name="matraUu.dv" format="2">
  <unicode hex="0942"/>
  <anchor x="-342" y="37" name="_bottom"/>
  <outline>
    <contour>
      <point x="-249" y="-648" type="line"/>
      <point x="-302" y="-668"/>
      <point x="-373" y="-676"/>
      <point x="-460" y="-676" type="curve" smooth="yes"/>
      <point x="-725" y="-676"/>
      <point x="-912" y="-547"/>
      <point x="-912" y="-328" type="curve" smooth="yes"/>
      <point x="-912" y="-317" type="line" smooth="yes"/>
      <point x="-912" y="-100"/>
      <point x="-732" y="41"/>
      <point x="-412" y="41" type="curve" smooth="yes"/>
      <point x="51" y="41"/>
      <point x="259" y="-248"/>
      <point x="398" y="-673" type="curve"/>
      <point x="11" y="-673" type="line"/>
      <point x="-80" y="-370"/>
      <point x="-185" y="-224"/>
      <point x="-391" y="-224" type="curve" smooth="yes"/>
      <point x="-507" y="-224"/>
      <point x="-558" y="-258"/>
      <point x="-558" y="-317" type="curve" smooth="yes"/>
      <point x="-558" y="-322" type="line" smooth="yes"/>
      <point x="-558" y="-381"/>
      <point x="-510" y="-411"/>
      <point x="-396" y="-411" type="curve" smooth="yes"/>
      <point x="-328" y="-411"/>
      <point x="-270" y="-400"/>
      <point x="-213" y="-384" type="curve"/>
    </contour>
  </outline>
</glyph>
<glyph name="matraRu.dv" format="2">
  <unicode hex="0943"/>
  <anchor x="-342" y="37" name="_bottom"/>
  <outline>
    <contour>
      <point x="-410" y="-662" type="curve" smooth="yes"/>
      <point x="-735" y="-662"/>
      <point x="-938" y="-532"/>
      <point x="-938" y="-303" type="curve" smooth="yes"/>
      <point x="-938" y="-290" type="line" smooth="yes"/>
      <point x="-938" y="-85"/>
      <point x="-776" y="35"/>
      <point x="-467" y="35" type="curve" smooth="yes"/>
      <point x="-150" y="35" type="line"/>
      <point x="-150" y="-215" type="line"/>
      <point x="-404" y="-215" type="line" smooth="yes"/>
      <point x="-540" y="-215"/>
      <point x="-582" y="-244"/>
      <point x="-582" y="-299" type="curve" smooth="yes"/>
      <point x="-582" y="-303" type="line" smooth="yes"/>
      <point x="-582" y="-358"/>
      <point x="-529" y="-390"/>
      <point x="-374" y="-390" type="curve" smooth="yes"/>
      <point x="-248" y="-390"/>
      <point x="-125" y="-363"/>
      <point x="-22" y="-319" type="curve"/>
      <point x="-48" y="-596" type="line"/>
      <point x="-144" y="-640"/>
      <point x="-263" y="-662"/>
    </contour>
  </outline>
  <guideline angle="90" x="-342" y="0"/>
  <guideline angle="0" x="0" y="35"/>
  <guideline angle="90" x="-150" y="0"/>
  <guideline angle="90" x="-968" y="0"/>
</glyph>
<glyph name="matraRuu.dv" format="2">
  <unicode hex="0944"/>
  <anchor x="-342" y="37" name="_bottom"/>
  <outline>
    <contour>
      <point x="-150" y="36" type="line"/>
      <point x="-150" y="-196" type="line"/>
      <point x="-434" y="-196" type="line" smooth="yes"/>
      <point x="-569" y="-196"/>
      <point x="-609" y="-216"/>
      <point x="-609" y="-255" type="curve" smooth="yes"/>
      <point x="-609" y="-258" type="line" smooth="yes"/>
      <point x="-609" y="-299"/>
      <point x="-566" y="-319"/>
      <point x="-415" y="-319" type="curve" smooth="yes"/>
      <point x="-289" y="-319"/>
      <point x="-175" y="-303"/>
      <point x="-66" y="-267" type="curve"/>
      <point x="-87" y="-506" type="line"/>
      <point x="-188" y="-540"/>
      <point x="-299" y="-554"/>
      <point x="-418" y="-554" type="curve" smooth="yes"/>
      <point x="-735" y="-554"/>
      <point x="-933" y="-456"/>
      <point x="-933" y="-258" type="curve" smooth="yes"/>
      <point x="-933" y="-251" type="line" smooth="yes"/>
      <point x="-933" y="-68"/>
      <point x="-787.006" y="36"/>
      <point x="-477" y="36" type="curve" smooth="yes"/>
    </contour>
    <contour>
      <point x="-479" y="-548" type="line"/>
      <point x="-566" y="-552"/>
      <point x="-596" y="-573"/>
      <point x="-596" y="-607" type="curve" smooth="yes"/>
      <point x="-596" y="-612" type="line" smooth="yes"/>
      <point x="-596" y="-648"/>
      <point x="-546" y="-675"/>
      <point x="-402" y="-675" type="curve" smooth="yes"/>
      <point x="-274" y="-675"/>
      <point x="-177" y="-658"/>
      <point x="-61" y="-619" type="curve"/>
      <point x="-80" y="-860" type="line"/>
      <point x="-173" y="-896"/>
      <point x="-280" y="-915"/>
      <point x="-424" y="-915" type="curve" smooth="yes"/>
      <point x="-757" y="-915"/>
      <point x="-920" y="-817"/>
      <point x="-920" y="-669" type="curve" smooth="yes"/>
      <point x="-920" y="-662" type="line" smooth="yes"/>
      <point x="-920" y="-580"/>
      <point x="-865" y="-527"/>
      <point x="-751" y="-511" type="curve"/>
      <point x="-751" y="-459" type="line"/>
    </contour>
  </outline>
</glyph>
<glyph name="matraShortE.dv" format="2">
  <unicode hex="0946"/>
  <anchor x="-342" y="1214" name="_top"/>
  <outline>
    <contour>
      <point x="-1063" y="1824" type="curve" smooth="yes"/>
      <point x="-1063.01" y="1714"/>
      <point x="-1016.95" y="1680"/>
      <point x="-848.764" y="1680" type="curve" smooth="yes"/>
      <point x="-625.512" y="1680" type="line" smooth="yes"/>
      <point x="-292.137" y="1680"/>
      <point x="-171" y="1543"/>
      <point x="-171" y="1290" type="curve" smooth="yes"/>
      <point x="-171" y="1214" type="line"/>
      <point x="-511" y="1214" type="line"/>
      <point x="-511" y="1271" type="line" smooth="yes"/>
      <point x="-511" y="1360"/>
      <point x="-540" y="1397"/>
      <point x="-659" y="1397" type="curve" smooth="yes"/>
      <point x="-902" y="1397" type="line" smooth="yes"/>
      <point x="-1245" y="1397"/>
      <point x="-1412" y="1516"/>
      <point x="-1412" y="1723" type="curve" smooth="yes"/>
      <point x="-1412" y="1767"/>
      <point x="-1405" y="1809"/>
      <point x="-1391" y="1848" type="curve"/>
      <point x="-1063" y="1848" type="line"/>
      <point x="-1063.03" y="1844.06"/>
      <point x="-1063" y="1828.04"/>
    </contour>
  </outline>
</glyph>
<glyph name="matraE.dv" format="2">
  <unicode hex="0947"/>
  <anchor x="-342" y="1214" name="_top"/>
  <outline>
    <contour>
      <point x="-1339" y="1798" type="line"/>
      <point x="-833" y="1798" type="line"/>
      <point x="-704.693" y="1690.21"/>
      <point x="-310.477" y="1359.05"/>
      <point x="-189" y="1257" type="curve"/>
      <point x="-189" y="1214" type="line"/>
      <point x="-555" y="1214" type="line"/>
      <point x="-555" y="1278" type="line"/>
      <point x="-813" y="1344"/>
      <point x="-913" y="1417"/>
      <point x="-1125" y="1586" type="curve" smooth="yes"/>
      <point x="-1339" y="1757" type="line"/>
    </contour>
  </outline>
</glyph>
<glyph name="matraAi.dv" format="2">
  <unicode hex="0948"/>
  <anchor x="-342" y="1214" name="_top"/>
  <outline>
    <contour>
      <point x="-975" y="1671" type="line"/>
      <point x="-507" y="1420" type="line"/>
      <point x="-502" y="1429" type="line"/>
      <point x="-641" y="1534"/>
      <point x="-719" y="1605"/>
      <point x="-810" y="1734" type="curve" smooth="yes"/>
      <point x="-926" y="1897" type="line"/>
      <point x="-926" y="1926" type="line"/>
      <point x="-500" y="1926" type="line"/>
      <point x="-183" y="1251" type="line"/>
      <point x="-183" y="1214" type="line"/>
      <point x="-546" y="1214" type="line"/>
      <point x="-546" y="1278" type="line"/>
      <point x="-875" y="1321"/>
      <point x="-1004" y="1365"/>
      <point x="-1200" y="1476" type="curve" smooth="yes"/>
      <point x="-1472" y="1629" type="line"/>
      <point x="-1472" y="1671" type="line"/>
    </contour>
  </outline>
  <guideline angle="0" x="0" y="1214"/>
  <guideline angle="90" x="-342" y="0"/>
</glyph>
<glyph name="matraAChandra.dv" format="2">
  <advance width="684"/>
  <unicode hex="0949"/>
  <outline>
    <contour>
      <point x="534" y="0" type="line"/>
      <point x="150" y="0" type="line"/>
      <point x="150" y="1082" type="line"/>
      <point x="534" y="1082" type="line"/>
    </contour>
    <contour>
      <point x="741" y="999" type="line"/>
      <point x="-36" y="999" type="line"/>
      <point x="-57" y="1266" type="line"/>
      <point x="720" y="1266" type="line"/>
    </contour>
    <contour>
      <point x="498" y="1794" type="line"/>
      <point x="501" y="1770"/>
      <point x="501" y="1751"/>
      <point x="501" y="1741" type="curve" smooth="yes"/>
      <point x="501" y="1497"/>
      <point x="338" y="1371"/>
      <point x="8" y="1371" type="curve" smooth="yes"/>
      <point x="-321" y="1371"/>
      <point x="-486" y="1497"/>
      <point x="-486" y="1741" type="curve" smooth="yes"/>
      <point x="-486" y="1751"/>
      <point x="-486" y="1769"/>
      <point x="-483" y="1794" type="curve"/>
      <point x="-170" y="1794" type="line"/>
      <point x="-170" y="1787.99"/>
      <point x="-170" y="1771.5"/>
      <point x="-170" y="1768" type="curve" smooth="yes"/>
      <point x="-170" y="1666"/>
      <point x="-114" y="1616"/>
      <point x="8" y="1616" type="curve" smooth="yes"/>
      <point x="131" y="1616"/>
      <point x="186" y="1668"/>
      <point x="186" y="1768" type="curve" smooth="yes"/>
      <point x="186" y="1771.83"/>
      <point x="186" y="1789.33"/>
      <point x="186" y="1794" type="curve"/>
    </contour>
  </outline>
</glyph>
<glyph name="matraShortO.dv" format="2">
  <advance width="684"/>
  <unicode hex="094A"/>
  <outline>
    <contour>
      <point x="-382" y="1824" type="curve" smooth="yes"/>
      <point x="-382.015" y="1714"/>
      <point x="-335.954" y="1680"/>
      <point x="-167.764" y="1680" type="curve" smooth="yes"/>
      <point x="55.4876" y="1680" type="line" smooth="yes"/>
      <point x="388.863" y="1680"/>
      <point x="510" y="1543"/>
      <point x="510" y="1290" type="curve" smooth="yes"/>
      <point x="510" y="1214" type="line"/>
      <point x="170" y="1214" type="line"/>
      <point x="170" y="1271" type="line" smooth="yes"/>
      <point x="170" y="1360"/>
      <point x="141" y="1397"/>
      <point x="22" y="1397" type="curve" smooth="yes"/>
      <point x="-221" y="1397" type="line" smooth="yes"/>
      <point x="-564" y="1397"/>
      <point x="-731" y="1516"/>
      <point x="-731" y="1723" type="curve" smooth="yes"/>
      <point x="-731" y="1767"/>
      <point x="-724" y="1809"/>
      <point x="-710" y="1848" type="curve"/>
      <point x="-382" y="1848" type="line"/>
      <point x="-382.033" y="1844.06"/>
      <point x="-382" y="1828.04"/>
    </contour>
    <contour>
      <point x="534" y="0" type="line"/>
      <point x="150" y="0" type="line"/>
      <point x="150" y="1082" type="line"/>
      <point x="534" y="1082" type="line"/>
    </contour>
    <contour>
      <point x="741" y="999" type="line"/>
      <point x="-36" y="999" type="line"/>
      <point x="-57" y="1266" type="line"/>
      <point x="720" y="1266" type="line"/>
    </contour>
  </outline>
</glyph>
<glyph name="matraAu.dv" format="2">
  <advance width="684"/>
  <unicode hex="094C"/>
  <outline>
    <contour>
      <point x="534" y="0" type="line"/>
      <point x="150" y="0" type="line"/>
      <point x="150" y="1082" type="line"/>
      <point x="534" y="1082" type="line"/>
    </contour>
    <contour>
      <point x="741" y="999" type="line"/>
      <point x="-36" y="999" type="line"/>
      <point x="-57" y="1266" type="line"/>
      <point x="720" y="1266" type="line"/>
    </contour>
    <contour>
      <point x="-285" y="1671" type="line"/>
      <point x="183" y="1420" type="line"/>
      <point x="188" y="1429" type="line"/>
      <point x="49" y="1534"/>
      <point x="-29" y="1605"/>
      <point x="-120" y="1734" type="curve" smooth="yes"/>
      <point x="-236" y="1897" type="line"/>
      <point x="-236" y="1926" type="line"/>
      <point x="190" y="1926" type="line"/>
      <point x="507" y="1251" type="line"/>
      <point x="507" y="1214" type="line"/>
      <point x="144" y="1214" type="line"/>
      <point x="144" y="1278" type="line"/>
      <point x="-185" y="1321"/>
      <point x="-314" y="1365"/>
      <point x="-510" y="1476" type="curve" smooth="yes"/>
      <point x="-782" y="1629" type="line"/>
      <point x="-782" y="1671" type="line"/>
    </contour>
  </outline>
</glyph>
<glyph name="Halant.dv" format="2">
  <unicode hex="094D"/>
  <anchor x="-342" y="37" name="_bottom2"/>
  <outline>
    <contour>
      <point x="-577" y="-146" type="line"/>
      <point x="-150" y="-146" type="line"/>
      <point x="266" y="-607" type="line"/>
      <point x="266" y="-621" type="line"/>
      <point x="-107" y="-621" type="line"/>
      <point x="-577" y="-182" type="line"/>
    </contour>
  </outline>
</glyph>
<glyph name="uni094E" format="2">
  <advance width="684"/>
  <unicode hex="094E"/>
  <outline>
    <contour>
      <point x="534" y="1082" type="line"/>
      <point x="534" y="0" type="line"/>
      <point x="150" y="0" type="line"/>
      <point x="150" y="1082" type="line"/>
    </contour>
    <contour>
      <point x="150" y="999" type="line"/>
      <point x="150" y="1266" type="line"/>
      <point x="719" y="1266" type="line"/>
      <point x="741" y="999" type="line"/>
    </contour>
  </outline>
</glyph>
<glyph name="uni094F" format="2">
  <advance width="684"/>
  <unicode hex="094F"/>
  <outline>
    <contour>
      <point x="-696" y="1618" type="curve" smooth="yes"/>
      <point x="-696" y="1659"/>
      <point x="-688" y="1695"/>
      <point x="-673" y="1727" type="curve"/>
      <point x="-384" y="1727" type="line"/>
      <point x="-384" y="1708" type="line" smooth="yes"/>
      <point x="-384" y="1623"/>
      <point x="-341.314" y="1589.11"/>
      <point x="-192.1" y="1575" type="curve" smooth="yes"/>
      <point x="-44" y="1561" type="line" smooth="yes"/>
      <point x="121.242" y="1545.38"/>
      <point x="205" y="1501"/>
      <point x="258" y="1426" type="curve"/>
      <point x="265" y="1429" type="line"/>
      <point x="245" y="1515"/>
      <point x="207.801" y="1566.95"/>
      <point x="46" y="1623" type="curve" smooth="yes"/>
      <point x="-107" y="1676" type="line" smooth="yes"/>
      <point x="-296.81" y="1741.75"/>
      <point x="-361" y="1818"/>
      <point x="-361" y="1944" type="curve" smooth="yes"/>
      <point x="-361" y="1982"/>
      <point x="-353" y="2018"/>
      <point x="-340" y="2042" type="curve"/>
      <point x="-30" y="2042" type="line"/>
      <point x="-30" y="2022" type="line" smooth="yes"/>
      <point x="-30" y="1947"/>
      <point x="-12.3001" y="1904.43"/>
      <point x="108" y="1858" type="curve" smooth="yes"/>
      <point x="222" y="1814" type="line" smooth="yes"/>
      <point x="470.025" y="1718.27"/>
      <point x="514" y="1578"/>
      <point x="514" y="1326" type="curve" smooth="yes"/>
      <point x="514" y="1230" type="line"/>
      <point x="157" y="1230" type="line"/>
      <point x="157" y="1242" type="line" smooth="yes"/>
      <point x="157" y="1296"/>
      <point x="132.997" y="1324.12"/>
      <point x="-53.9791" y="1335" type="curve" smooth="yes"/>
      <point x="-243.03" y="1346" type="line" smooth="yes"/>
      <point x="-564.721" y="1364.72"/>
      <point x="-696" y="1448"/>
    </contour>
    <contour>
      <point x="534" y="0" type="line"/>
      <point x="150" y="0" type="line"/>
      <point x="150" y="1082" type="line"/>
      <point x="534" y="1082" type="line"/>
    </contour>
    <contour>
      <point x="741" y="999" type="line"/>
      <point x="-36" y="999" type="line"/>
      <point x="-57" y="1266" type="line"/>
      <point x="720" y="1266" type="line"/>
    </contour>
  </outline>
</glyph>
<glyph name="Om.dv" format="2">
  <advance width="2364"/>
  <unicode hex="0950"/>
  <outline>
    <contour>
      <point x="1618" y="1417" type="curve" smooth="yes"/>
      <point x="1508" y="1417"/>
      <point x="1463" y="1479"/>
      <point x="1463" y="1564" type="curve" smooth="yes"/>
      <point x="1463" y="1571" type="line" smooth="yes"/>
      <point x="1463" y="1657"/>
      <point x="1508" y="1719"/>
      <point x="1618" y="1719" type="curve" smooth="yes"/>
      <point x="1728" y="1719"/>
      <point x="1773" y="1657"/>
      <point x="1773" y="1571" type="curve" smooth="yes"/>
      <point x="1773" y="1564" type="line" smooth="yes"/>
      <point x="1773" y="1479"/>
      <point x="1728" y="1417"/>
    </contour>
    <contour>
      <point x="2122" y="1538" type="line"/>
      <point x="2125" y="1507"/>
      <point x="2125" y="1493"/>
      <point x="2125" y="1481" type="curve" smooth="yes"/>
      <point x="2125" y="1246"/>
      <point x="1963" y="1118"/>
      <point x="1616" y="1118" type="curve" smooth="yes"/>
      <point x="1276" y="1118"/>
      <point x="1105" y="1246"/>
      <point x="1105" y="1481" type="curve" smooth="yes"/>
      <point x="1105" y="1490"/>
      <point x="1105" y="1506"/>
      <point x="1109" y="1538" type="curve"/>
      <point x="1385" y="1538" type="line"/>
      <point x="1385" y="1514.75" type="line" smooth="yes"/>
      <point x="1385" y="1409.63"/>
      <point x="1462.17" y="1351"/>
      <point x="1615.49" y="1351" type="curve" smooth="yes"/>
      <point x="1776.94" y="1351"/>
      <point x="1847" y="1413.67"/>
      <point x="1847" y="1514.75" type="curve" smooth="yes"/>
      <point x="1847" y="1538" type="line"/>
    </contour>
    <contour>
      <point x="1502" y="390" type="line"/>
      <point x="1550" y="373"/>
      <point x="1608" y="363"/>
      <point x="1687" y="363" type="curve" smooth="yes"/>
      <point x="1812" y="363"/>
      <point x="1894" y="425"/>
      <point x="1894" y="557" type="curve" smooth="yes"/>
      <point x="1894" y="562" type="line" smooth="yes"/>
      <point x="1894" y="675"/>
      <point x="1846" y="732"/>
      <point x="1763" y="732" type="curve" smooth="yes"/>
      <point x="1684" y="732"/>
      <point x="1647" y="698"/>
      <point x="1593" y="597" type="curve" smooth="yes"/>
      <point x="1570" y="554" type="line" smooth="yes"/>
      <point x="1490" y="404"/>
      <point x="1410" y="368"/>
      <point x="1262" y="368" type="curve" smooth="yes"/>
      <point x="1146" y="368"/>
      <point x="1066" y="408"/>
      <point x="993" y="465" type="curve"/>
      <point x="872" y="628" type="line"/>
      <point x="942" y="612"/>
      <point x="995" y="605"/>
      <point x="1047" y="605" type="curve" smooth="yes"/>
      <point x="1184" y="605"/>
      <point x="1222" y="627"/>
      <point x="1280" y="732" type="curve" smooth="yes"/>
      <point x="1301" y="770" type="line" smooth="yes"/>
      <point x="1395" y="940"/>
      <point x="1530" y="1029"/>
      <point x="1771" y="1029" type="curve" smooth="yes"/>
      <point x="2104" y="1029"/>
      <point x="2278" y="835"/>
      <point x="2278" y="548" type="curve" smooth="yes"/>
      <point x="2278" y="532" type="line" smooth="yes"/>
      <point x="2278" y="240"/>
      <point x="2091" y="66"/>
      <point x="1773" y="66" type="curve" smooth="yes"/>
      <point x="1671" y="66"/>
      <point x="1593" y="78"/>
      <point x="1533" y="101" type="curve"/>
    </contour>
    <contour>
      <point x="66" y="383" type="line"/>
      <point x="203" y="326"/>
      <point x="377" y="288"/>
      <point x="541" y="288" type="curve" smooth="yes"/>
      <point x="760" y="288"/>
      <point x="824" y="328"/>
      <point x="824" y="393" type="curve"/>
      <point x="824" y="395"/>
      <point x="824" y="397"/>
      <point x="824" y="399" type="curve"/>
      <point x="824" y="465"/>
      <point x="758" y="500"/>
      <point x="518" y="507" type="curve" smooth="yes"/>
      <point x="285" y="514" type="line"/>
      <point x="285" y="773" type="line"/>
      <point x="498" y="778" type="line" smooth="yes"/>
      <point x="757" y="785"/>
      <point x="812" y="821"/>
      <point x="812" y="890" type="curve"/>
      <point x="812" y="890"/>
      <point x="812" y="894"/>
      <point x="812" y="894" type="curve"/>
      <point x="812" y="954"/>
      <point x="754" y="993"/>
      <point x="566" y="993" type="curve" smooth="yes"/>
      <point x="406" y="993"/>
      <point x="253" y="963"/>
      <point x="110" y="908" type="curve"/>
      <point x="137" y="1207" type="line"/>
      <point x="262" y="1253"/>
      <point x="427" y="1283"/>
      <point x="611" y="1283" type="curve" smooth="yes"/>
      <point x="1022" y="1283"/>
      <point x="1193" y="1118"/>
      <point x="1193" y="929" type="curve"/>
      <point x="1193" y="927"/>
      <point x="1193" y="920"/>
      <point x="1193" y="918" type="curve"/>
      <point x="1193" y="774"/>
      <point x="1096" y="651"/>
      <point x="840" y="643" type="curve"/>
      <point x="840" y="634" type="line"/>
      <point x="1104" y="612"/>
      <point x="1205" y="472"/>
      <point x="1205" y="333" type="curve"/>
      <point x="1205" y="331"/>
      <point x="1205" y="328"/>
      <point x="1205" y="326" type="curve"/>
      <point x="1205" y="151"/>
      <point x="1057" y="-2"/>
      <point x="612" y="-2" type="curve" smooth="yes"/>
      <point x="406" y="-2"/>
      <point x="231" y="25"/>
      <point x="89" y="82" type="curve"/>
    </contour>
  </outline>
</glyph>
<glyph name="Udatta.dv" format="2">
  <unicode hex="0951"/>
  <anchor x="-342" y="1214" name="_top"/>
  <outline>
    <contour>
      <point x="-506" y="1438" type="line"/>
      <point x="-506" y="1976" type="line"/>
      <point x="-185" y="1976" type="line"/>
      <point x="-185" y="1438" type="line"/>
    </contour>
  </outline>
  <guideline angle="90" x="-342" y="0"/>
  <guideline angle="0" x="0" y="1214"/>
</glyph>
<glyph name="Anudatta.dv" format="2">
  <unicode hex="0952"/>
  <anchor x="-150" y="37" name="_bottom3"/>
  <outline>
    <contour>
      <point x="-1280" y="-509" type="line"/>
      <point x="-1301" y="-231" type="line"/>
      <point x="-150" y="-231" type="line"/>
      <point x="-128" y="-509" type="line"/>
    </contour>
  </outline>
</glyph>
<glyph name="uni0953" format="2">
  <unicode hex="0953"/>
  <anchor x="-342" y="1214" name="_top"/>
  <outline>
    <contour>
      <point x="-566" y="1370" type="line"/>
      <point x="-959" y="1775" type="line"/>
      <point x="-959" y="1796" type="line"/>
      <point x="-509" y="1796" type="line"/>
      <point x="-198" y="1384" type="line"/>
      <point x="-198" y="1370" type="line"/>
    </contour>
  </outline>
</glyph>
<glyph name="uni0954" format="2">
  <unicode hex="0954"/>
  <anchor x="-342" y="1214" name="_top"/>
  <outline>
    <contour>
      <point x="-142" y="1370" type="line"/>
      <point x="-511" y="1370" type="line"/>
      <point x="-511" y="1384" type="line"/>
      <point x="-199" y="1797" type="line"/>
      <point x="251" y="1797" type="line"/>
      <point x="251" y="1776" type="line"/>
    </contour>
  </outline>
</glyph>
<glyph name="uni0955" format="2">
  <unicode hex="0955"/>
  <anchor x="-342" y="1214" name="_top"/>
  <outline>
    <contour>
      <point x="-167" y="2003" type="line"/>
      <point x="91" y="2003" type="line"/>
      <point x="95" y="1976"/>
      <point x="94" y="1961"/>
      <point x="94" y="1949" type="curve" smooth="yes"/>
      <point x="94" y="1746"/>
      <point x="-41" y="1645"/>
      <point x="-349" y="1645" type="curve" smooth="yes"/>
      <point x="-657" y="1645"/>
      <point x="-792" y="1746"/>
      <point x="-792" y="1949" type="curve" smooth="yes"/>
      <point x="-792" y="1960"/>
      <point x="-793" y="1975"/>
      <point x="-789" y="2003" type="curve"/>
      <point x="-530" y="2003" type="line"/>
      <point x="-530" y="1983" type="line" smooth="yes"/>
      <point x="-530" y="1890"/>
      <point x="-468" y="1857"/>
      <point x="-349" y="1857" type="curve" smooth="yes"/>
      <point x="-230" y="1857"/>
      <point x="-167" y="1890"/>
      <point x="-167" y="1983" type="curve" smooth="yes"/>
    </contour>
    <contour>
      <point x="-796" y="1353" type="line"/>
      <point x="-796" y="1572" type="line"/>
      <point x="85" y="1572" type="line"/>
      <point x="85" y="1353" type="line"/>
    </contour>
  </outline>
  <guideline angle="90" x="-342" y="0"/>
  <guideline angle="0" x="0" y="1214"/>
</glyph>
<glyph name="uni0956" format="2">
  <unicode hex="0956"/>
  <anchor x="-342" y="55" name="_bottom5"/>
  <outline>
    <contour>
      <point x="-342" y="-514" type="curve" smooth="yes"/>
      <point x="-571.634" y="-514"/>
      <point x="-750.672" y="-475.286"/>
      <point x="-875" y="-415" type="curve"/>
      <point x="-887" y="-117" type="line"/>
      <point x="-735" y="-187"/>
      <point x="-549" y="-228"/>
      <point x="-342" y="-228" type="curve" smooth="yes"/>
      <point x="-135" y="-228"/>
      <point x="51" y="-187"/>
      <point x="203" y="-117" type="curve"/>
      <point x="191" y="-415" type="line"/>
      <point x="67.6716" y="-474.286"/>
      <point x="-112.366" y="-514"/>
    </contour>
  </outline>
</glyph>
<glyph name="KaNukta.dv" format="2">
  <advance width="2150"/>
  <unicode hex="0958"/>
  <anchor x="1080" y="37" name="bottom"/>
  <anchor x="1076" y="37" name="bottom2"/>
  <anchor x="1629" y="37" name="bottom3"/>
  <anchor x="1080" y="55" name="bottom5"/>
  <anchor x="1080" y="1214" name="top"/>
  <outline>
    <contour>
      <point x="-36" y="999" type="line"/>
      <point x="-57" y="1266" type="line"/>
      <point x="2184" y="1266" type="line"/>
      <point x="2205" y="999" type="line"/>
    </contour>
    <contour>
      <point x="84" y="488" type="curve" smooth="yes"/>
      <point x="84" y="495" type="line" smooth="yes"/>
      <point x="84" y="748"/>
      <point x="249" y="894"/>
      <point x="552" y="894" type="curve" smooth="yes"/>
      <point x="635" y="894"/>
      <point x="701" y="885"/>
      <point x="758" y="869" type="curve"/>
      <point x="778" y="600" type="line"/>
      <point x="746" y="605"/>
      <point x="712" y="609"/>
      <point x="666" y="609" type="curve" smooth="yes"/>
      <point x="527" y="609"/>
      <point x="472" y="571"/>
      <point x="472" y="498" type="curve" smooth="yes"/>
      <point x="472" y="491" type="line" smooth="yes"/>
      <point x="472" y="415"/>
      <point x="527" y="383"/>
      <point x="667" y="383" type="curve" smooth="yes"/>
      <point x="796" y="383"/>
      <point x="870" y="429"/>
      <point x="894" y="502" type="curve"/>
      <point x="910" y="294" type="line"/>
      <point x="874" y="294" type="line"/>
      <point x="838" y="167"/>
      <point x="724" y="89"/>
      <point x="529" y="89" type="curve" smooth="yes"/>
      <point x="253" y="89"/>
      <point x="84" y="240"/>
    </contour>
    <contour>
      <point x="2072" y="491" type="curve" smooth="yes"/>
      <point x="2072" y="484" type="line" smooth="yes"/>
      <point x="2072" y="237"/>
      <point x="1919" y="89"/>
      <point x="1611" y="89" type="curve" smooth="yes"/>
      <point x="1522" y="89"/>
      <point x="1460" y="96"/>
      <point x="1406" y="110" type="curve"/>
      <point x="1385" y="383" type="line"/>
      <point x="1422" y="377"/>
      <point x="1451" y="374"/>
      <point x="1492" y="374" type="curve" smooth="yes"/>
      <point x="1632" y="374"/>
      <point x="1684" y="411"/>
      <point x="1684" y="484" type="curve" smooth="yes"/>
      <point x="1684" y="491" type="line" smooth="yes"/>
      <point x="1684" y="564"/>
      <point x="1638" y="600"/>
      <point x="1506" y="600" type="curve" smooth="yes"/>
      <point x="1371" y="600"/>
      <point x="1290" y="548"/>
      <point x="1267" y="465" type="curve"/>
      <point x="1251" y="673" type="line"/>
      <point x="1287" y="673" type="line"/>
      <point x="1328" y="810"/>
      <point x="1445" y="894"/>
      <point x="1652" y="894" type="curve" smooth="yes"/>
      <point x="1924" y="894"/>
      <point x="2072" y="726"/>
    </contour>
    <contour>
      <point x="1272" y="1082" type="line"/>
      <point x="1272" y="0" type="line"/>
      <point x="888" y="0" type="line"/>
      <point x="888" y="1082" type="line"/>
    </contour>
    <contour>
      <point x="452" y="-354" type="curve" smooth="yes"/>
      <point x="317" y="-354"/>
      <point x="242" y="-283"/>
      <point x="242" y="-172" type="curve"/>
      <point x="242" y="-170.453"/>
      <point x="242" y="-166.34"/>
      <point x="242" y="-165" type="curve"/>
      <point x="242" y="-53"/>
      <point x="317" y="18"/>
      <point x="452" y="18" type="curve" smooth="yes"/>
      <point x="587" y="18"/>
      <point x="660" y="-55"/>
      <point x="660" y="-165" type="curve"/>
      <point x="660" y="-166.547"/>
      <point x="660" y="-170.66"/>
      <point x="660" y="-172" type="curve"/>
      <point x="660" y="-283"/>
      <point x="586" y="-354"/>
    </contour>
  </outline>
  <guideline angle="90" x="129" y="0"/>
  <guideline angle="90" x="1080" y="0"/>
  <guideline angle="0" x="0" y="37"/>
  <guideline angle="0" x="0" y="1214"/>
  <guideline angle="90" x="1076" y="0"/>
  <guideline angle="90" x="1272" y="0"/>
</glyph>
<glyph name="KhaNukta.dv" format="2">
  <advance width="2136"/>
  <unicode hex="0959"/>
  <anchor x="1794" y="37" name="bottom"/>
  <anchor x="1790" y="37" name="bottom2"/>
  <anchor x="1986" y="37" name="bottom3"/>
  <anchor x="1794" y="55" name="bottom5"/>
  <anchor x="1794" y="1214" name="top"/>
  <outline>
    <contour>
      <point x="1986" y="1082" type="line"/>
      <point x="1986" y="0" type="line"/>
      <point x="1602" y="0" type="line"/>
      <point x="1602" y="1082" type="line"/>
    </contour>
    <contour>
      <point x="1529" y="999" type="line"/>
      <point x="1508" y="1266" type="line"/>
      <point x="2172" y="1266" type="line"/>
      <point x="2193" y="999" type="line"/>
    </contour>
    <contour>
      <point x="-36" y="999" type="line"/>
      <point x="-57" y="1266" type="line"/>
      <point x="2172" y="1266" type="line"/>
      <point x="2193" y="999" type="line"/>
    </contour>
    <contour>
      <point x="869" y="796" type="curve" smooth="yes"/>
      <point x="869" y="787" type="line" smooth="yes"/>
      <point x="869" y="570"/>
      <point x="697.997" y="433.156"/>
      <point x="308" y="426" type="curve" smooth="yes"/>
      <point x="199" y="424" type="line"/>
      <point x="75" y="678" type="line"/>
      <point x="151" y="678" type="line" smooth="yes"/>
      <point x="392" y="678"/>
      <point x="484" y="742"/>
      <point x="484" y="854" type="curve" smooth="yes"/>
      <point x="484" y="860" type="line" smooth="yes"/>
      <point x="484" y="942"/>
      <point x="438" y="1000"/>
      <point x="342" y="1050" type="curve"/>
      <point x="746" y="1050" type="line"/>
      <point x="829" y="983"/>
      <point x="869" y="901"/>
    </contour>
    <contour>
      <point x="1450" y="-5" type="line"/>
      <point x="1358.41" y="-35"/>
      <point x="1230.73" y="-50"/>
      <point x="1114" y="-50" type="curve" smooth="yes"/>
      <point x="667.421" y="-50"/>
      <point x="391.055" y="92.5758"/>
      <point x="245" y="336" type="curve" smooth="yes"/>
      <point x="224" y="371" type="line"/>
      <point x="75" y="392" type="line"/>
      <point x="75" y="678" type="line"/>
      <point x="520" y="479" type="line"/>
      <point x="554" y="443" type="line" smooth="yes"/>
      <point x="664.434" y="326.07"/>
      <point x="862.125" y="235"/>
      <point x="1191" y="235" type="curve" smooth="yes"/>
      <point x="1361.33" y="235"/>
      <point x="1521.18" y="267"/>
      <point x="1625" y="320" type="curve"/>
      <point x="1625" y="269" type="line"/>
    </contour>
    <contour>
      <point x="1323" y="322" type="curve" smooth="yes"/>
      <point x="1080" y="322"/>
      <point x="942" y="434"/>
      <point x="942" y="627" type="curve" smooth="yes"/>
      <point x="942" y="630" type="line" smooth="yes"/>
      <point x="942" y="826"/>
      <point x="1077" y="933"/>
      <point x="1328" y="933" type="curve" smooth="yes"/>
      <point x="1401" y="933"/>
      <point x="1447" y="929"/>
      <point x="1508" y="917" type="curve"/>
      <point x="1529" y="696" type="line"/>
      <point x="1495" y="700"/>
      <point x="1467" y="701"/>
      <point x="1429" y="701" type="curve" smooth="yes"/>
      <point x="1328" y="701"/>
      <point x="1290" y="680"/>
      <point x="1290" y="634" type="curve"/>
      <point x="1290" y="632" type="line"/>
      <point x="1290" y="584"/>
      <point x="1333" y="561"/>
      <point x="1435" y="561" type="curve" smooth="yes"/>
      <point x="1529" y="561"/>
      <point x="1584" y="580"/>
      <point x="1613" y="611" type="curve"/>
      <point x="1625" y="413" type="line"/>
      <point x="1595" y="413" type="line"/>
      <point x="1547" y="354"/>
      <point x="1456" y="322"/>
    </contour>
    <contour>
      <point x="267" y="-279" type="curve" smooth="yes"/>
      <point x="132" y="-279"/>
      <point x="57" y="-208"/>
      <point x="57" y="-97" type="curve"/>
      <point x="57" y="-95.4533"/>
      <point x="57" y="-91.3398"/>
      <point x="57" y="-90" type="curve"/>
      <point x="57" y="22"/>
      <point x="132" y="93"/>
      <point x="267" y="93" type="curve" smooth="yes"/>
      <point x="402" y="93"/>
      <point x="475" y="20"/>
      <point x="475" y="-90" type="curve"/>
      <point x="475" y="-91.5467"/>
      <point x="475" y="-95.6602"/>
      <point x="475" y="-97" type="curve"/>
      <point x="475" y="-208"/>
      <point x="401" y="-279"/>
    </contour>
  </outline>
  <guideline angle="0" x="0" y="-40"/>
  <guideline angle="90" x="53" y="0"/>
  <guideline angle="90" x="-206" y="0"/>
  <guideline angle="90" x="869" y="0"/>
  <guideline angle="90" x="154" y="0"/>
  <guideline angle="90" x="1794" y="0"/>
  <guideline angle="0" x="0" y="37"/>
  <guideline angle="0" x="0" y="1214"/>
  <guideline angle="90" x="1790" y="0"/>
  <guideline angle="90" x="1986" y="0"/>
</glyph>
<glyph name="GaNukta.dv" format="2">
  <advance width="1597"/>
  <unicode hex="095A"/>
  <anchor x="1255" y="37" name="bottom"/>
  <anchor x="1251" y="37" name="bottom2"/>
  <anchor x="1447" y="37" name="bottom3"/>
  <anchor x="1255" y="55" name="bottom5"/>
  <anchor x="1255" y="1214" name="top"/>
  <outline>
    <contour>
      <point x="1554" y="999" type="line"/>
      <point x="-36" y="999" type="line"/>
      <point x="-57" y="1266" type="line"/>
      <point x="1533" y="1266" type="line"/>
    </contour>
    <contour>
      <point x="249" y="1031" type="curve"/>
      <point x="666" y="1031" type="line"/>
      <point x="755" y="954.943"/>
      <point x="797" y="847.349"/>
      <point x="797" y="731.408" type="curve" smooth="yes"/>
      <point x="797" y="720.173" type="line" smooth="yes"/>
      <point x="797" y="456.279"/>
      <point x="613.895" y="297"/>
      <point x="270" y="297" type="curve" smooth="yes"/>
      <point x="199.077" y="297"/>
      <point x="134.491" y="304.313"/>
      <point x="79" y="321" type="curve"/>
      <point x="52" y="626" type="line"/>
      <point x="82.0681" y="621.209"/>
      <point x="117.176" y="618"/>
      <point x="149" y="618" type="curve" smooth="yes"/>
      <point x="324.644" y="618"/>
      <point x="406" y="674.794"/>
      <point x="406" y="790.158" type="curve" smooth="yes"/>
      <point x="406" y="799.97" type="line" smooth="yes"/>
      <point x="406" y="890.412"/>
      <point x="358" y="969.213"/>
    </contour>
    <contour>
      <point x="1447" y="1082" type="line"/>
      <point x="1447" y="0" type="line"/>
      <point x="1063" y="0" type="line"/>
      <point x="1063" y="1082" type="line"/>
    </contour>
    <contour>
      <point x="990" y="999" type="line"/>
      <point x="969" y="1266" type="line"/>
      <point x="1633" y="1266" type="line"/>
      <point x="1654" y="999" type="line"/>
    </contour>
    <contour>
      <point x="388" y="-141" type="curve" smooth="yes"/>
      <point x="253" y="-141"/>
      <point x="178" y="-70"/>
      <point x="178" y="41" type="curve"/>
      <point x="178" y="42.5467"/>
      <point x="178" y="46.6602"/>
      <point x="178" y="48" type="curve"/>
      <point x="178" y="160"/>
      <point x="253" y="231"/>
      <point x="388" y="231" type="curve" smooth="yes"/>
      <point x="523" y="231"/>
      <point x="596" y="158"/>
      <point x="596" y="48" type="curve"/>
      <point x="596" y="46.4533"/>
      <point x="596" y="42.3398"/>
      <point x="596" y="41" type="curve"/>
      <point x="596" y="-70"/>
      <point x="522" y="-141"/>
    </contour>
  </outline>
  <guideline angle="90" x="1255" y="0"/>
  <guideline angle="0" x="0" y="37"/>
  <guideline angle="0" x="0" y="1214"/>
  <guideline angle="90" x="1251" y="0"/>
  <guideline angle="90" x="1447" y="0"/>
</glyph>
<glyph name="DdhaNukta.dv" format="2">
  <advance width="1575"/>
  <unicode hex="095D"/>
  <anchor x="899" y="-577" name="bottom"/>
  <anchor x="871" y="-400" name="bottom2"/>
  <anchor x="1387" y="-365" name="bottom3"/>
  <anchor x="832" y="-13" name="bottom5"/>
  <anchor x="1191" y="1214" name="top"/>
  <outline>
    <contour>
      <point x="918" y="999" type="line"/>
      <point x="897" y="1266" type="line"/>
      <point x="1569" y="1266" type="line"/>
      <point x="1590" y="999" type="line"/>
    </contour>
    <contour>
      <point x="1383" y="1082" type="line"/>
      <point x="1383" y="894" type="line"/>
      <point x="1012" y="894" type="line"/>
      <point x="1012" y="1082" type="line"/>
    </contour>
    <contour>
      <point x="-27" y="999" type="line"/>
      <point x="-48" y="1266" type="line"/>
      <point x="1611" y="1266" type="line"/>
      <point x="1632" y="999" type="line"/>
    </contour>
    <contour>
      <point x="1011" y="1089" type="line"/>
      <point x="1383" y="1089" type="line"/>
      <point x="1383" y="614" type="line"/>
      <point x="1011" y="739" type="line"/>
    </contour>
    <contour>
      <point x="87" y="431" type="line" smooth="yes"/>
      <point x="87" y="748"/>
      <point x="324" y="901"/>
      <point x="824" y="901" type="curve" smooth="yes"/>
      <point x="999" y="901"/>
      <point x="1187" y="890"/>
      <point x="1383" y="865" type="curve"/>
      <point x="1383" y="614" type="line"/>
      <point x="1200" y="634"/>
      <point x="1093" y="639"/>
      <point x="918" y="639" type="curve" smooth="yes"/>
      <point x="595" y="639"/>
      <point x="465" y="562"/>
      <point x="465" y="415" type="curve" smooth="yes"/>
      <point x="465" y="402" type="line" smooth="yes"/>
      <point x="465" y="269"/>
      <point x="580" y="185"/>
      <point x="888" y="185" type="curve" smooth="yes"/>
      <point x="1100" y="185"/>
      <point x="1157" y="204"/>
      <point x="1157" y="247" type="curve"/>
      <point x="1157" y="249" type="line"/>
      <point x="1157" y="281"/>
      <point x="1125" y="299"/>
      <point x="1055" y="299" type="curve" smooth="yes"/>
      <point x="981" y="299"/>
      <point x="945" y="280"/>
      <point x="945" y="244" type="curve" smooth="yes"/>
      <point x="945" y="241" type="line" smooth="yes"/>
      <point x="945" y="214"/>
      <point x="969" y="192"/>
      <point x="1006" y="180" type="curve"/>
      <point x="812" y="178" type="line"/>
      <point x="812" y="199" type="line"/>
      <point x="694" y="230"/>
      <point x="646" y="263"/>
      <point x="646" y="349" type="curve" smooth="yes"/>
      <point x="646" y="352" type="line" smooth="yes"/>
      <point x="646" y="468"/>
      <point x="774" y="538"/>
      <point x="1056" y="538" type="curve" smooth="yes"/>
      <point x="1353" y="538"/>
      <point x="1499" y="438"/>
      <point x="1499" y="265" type="curve" smooth="yes"/>
      <point x="1499" y="256" type="line" smooth="yes"/>
      <point x="1499" y="57"/>
      <point x="1290" y="-69"/>
      <point x="856" y="-69" type="curve" smooth="yes"/>
      <point x="377" y="-69"/>
      <point x="87" y="103"/>
      <point x="87" y="420" type="curve" smooth="yes"/>
    </contour>
    <contour>
      <point x="853" y="-502" type="curve" smooth="yes"/>
      <point x="718" y="-502"/>
      <point x="643" y="-431"/>
      <point x="643" y="-320" type="curve"/>
      <point x="643" y="-318.453"/>
      <point x="643" y="-314.34"/>
      <point x="643" y="-313" type="curve"/>
      <point x="643" y="-201"/>
      <point x="718" y="-130"/>
      <point x="853" y="-130" type="curve" smooth="yes"/>
      <point x="988" y="-130"/>
      <point x="1061" y="-203"/>
      <point x="1061" y="-313" type="curve"/>
      <point x="1061" y="-314.547"/>
      <point x="1061" y="-318.66"/>
      <point x="1061" y="-320" type="curve"/>
      <point x="1061" y="-431"/>
      <point x="987" y="-502"/>
    </contour>
  </outline>
</glyph>
<glyph name="YaNukta.dv" format="2">
  <advance width="1667"/>
  <unicode hex="095F"/>
  <anchor x="1325" y="37" name="bottom"/>
  <anchor x="1321" y="37" name="bottom2"/>
  <anchor x="1517" y="37" name="bottom3"/>
  <anchor x="1325" y="55" name="bottom5"/>
  <anchor x="1325" y="1214" name="top"/>
  <outline>
    <contour>
      <point x="1517" y="1082" type="line"/>
      <point x="1517" y="0" type="line"/>
      <point x="1133" y="0" type="line"/>
      <point x="1133" y="1082" type="line"/>
    </contour>
    <contour>
      <point x="1060" y="999" type="line"/>
      <point x="1039" y="1266" type="line"/>
      <point x="1703" y="1266" type="line"/>
      <point x="1724" y="999" type="line"/>
    </contour>
    <contour>
      <point x="-57" y="1266" type="line"/>
      <point x="1702" y="1266" type="line"/>
      <point x="1723" y="999" type="line"/>
      <point x="-36" y="999" type="line"/>
    </contour>
    <contour>
      <point x="749" y="1059" type="line"/>
      <point x="829" y="991"/>
      <point x="865" y="913"/>
      <point x="865" y="819" type="curve" smooth="yes"/>
      <point x="865" y="812" type="line" smooth="yes"/>
      <point x="865" y="637"/>
      <point x="726" y="534"/>
      <point x="397" y="522" type="curve" smooth="yes"/>
      <point x="214" y="514" type="line"/>
      <point x="100" y="742" type="line"/>
      <point x="167" y="742" type="line" smooth="yes"/>
      <point x="406" y="742"/>
      <point x="470" y="796"/>
      <point x="470" y="890" type="curve" smooth="yes"/>
      <point x="470" y="894" type="line" smooth="yes"/>
      <point x="470" y="952"/>
      <point x="445" y="1009"/>
      <point x="349" y="1059" type="curve"/>
    </contour>
    <contour>
      <point x="87" y="587" type="line" smooth="yes"/>
      <point x="87" y="637"/>
      <point x="91" y="680"/>
      <point x="100" y="742" type="curve"/>
      <point x="454" y="667" type="line"/>
      <point x="454" y="545" type="line" smooth="yes"/>
      <point x="454" y="456"/>
      <point x="543" y="400"/>
      <point x="776" y="400" type="curve" smooth="yes"/>
      <point x="1002" y="400"/>
      <point x="1111" y="459"/>
      <point x="1139" y="545" type="curve"/>
      <point x="1153" y="333" type="line"/>
      <point x="1121" y="333" type="line"/>
      <point x="1079" y="203"/>
      <point x="949" y="98"/>
      <point x="673" y="98" type="curve" smooth="yes"/>
      <point x="301" y="98"/>
      <point x="87" y="269"/>
      <point x="87" y="578" type="curve" smooth="yes"/>
    </contour>
    <contour>
      <point x="356" y="-306" type="curve" smooth="yes"/>
      <point x="221" y="-306"/>
      <point x="146" y="-235"/>
      <point x="146" y="-124" type="curve"/>
      <point x="146" y="-122.453"/>
      <point x="146" y="-118.34"/>
      <point x="146" y="-117" type="curve"/>
      <point x="146" y="-5"/>
      <point x="221" y="66"/>
      <point x="356" y="66" type="curve" smooth="yes"/>
      <point x="491" y="66"/>
      <point x="564" y="-7"/>
      <point x="564" y="-117" type="curve"/>
      <point x="564" y="-118.547"/>
      <point x="564" y="-122.66"/>
      <point x="564" y="-124" type="curve"/>
      <point x="564" y="-235"/>
      <point x="490" y="-306"/>
    </contour>
  </outline>
</glyph>
<glyph name="vowelRuu.dv" format="2">
  <advance width="2259"/>
  <unicode hex="0960"/>
  <anchor x="1723" y="37" name="bottom3"/>
  <anchor x="1155" y="55" name="bottom5"/>
  <anchor x="1155" y="1214" name="top"/>
  <outline>
    <contour>
      <point x="1347" y="-2" type="line"/>
      <point x="963" y="-2" type="line"/>
      <point x="963" y="1091" type="line"/>
      <point x="1347" y="1091" type="line"/>
    </contour>
    <contour>
      <point x="1014" y="245" type="line"/>
      <point x="99" y="-3" type="line"/>
      <point x="99" y="310" type="line"/>
      <point x="564" y="424" type="line"/>
      <point x="571" y="403" type="line"/>
      <point x="652" y="437"/>
      <point x="755" y="475"/>
      <point x="829" y="494" type="curve" smooth="yes"/>
      <point x="1014" y="541" type="line"/>
    </contour>
    <contour>
      <point x="663" y="394" type="line"/>
      <point x="329" y="352" type="line"/>
      <point x="420" y="393"/>
      <point x="452" y="438"/>
      <point x="452" y="494" type="curve"/>
      <point x="452" y="496" type="line"/>
      <point x="452" y="557"/>
      <point x="412" y="600"/>
      <point x="310" y="600" type="curve" smooth="yes"/>
      <point x="237" y="600"/>
      <point x="163" y="581"/>
      <point x="97" y="554" type="curve"/>
      <point x="119" y="858" type="line"/>
      <point x="202" y="884"/>
      <point x="308" y="899"/>
      <point x="414" y="899" type="curve" smooth="yes"/>
      <point x="686" y="899"/>
      <point x="820" y="797"/>
      <point x="820" y="651" type="curve" smooth="yes"/>
      <point x="820" y="647" type="line" smooth="yes"/>
      <point x="820" y="554"/>
      <point x="761" y="497"/>
      <point x="651" y="447" type="curve"/>
    </contour>
    <contour>
      <point x="2316" y="999" type="line"/>
      <point x="-35" y="999" type="line"/>
      <point x="-56" y="1266" type="line"/>
      <point x="2295" y="1266" type="line"/>
    </contour>
    <contour>
      <point x="1823" y="730" type="line"/>
      <point x="1919" y="477" type="line"/>
      <point x="1287" y="313" type="line"/>
      <point x="1287" y="598" type="line"/>
    </contour>
    <contour>
      <point x="1976" y="883" type="line"/>
      <point x="2031" y="808"/>
      <point x="2066" y="717"/>
      <point x="2082" y="627" type="curve"/>
      <point x="1942" y="509" type="line"/>
      <point x="1595" y="463" type="line"/>
      <point x="1595" y="883" type="line"/>
    </contour>
    <contour>
      <point x="1958" y="-196" type="curve" smooth="yes"/>
      <point x="1687" y="-196"/>
      <point x="1527" y="-94"/>
      <point x="1527" y="78" type="curve" smooth="yes"/>
      <point x="1527" y="84" type="line" smooth="yes"/>
      <point x="1527" y="233"/>
      <point x="1627.74" y="304"/>
      <point x="1826" y="329" type="curve"/>
      <point x="1826" y="338" type="line"/>
      <point x="1769.48" y="369.096"/>
      <point x="1690.16" y="426.559"/>
      <point x="1632" y="495" type="curve"/>
      <point x="1917" y="614" type="line"/>
      <point x="1981.21" y="529.677"/>
      <point x="2064.21" y="469.916"/>
      <point x="2171" y="419" type="curve"/>
      <point x="2171" y="190" type="line"/>
      <point x="1928" y="190"/>
      <point x="1876" y="173"/>
      <point x="1876" y="128" type="curve" smooth="yes"/>
      <point x="1876" y="125" type="line" smooth="yes"/>
      <point x="1876" y="89"/>
      <point x="1920" y="73"/>
      <point x="2020" y="73" type="curve" smooth="yes"/>
      <point x="2100" y="73"/>
      <point x="2162" y="84"/>
      <point x="2228" y="105" type="curve"/>
      <point x="2209" y="-157" type="line"/>
      <point x="2145" y="-182"/>
      <point x="2059" y="-196"/>
    </contour>
  </outline>
  <guideline angle="90" x="1155" y="0"/>
</glyph>
<glyph name="vowelLruu.dv" format="2">
  <advance width="1893"/>
  <unicode hex="0961"/>
  <anchor x="1566" y="-544" name="bottom3"/>
  <anchor x="1369" y="1214" name="top"/>
  <outline>
    <contour>
      <point x="1807" y="472" type="line"/>
      <point x="1807" y="461" type="line" smooth="yes"/>
      <point x="1807" y="324.803"/>
      <point x="1759.89" y="243.611"/>
      <point x="1649.5" y="161" type="curve" smooth="yes"/>
      <point x="1526.96" y="69.3025"/>
      <point x="1498" y="49.0541"/>
      <point x="1498" y="9" type="curve" smooth="yes"/>
      <point x="1498" y="-23"/>
      <point x="1529" y="-44"/>
      <point x="1606" y="-44" type="curve" smooth="yes"/>
      <point x="1697" y="-44"/>
      <point x="1768" y="-20"/>
      <point x="1832" y="16" type="curve"/>
      <point x="1814" y="-247" type="line"/>
      <point x="1745" y="-279"/>
      <point x="1649" y="-297"/>
      <point x="1549" y="-297" type="curve" smooth="yes"/>
      <point x="1286" y="-297"/>
      <point x="1118" y="-174"/>
      <point x="1118" y="-7" type="curve" smooth="yes"/>
      <point x="1118" y="95.5659"/>
      <point x="1155.69" y="159.249"/>
      <point x="1282.2" y="255" type="curve" smooth="yes"/>
      <point x="1374.84" y="325.111"/>
      <point x="1413" y="366.508"/>
      <point x="1413" y="434" type="curve" smooth="yes"/>
      <point x="1413" y="449" type="line"/>
    </contour>
    <contour>
      <point x="1517" y="-288" type="line"/>
      <point x="1473" y="-297"/>
      <point x="1447" y="-318"/>
      <point x="1447" y="-350" type="curve" smooth="yes"/>
      <point x="1447" y="-389"/>
      <point x="1481" y="-418"/>
      <point x="1578" y="-418" type="curve" smooth="yes"/>
      <point x="1670" y="-418"/>
      <point x="1749" y="-398"/>
      <point x="1834" y="-361" type="curve"/>
      <point x="1821" y="-613" type="line"/>
      <point x="1761" y="-644"/>
      <point x="1655" y="-666"/>
      <point x="1538" y="-666" type="curve" smooth="yes"/>
      <point x="1282" y="-666"/>
      <point x="1118" y="-576"/>
      <point x="1118" y="-418" type="curve" smooth="yes"/>
      <point x="1118" y="-331"/>
      <point x="1173" y="-271"/>
      <point x="1273" y="-246" type="curve"/>
      <point x="1273" y="-214" type="line"/>
    </contour>
    <contour>
      <point x="1096" y="999" type="line"/>
      <point x="1075" y="1266" type="line"/>
      <point x="1747" y="1266" type="line"/>
      <point x="1768" y="999" type="line"/>
    </contour>
    <contour>
      <point x="1561" y="1082" type="line"/>
      <point x="1561" y="894" type="line"/>
      <point x="1190" y="894" type="line"/>
      <point x="1190" y="1082" type="line"/>
    </contour>
    <contour>
      <point x="-36" y="999" type="line"/>
      <point x="-57" y="1266" type="line"/>
      <point x="1928" y="1266" type="line"/>
      <point x="1950" y="999" type="line"/>
    </contour>
    <contour>
      <point x="1561" y="1050" type="line"/>
      <point x="1561" y="801" type="line"/>
      <point x="1189" y="801" type="line"/>
      <point x="1189" y="1050" type="line"/>
    </contour>
    <contour>
      <point x="91" y="408" type="curve" smooth="yes"/>
      <point x="91" y="417" type="line" smooth="yes"/>
      <point x="91" y="687"/>
      <point x="269" y="858"/>
      <point x="579" y="858" type="curve" smooth="yes"/>
      <point x="806" y="858"/>
      <point x="910" y="776"/>
      <point x="954" y="659" type="curve"/>
      <point x="963" y="659" type="line"/>
      <point x="1006" y="776"/>
      <point x="1118" y="858"/>
      <point x="1340" y="858" type="curve" smooth="yes"/>
      <point x="1652" y="858"/>
      <point x="1807" y="684"/>
      <point x="1807" y="470" type="curve" smooth="yes"/>
      <point x="1807" y="459" type="line"/>
      <point x="1413" y="433" type="line"/>
      <point x="1413" y="441" type="line" smooth="yes"/>
      <point x="1413" y="506"/>
      <point x="1374" y="559"/>
      <point x="1289" y="559" type="curve" smooth="yes"/>
      <point x="1203" y="559"/>
      <point x="1161" y="518"/>
      <point x="1153" y="409" type="curve" smooth="yes"/>
      <point x="1143" y="247" type="line"/>
      <point x="778" y="247" type="line"/>
      <point x="767" y="409" type="line" smooth="yes"/>
      <point x="760" y="518"/>
      <point x="728" y="559"/>
      <point x="635" y="559" type="curve" smooth="yes"/>
      <point x="543" y="559"/>
      <point x="488" y="498"/>
      <point x="488" y="402" type="curve" smooth="yes"/>
      <point x="488" y="395" type="line" smooth="yes"/>
      <point x="488" y="256"/>
      <point x="575" y="141"/>
      <point x="742" y="7" type="curve"/>
      <point x="742" y="0" type="line"/>
      <point x="301" y="0" type="line"/>
      <point x="162" y="109"/>
      <point x="91" y="262"/>
    </contour>
  </outline>
</glyph>
<glyph name="matraLru.dv" format="2">
  <unicode hex="0962"/>
  <outline>
    <contour>
      <point x="5" y="-262" type="line"/>
      <point x="5" y="-267.186" type="line" smooth="yes"/>
      <point x="5" y="-361.57"/>
      <point x="-37.0375" y="-425.951"/>
      <point x="-116" y="-488" type="curve" smooth="yes"/>
      <point x="-202.965" y="-556.338"/>
      <point x="-225" y="-568.98"/>
      <point x="-225" y="-598.911" type="curve" smooth="yes"/>
      <point x="-225" y="-625.1"/>
      <point x="-197" y="-641"/>
      <point x="-143" y="-641" type="curve" smooth="yes"/>
      <point x="-84" y="-641"/>
      <point x="-36" y="-624"/>
      <point x="5" y="-601" type="curve"/>
      <point x="-11" y="-824" type="line"/>
      <point x="-63" y="-845"/>
      <point x="-120" y="-856"/>
      <point x="-200" y="-856" type="curve" smooth="yes"/>
      <point x="-396" y="-856"/>
      <point x="-524" y="-767.631"/>
      <point x="-524" y="-621.719" type="curve" smooth="yes"/>
      <point x="-524" y="-535.405"/>
      <point x="-495.804" y="-483.227"/>
      <point x="-417" y="-415" type="curve" smooth="yes"/>
      <point x="-346.804" y="-354.226"/>
      <point x="-323" y="-331.333"/>
      <point x="-323" y="-287.744" type="curve"/>
      <point x="-323" y="-286" type="line"/>
    </contour>
    <contour>
      <point x="-789" y="-418" type="line"/>
      <point x="-796" y="-304" type="line" smooth="yes"/>
      <point x="-800" y="-231"/>
      <point x="-823" y="-201"/>
      <point x="-878" y="-201" type="curve" smooth="yes"/>
      <point x="-935" y="-201"/>
      <point x="-971" y="-235"/>
      <point x="-971" y="-304" type="curve" smooth="yes"/>
      <point x="-971" y="-309" type="line" smooth="yes"/>
      <point x="-971" y="-390"/>
      <point x="-912" y="-486"/>
      <point x="-785" y="-591" type="curve"/>
      <point x="-1133" y="-591" type="line"/>
      <point x="-1229" y="-507"/>
      <point x="-1284" y="-411"/>
      <point x="-1284" y="-288" type="curve" smooth="yes"/>
      <point x="-1284" y="-283" type="line" smooth="yes"/>
      <point x="-1284" y="-96"/>
      <point x="-1150" y="29"/>
      <point x="-939" y="29" type="curve" smooth="yes"/>
      <point x="-765" y="29"/>
      <point x="-681" y="-31"/>
      <point x="-648" y="-137" type="curve"/>
      <point x="-641" y="-137" type="line"/>
      <point x="-606" y="-33"/>
      <point x="-515" y="29"/>
      <point x="-341" y="29" type="curve" smooth="yes"/>
      <point x="-109" y="29"/>
      <point x="5" y="-97"/>
      <point x="5" y="-258" type="curve" smooth="yes"/>
      <point x="5" y="-271" type="line"/>
      <point x="-323" y="-293" type="line"/>
      <point x="-323" y="-283" type="line" smooth="yes"/>
      <point x="-323" y="-235"/>
      <point x="-353" y="-201"/>
      <point x="-406" y="-201" type="curve" smooth="yes"/>
      <point x="-463" y="-201"/>
      <point x="-494" y="-229"/>
      <point x="-497" y="-306" type="curve" smooth="yes"/>
      <point x="-502" y="-418" type="line"/>
    </contour>
  </outline>
</glyph>
<glyph name="Shunya.dv" format="2">
  <advance width="1461"/>
  <unicode hex="0966"/>
  <outline>
    <contour>
      <point x="731.58" y="473.48" type="curve" smooth="yes"/>
      <point x="895.34" y="473.48"/>
      <point x="983" y="532"/>
      <point x="983" y="651" type="curve" smooth="yes"/>
      <point x="983" y="658" type="line" smooth="yes"/>
      <point x="983" y="775"/>
      <point x="895.34" y="836.6"/>
      <point x="731.58" y="836.6" type="curve" smooth="yes"/>
      <point x="567.82" y="836.6"/>
      <point x="478" y="776"/>
      <point x="478" y="659" type="curve" smooth="yes"/>
      <point x="478" y="652" type="line" smooth="yes"/>
      <point x="478" y="533"/>
      <point x="567.82" y="473.48"/>
    </contour>
    <contour>
      <point x="731.58" y="178" type="curve" smooth="yes"/>
      <point x="307.94" y="178"/>
      <point x="81.88" y="343.54"/>
      <point x="81.88" y="649.7" type="curve" smooth="yes"/>
      <point x="81.88" y="660.38" type="line" smooth="yes"/>
      <point x="81.88" y="966.54"/>
      <point x="309.72" y="1132.08"/>
      <point x="731.58" y="1132.08" type="curve" smooth="yes"/>
      <point x="1153.44" y="1132.08"/>
      <point x="1379.5" y="964.76"/>
      <point x="1379.5" y="660.38" type="curve" smooth="yes"/>
      <point x="1379.5" y="649.7" type="line" smooth="yes"/>
      <point x="1379.5" y="345.32"/>
      <point x="1153.44" y="178"/>
    </contour>
  </outline>
</glyph>
<glyph name="Ek.dv" format="2">
  <advance width="1371"/>
  <unicode hex="0967"/>
  <outline>
    <contour>
      <point x="1244" y="737" type="curve" smooth="yes"/>
      <point x="1244" y="0" type="line"/>
      <point x="865" y="0" type="line"/>
      <point x="865" y="810" type="line" smooth="yes"/>
      <point x="865" y="929"/>
      <point x="803" y="986"/>
      <point x="660" y="986" type="curve" smooth="yes"/>
      <point x="541" y="986"/>
      <point x="470" y="933"/>
      <point x="470" y="842" type="curve"/>
      <point x="470" y="840" type="line"/>
      <point x="470" y="744"/>
      <point x="538" y="694"/>
      <point x="667" y="694" type="curve" smooth="yes"/>
      <point x="774" y="694"/>
      <point x="851" y="737"/>
      <point x="874" y="801" type="curve"/>
      <point x="886" y="600" type="line"/>
      <point x="853" y="600" type="line"/>
      <point x="822" y="479"/>
      <point x="730" y="399"/>
      <point x="523" y="399" type="curve" smooth="yes"/>
      <point x="260" y="399"/>
      <point x="80" y="555"/>
      <point x="80" y="822" type="curve" smooth="yes"/>
      <point x="80" y="833" type="line" smooth="yes"/>
      <point x="80" y="1105"/>
      <point x="268" y="1282"/>
      <point x="646" y="1282" type="curve" smooth="yes"/>
      <point x="1063" y="1282"/>
      <point x="1244" y="1105"/>
    </contour>
  </outline>
  <guideline angle="0" x="0" y="717"/>
</glyph>
<glyph name="Don.dv" format="2">
  <advance width="1291"/>
  <unicode hex="0968"/>
  <outline>
    <contour>
      <point x="92" y="388" type="line"/>
      <point x="92" y="666" type="line"/>
      <point x="603" y="523" type="line"/>
      <point x="603" y="367" type="line"/>
      <point x="748" y="322"/>
      <point x="834.446" y="272.504"/>
      <point x="935" y="183" type="curve" smooth="yes"/>
      <point x="1117" y="21" type="line"/>
      <point x="1117" y="0" type="line"/>
      <point x="576" y="0" type="line"/>
      <point x="272" y="352" type="line"/>
    </contour>
    <contour>
      <point x="92" y="666" type="line"/>
      <point x="186" y="650"/>
      <point x="279" y="639"/>
      <point x="418" y="639" type="curve" smooth="yes"/>
      <point x="690" y="639"/>
      <point x="812" y="698"/>
      <point x="812" y="821" type="curve" smooth="yes"/>
      <point x="812" y="825" type="line" smooth="yes"/>
      <point x="812" y="916"/>
      <point x="745" y="984"/>
      <point x="558" y="984" type="curve" smooth="yes"/>
      <point x="400" y="984"/>
      <point x="286" y="959"/>
      <point x="133" y="906" type="curve"/>
      <point x="159" y="1214" type="line"/>
      <point x="275" y="1255"/>
      <point x="418" y="1282"/>
      <point x="599" y="1282" type="curve" smooth="yes"/>
      <point x="996" y="1282"/>
      <point x="1204" y="1105"/>
      <point x="1204" y="822" type="curve" smooth="yes"/>
      <point x="1204" y="812" type="line" smooth="yes"/>
      <point x="1204" y="543"/>
      <point x="992" y="370"/>
      <point x="524" y="370" type="curve" smooth="yes"/>
      <point x="467" y="370"/>
      <point x="434" y="370"/>
      <point x="377" y="370" type="curve"/>
    </contour>
  </outline>
</glyph>
